  0
SECTION
  2
BLOCKS
  0
ENDSEC
  0
SECTION
  2
ENTITIES
  0
LINE
  8
0
 10
271.272
 20
0.708054
 11
272.542
 21
2.1411
  0
LINE
  8
0
 10
272.542
 20
2.1411
 11
273
 21
4
  0
LINE
  8
0
 10
273
 20
4
 11
273
 21
69
  0
LINE
  8
0
 10
273
 20
69
 11
272.542
 21
70.8589
  0
LINE
  8
0
 10
272.542
 20
70.8589
 11
271.272
 21
72.2919
  0
LINE
  8
0
 10
271.272
 20
72.2919
 11
269.482
 21
72.9708
  0
LINE
  8
0
 10
269.482
 20
72.9708
 11
4.48213
 21
72.9708
  0
LINE
  8
0
 10
4.48213
 20
72.9708
 11
2.58157
 21
72.7401
  0
LINE
  8
0
 10
2.58157
 20
72.7401
 11
1.00595
 21
71.6525
  0
LINE
  8
0
 10
1.00595
 20
71.6525
 11
0.116226
 21
69.9573
  0
LINE
  8
0
 10
0.116226
 20
69.9573
 11
0.116226
 21
3.04272
  0
LINE
  8
0
 10
0.116226
 20
3.04272
 11
1.00595
 21
1.3475
  0
LINE
  8
0
 10
1.00595
 20
1.3475
 11
2.58157
 21
0.259933
  0
LINE
  8
0
 10
2.58157
 20
0.259933
 11
4.48213
 21
0.0291595
  0
LINE
  8
0
 10
4.48213
 20
0.0291595
 11
269.482
 21
0.0291595
  0
LINE
  8
0
 10
269.482
 20
0.0291595
 11
271.272
 21
0.708054
  0
LINE
  8
0
 10
141.725
 20
32.1939
 11
140.889
 21
32.8136
  0
LINE
  8
0
 10
140.889
 20
32.8136
 11
139.997
 21
33.3484
  0
LINE
  8
0
 10
139.997
 20
33.3484
 11
139.056
 21
33.7931
  0
LINE
  8
0
 10
139.056
 20
33.7931
 11
138.077
 21
34.1436
  0
LINE
  8
0
 10
138.077
 20
34.1436
 11
137.068
 21
34.3963
  0
LINE
  8
0
 10
137.068
 20
34.3963
 11
136.039
 21
34.549
  0
LINE
  8
0
 10
136.039
 20
34.549
 11
135
 21
34.6
  0
LINE
  8
0
 10
135
 20
34.6
 11
133.961
 21
34.549
  0
LINE
  8
0
 10
133.961
 20
34.549
 11
132.932
 21
34.3963
  0
LINE
  8
0
 10
132.932
 20
34.3963
 11
131.923
 21
34.1436
  0
LINE
  8
0
 10
131.923
 20
34.1436
 11
130.944
 21
33.7931
  0
LINE
  8
0
 10
130.944
 20
33.7931
 11
130.003
 21
33.3484
  0
LINE
  8
0
 10
130.003
 20
33.3484
 11
129.111
 21
32.8136
  0
LINE
  8
0
 10
129.111
 20
32.8136
 11
128.275
 21
32.1939
  0
LINE
  8
0
 10
128.275
 20
32.1939
 11
128.098
 21
32.0332
  0
LINE
  8
0
 10
128.098
 20
32.0332
 11
127.108
 21
33.0232
  0
LINE
  8
0
 10
127.108
 20
33.0232
 11
127.387
 21
33.2761
  0
LINE
  8
0
 10
127.387
 20
33.2761
 11
128.333
 21
33.9776
  0
LINE
  8
0
 10
128.333
 20
33.9776
 11
129.343
 21
34.5831
  0
LINE
  8
0
 10
129.343
 20
34.5831
 11
130.408
 21
35.0865
  0
LINE
  8
0
 10
130.408
 20
35.0865
 11
131.517
 21
35.4833
  0
LINE
  8
0
 10
131.517
 20
35.4833
 11
132.659
 21
35.7694
  0
LINE
  8
0
 10
132.659
 20
35.7694
 11
133.824
 21
35.9422
  0
LINE
  8
0
 10
133.824
 20
35.9422
 11
135
 21
36
  0
LINE
  8
0
 10
135
 20
36
 11
136.176
 21
35.9422
  0
LINE
  8
0
 10
136.176
 20
35.9422
 11
137.341
 21
35.7694
  0
LINE
  8
0
 10
137.341
 20
35.7694
 11
138.483
 21
35.4833
  0
LINE
  8
0
 10
138.483
 20
35.4833
 11
139.592
 21
35.0865
  0
LINE
  8
0
 10
139.592
 20
35.0865
 11
140.657
 21
34.5831
  0
LINE
  8
0
 10
140.657
 20
34.5831
 11
141.667
 21
33.9776
  0
LINE
  8
0
 10
141.667
 20
33.9776
 11
142.613
 21
33.2761
  0
LINE
  8
0
 10
142.613
 20
33.2761
 11
142.892
 21
33.0232
  0
LINE
  8
0
 10
142.892
 20
33.0232
 11
141.902
 21
32.0332
  0
LINE
  8
0
 10
141.902
 20
32.0332
 11
141.725
 21
32.1939
  0
LINE
  8
0
 10
139.445
 20
30.6517
 11
138.771
 21
31.0554
  0
LINE
  8
0
 10
138.771
 20
31.0554
 11
138.061
 21
31.391
  0
LINE
  8
0
 10
138.061
 20
31.391
 11
137.322
 21
31.6555
  0
LINE
  8
0
 10
137.322
 20
31.6555
 11
136.561
 21
31.8463
  0
LINE
  8
0
 10
136.561
 20
31.8463
 11
135.784
 21
31.9615
  0
LINE
  8
0
 10
135.784
 20
31.9615
 11
135
 21
32
  0
LINE
  8
0
 10
135
 20
32
 11
134.216
 21
31.9615
  0
LINE
  8
0
 10
134.216
 20
31.9615
 11
133.439
 21
31.8463
  0
LINE
  8
0
 10
133.439
 20
31.8463
 11
132.678
 21
31.6555
  0
LINE
  8
0
 10
132.678
 20
31.6555
 11
131.939
 21
31.391
  0
LINE
  8
0
 10
131.939
 20
31.391
 11
131.229
 21
31.0554
  0
LINE
  8
0
 10
131.229
 20
31.0554
 11
130.555
 21
30.6517
  0
LINE
  8
0
 10
130.555
 20
30.6517
 11
129.938
 21
30.1936
  0
LINE
  8
0
 10
129.938
 20
30.1936
 11
128.947
 21
31.1847
  0
LINE
  8
0
 10
128.947
 20
31.1847
 11
129.037
 21
31.2663
  0
LINE
  8
0
 10
129.037
 20
31.2663
 11
129.778
 21
31.8158
  0
LINE
  8
0
 10
129.778
 20
31.8158
 11
130.569
 21
32.2901
  0
LINE
  8
0
 10
130.569
 20
32.2901
 11
131.403
 21
32.6845
  0
LINE
  8
0
 10
131.403
 20
32.6845
 11
132.271
 21
32.9952
  0
LINE
  8
0
 10
132.271
 20
32.9952
 11
133.166
 21
33.2194
  0
LINE
  8
0
 10
133.166
 20
33.2194
 11
134.079
 21
33.3547
  0
LINE
  8
0
 10
134.079
 20
33.3547
 11
135
 21
33.4
  0
LINE
  8
0
 10
135
 20
33.4
 11
135.921
 21
33.3547
  0
LINE
  8
0
 10
135.921
 20
33.3547
 11
136.834
 21
33.2194
  0
LINE
  8
0
 10
136.834
 20
33.2194
 11
137.729
 21
32.9952
  0
LINE
  8
0
 10
137.729
 20
32.9952
 11
138.597
 21
32.6845
  0
LINE
  8
0
 10
138.597
 20
32.6845
 11
139.431
 21
32.2901
  0
LINE
  8
0
 10
139.431
 20
32.2901
 11
140.222
 21
31.8158
  0
LINE
  8
0
 10
140.222
 20
31.8158
 11
140.963
 21
31.2663
  0
LINE
  8
0
 10
140.963
 20
31.2663
 11
141.053
 21
31.1847
  0
LINE
  8
0
 10
141.053
 20
31.1847
 11
140.062
 21
30.1936
  0
LINE
  8
0
 10
140.062
 20
30.1936
 11
139.445
 21
30.6517
  0
LINE
  8
0
 10
125.724
 20
16.3873
 11
125.022
 21
17.3332
  0
LINE
  8
0
 10
125.022
 20
17.3332
 11
124.417
 21
18.3432
  0
LINE
  8
0
 10
124.417
 20
18.3432
 11
123.913
 21
19.4078
  0
LINE
  8
0
 10
123.913
 20
19.4078
 11
123.517
 21
20.5166
  0
LINE
  8
0
 10
123.517
 20
20.5166
 11
123.231
 21
21.6589
  0
LINE
  8
0
 10
123.231
 20
21.6589
 11
123.058
 21
22.8238
  0
LINE
  8
0
 10
123.058
 20
22.8238
 11
123
 21
24
  0
LINE
  8
0
 10
123
 20
24
 11
123.058
 21
25.1762
  0
LINE
  8
0
 10
123.058
 20
25.1762
 11
123.231
 21
26.3411
  0
LINE
  8
0
 10
123.231
 20
26.3411
 11
123.517
 21
27.4834
  0
LINE
  8
0
 10
123.517
 20
27.4834
 11
123.913
 21
28.5922
  0
LINE
  8
0
 10
123.913
 20
28.5922
 11
124.417
 21
29.6568
  0
LINE
  8
0
 10
124.417
 20
29.6568
 11
125.022
 21
30.6668
  0
LINE
  8
0
 10
125.022
 20
30.6668
 11
125.724
 21
31.6127
  0
LINE
  8
0
 10
125.724
 20
31.6127
 11
125.977
 21
31.8918
  0
LINE
  8
0
 10
125.977
 20
31.8918
 11
126.967
 21
30.9019
  0
LINE
  8
0
 10
126.967
 20
30.9019
 11
126.806
 21
30.7246
  0
LINE
  8
0
 10
126.806
 20
30.7246
 11
126.186
 21
29.889
  0
LINE
  8
0
 10
126.186
 20
29.889
 11
125.652
 21
28.9968
  0
LINE
  8
0
 10
125.652
 20
28.9968
 11
125.207
 21
28.0564
  0
LINE
  8
0
 10
125.207
 20
28.0564
 11
124.856
 21
27.077
  0
LINE
  8
0
 10
124.856
 20
27.077
 11
124.604
 21
26.0679
  0
LINE
  8
0
 10
124.604
 20
26.0679
 11
124.505
 21
25.4015
  0
LINE
  8
0
 10
124.505
 20
25.4015
 11
124.426
 21
25.3858
  0
LINE
  8
0
 10
124.426
 20
25.3858
 11
123.939
 21
25.0607
  0
LINE
  8
0
 10
123.939
 20
25.0607
 11
123.614
 21
24.574
  0
LINE
  8
0
 10
123.614
 20
24.574
 11
123.5
 21
24
  0
LINE
  8
0
 10
123.5
 20
24
 11
123.614
 21
23.426
  0
LINE
  8
0
 10
123.614
 20
23.426
 11
123.939
 21
22.9393
  0
LINE
  8
0
 10
123.939
 20
22.9393
 11
124.426
 21
22.6142
  0
LINE
  8
0
 10
124.426
 20
22.6142
 11
124.505
 21
22.5985
  0
LINE
  8
0
 10
124.505
 20
22.5985
 11
124.604
 21
21.9321
  0
LINE
  8
0
 10
124.604
 20
21.9321
 11
124.856
 21
20.923
  0
LINE
  8
0
 10
124.856
 20
20.923
 11
125.207
 21
19.9436
  0
LINE
  8
0
 10
125.207
 20
19.9436
 11
125.652
 21
19.0032
  0
LINE
  8
0
 10
125.652
 20
19.0032
 11
126.186
 21
18.111
  0
LINE
  8
0
 10
126.186
 20
18.111
 11
126.806
 21
17.2754
  0
LINE
  8
0
 10
126.806
 20
17.2754
 11
126.967
 21
17.0981
  0
LINE
  8
0
 10
126.967
 20
17.0981
 11
125.977
 21
16.1082
  0
LINE
  8
0
 10
125.977
 20
16.1082
 11
125.724
 21
16.3873
  0
LINE
  8
0
 10
143.033
 20
17.0981
 11
143.194
 21
17.2754
  0
LINE
  8
0
 10
143.194
 20
17.2754
 11
143.814
 21
18.111
  0
LINE
  8
0
 10
143.814
 20
18.111
 11
144.348
 21
19.0032
  0
LINE
  8
0
 10
144.348
 20
19.0032
 11
144.793
 21
19.9436
  0
LINE
  8
0
 10
144.793
 20
19.9436
 11
145.144
 21
20.923
  0
LINE
  8
0
 10
145.144
 20
20.923
 11
145.396
 21
21.9321
  0
LINE
  8
0
 10
145.396
 20
21.9321
 11
145.495
 21
22.5985
  0
LINE
  8
0
 10
145.495
 20
22.5985
 11
145.574
 21
22.6142
  0
LINE
  8
0
 10
145.574
 20
22.6142
 11
146.061
 21
22.9393
  0
LINE
  8
0
 10
146.061
 20
22.9393
 11
146.386
 21
23.426
  0
LINE
  8
0
 10
146.386
 20
23.426
 11
146.5
 21
24
  0
LINE
  8
0
 10
146.5
 20
24
 11
146.386
 21
24.574
  0
LINE
  8
0
 10
146.386
 20
24.574
 11
146.061
 21
25.0607
  0
LINE
  8
0
 10
146.061
 20
25.0607
 11
145.574
 21
25.3858
  0
LINE
  8
0
 10
145.574
 20
25.3858
 11
145.495
 21
25.4015
  0
LINE
  8
0
 10
145.495
 20
25.4015
 11
145.396
 21
26.0679
  0
LINE
  8
0
 10
145.396
 20
26.0679
 11
145.144
 21
27.077
  0
LINE
  8
0
 10
145.144
 20
27.077
 11
144.793
 21
28.0564
  0
LINE
  8
0
 10
144.793
 20
28.0564
 11
144.348
 21
28.9968
  0
LINE
  8
0
 10
144.348
 20
28.9968
 11
143.814
 21
29.889
  0
LINE
  8
0
 10
143.814
 20
29.889
 11
143.194
 21
30.7246
  0
LINE
  8
0
 10
143.194
 20
30.7246
 11
143.033
 21
30.9019
  0
LINE
  8
0
 10
143.033
 20
30.9019
 11
144.023
 21
31.8918
  0
LINE
  8
0
 10
144.023
 20
31.8918
 11
144.276
 21
31.6127
  0
LINE
  8
0
 10
144.276
 20
31.6127
 11
144.978
 21
30.6668
  0
LINE
  8
0
 10
144.978
 20
30.6668
 11
145.583
 21
29.6568
  0
LINE
  8
0
 10
145.583
 20
29.6568
 11
146.087
 21
28.5922
  0
LINE
  8
0
 10
146.087
 20
28.5922
 11
146.483
 21
27.4834
  0
LINE
  8
0
 10
146.483
 20
27.4834
 11
146.769
 21
26.3411
  0
LINE
  8
0
 10
146.769
 20
26.3411
 11
146.942
 21
25.1762
  0
LINE
  8
0
 10
146.942
 20
25.1762
 11
147
 21
24
  0
LINE
  8
0
 10
147
 20
24
 11
146.942
 21
22.8238
  0
LINE
  8
0
 10
146.942
 20
22.8238
 11
146.769
 21
21.6589
  0
LINE
  8
0
 10
146.769
 20
21.6589
 11
146.483
 21
20.5166
  0
LINE
  8
0
 10
146.483
 20
20.5166
 11
146.087
 21
19.4078
  0
LINE
  8
0
 10
146.087
 20
19.4078
 11
145.583
 21
18.3432
  0
LINE
  8
0
 10
145.583
 20
18.3432
 11
144.978
 21
17.3332
  0
LINE
  8
0
 10
144.978
 20
17.3332
 11
144.276
 21
16.3873
  0
LINE
  8
0
 10
144.276
 20
16.3873
 11
144.023
 21
16.1082
  0
LINE
  8
0
 10
144.023
 20
16.1082
 11
143.033
 21
17.0981
  0
LINE
  8
0
 10
138
 20
28.4899
 11
137.546
 21
28.7624
  0
LINE
  8
0
 10
137.546
 20
28.7624
 11
137.066
 21
28.9889
  0
LINE
  8
0
 10
137.066
 20
28.9889
 11
136.568
 21
29.1675
  0
LINE
  8
0
 10
136.568
 20
29.1675
 11
136.053
 21
29.2962
  0
LINE
  8
0
 10
136.053
 20
29.2962
 11
135.529
 21
29.374
  0
LINE
  8
0
 10
135.529
 20
29.374
 11
135
 21
29.4
  0
LINE
  8
0
 10
135
 20
29.4
 11
134.471
 21
29.374
  0
LINE
  8
0
 10
134.471
 20
29.374
 11
133.947
 21
29.2962
  0
LINE
  8
0
 10
133.947
 20
29.2962
 11
133.432
 21
29.1675
  0
LINE
  8
0
 10
133.432
 20
29.1675
 11
132.934
 21
28.9889
  0
LINE
  8
0
 10
132.934
 20
28.9889
 11
132.454
 21
28.7624
  0
LINE
  8
0
 10
132.454
 20
28.7624
 11
132
 21
28.4899
  0
LINE
  8
0
 10
132
 20
28.4899
 11
131.794
 21
28.3373
  0
LINE
  8
0
 10
131.794
 20
28.3373
 11
130.795
 21
29.3369
  0
LINE
  8
0
 10
130.795
 20
29.3369
 11
131.222
 21
29.654
  0
LINE
  8
0
 10
131.222
 20
29.654
 11
131.795
 21
29.9971
  0
LINE
  8
0
 10
131.795
 20
29.9971
 11
132.398
 21
30.2824
  0
LINE
  8
0
 10
132.398
 20
30.2824
 11
133.026
 21
30.5072
  0
LINE
  8
0
 10
133.026
 20
30.5072
 11
133.673
 21
30.6693
  0
LINE
  8
0
 10
133.673
 20
30.6693
 11
134.333
 21
30.7672
  0
LINE
  8
0
 10
134.333
 20
30.7672
 11
135
 21
30.8
  0
LINE
  8
0
 10
135
 20
30.8
 11
135.667
 21
30.7672
  0
LINE
  8
0
 10
135.667
 20
30.7672
 11
136.327
 21
30.6693
  0
LINE
  8
0
 10
136.327
 20
30.6693
 11
136.974
 21
30.5072
  0
LINE
  8
0
 10
136.974
 20
30.5072
 11
137.602
 21
30.2824
  0
LINE
  8
0
 10
137.602
 20
30.2824
 11
138.205
 21
29.9971
  0
LINE
  8
0
 10
138.205
 20
29.9971
 11
138.778
 21
29.654
  0
LINE
  8
0
 10
138.778
 20
29.654
 11
139.205
 21
29.3369
  0
LINE
  8
0
 10
139.205
 20
29.3369
 11
138.206
 21
28.3373
  0
LINE
  8
0
 10
138.206
 20
28.3373
 11
138
 21
28.4899
  0
LINE
  8
0
 10
127.734
 20
18.0367
 11
127.184
 21
18.7776
  0
LINE
  8
0
 10
127.184
 20
18.7776
 11
126.71
 21
19.5689
  0
LINE
  8
0
 10
126.71
 20
19.5689
 11
126.316
 21
20.4028
  0
LINE
  8
0
 10
126.316
 20
20.4028
 11
126.005
 21
21.2713
  0
LINE
  8
0
 10
126.005
 20
21.2713
 11
125.781
 21
22.1662
  0
LINE
  8
0
 10
125.781
 20
22.1662
 11
125.702
 21
22.6994
  0
LINE
  8
0
 10
125.702
 20
22.6994
 11
126.061
 21
22.9393
  0
LINE
  8
0
 10
126.061
 20
22.9393
 11
126.386
 21
23.426
  0
LINE
  8
0
 10
126.386
 20
23.426
 11
126.5
 21
24
  0
LINE
  8
0
 10
126.5
 20
24
 11
126.386
 21
24.574
  0
LINE
  8
0
 10
126.386
 20
24.574
 11
126.061
 21
25.0607
  0
LINE
  8
0
 10
126.061
 20
25.0607
 11
125.702
 21
25.3006
  0
LINE
  8
0
 10
125.702
 20
25.3006
 11
125.781
 21
25.8338
  0
LINE
  8
0
 10
125.781
 20
25.8338
 11
126.005
 21
26.7287
  0
LINE
  8
0
 10
126.005
 20
26.7287
 11
126.316
 21
27.5972
  0
LINE
  8
0
 10
126.316
 20
27.5972
 11
126.71
 21
28.4311
  0
LINE
  8
0
 10
126.71
 20
28.4311
 11
127.184
 21
29.2224
  0
LINE
  8
0
 10
127.184
 20
29.2224
 11
127.734
 21
29.9633
  0
LINE
  8
0
 10
127.734
 20
29.9633
 11
127.815
 21
30.0533
  0
LINE
  8
0
 10
127.815
 20
30.0533
 11
128.806
 21
29.0623
  0
LINE
  8
0
 10
128.806
 20
29.0623
 11
128.348
 21
28.4445
  0
LINE
  8
0
 10
128.348
 20
28.4445
 11
127.945
 21
27.7712
  0
LINE
  8
0
 10
127.945
 20
27.7712
 11
127.609
 21
27.0615
  0
LINE
  8
0
 10
127.609
 20
27.0615
 11
127.344
 21
26.3223
  0
LINE
  8
0
 10
127.344
 20
26.3223
 11
127.154
 21
25.5607
  0
LINE
  8
0
 10
127.154
 20
25.5607
 11
127.039
 21
24.7841
  0
LINE
  8
0
 10
127.039
 20
24.7841
 11
127
 21
24
  0
LINE
  8
0
 10
127
 20
24
 11
127.039
 21
23.2159
  0
LINE
  8
0
 10
127.039
 20
23.2159
 11
127.154
 21
22.4393
  0
LINE
  8
0
 10
127.154
 20
22.4393
 11
127.344
 21
21.6777
  0
LINE
  8
0
 10
127.344
 20
21.6777
 11
127.609
 21
20.9385
  0
LINE
  8
0
 10
127.609
 20
20.9385
 11
127.945
 21
20.2288
  0
LINE
  8
0
 10
127.945
 20
20.2288
 11
128.348
 21
19.5555
  0
LINE
  8
0
 10
128.348
 20
19.5555
 11
128.806
 21
18.9377
  0
LINE
  8
0
 10
128.806
 20
18.9377
 11
127.815
 21
17.9467
  0
LINE
  8
0
 10
127.815
 20
17.9467
 11
127.734
 21
18.0367
  0
LINE
  8
0
 10
141.194
 20
18.9377
 11
141.652
 21
19.5555
  0
LINE
  8
0
 10
141.652
 20
19.5555
 11
142.055
 21
20.2288
  0
LINE
  8
0
 10
142.055
 20
20.2288
 11
142.391
 21
20.9385
  0
LINE
  8
0
 10
142.391
 20
20.9385
 11
142.656
 21
21.6777
  0
LINE
  8
0
 10
142.656
 20
21.6777
 11
142.846
 21
22.4393
  0
LINE
  8
0
 10
142.846
 20
22.4393
 11
142.961
 21
23.2159
  0
LINE
  8
0
 10
142.961
 20
23.2159
 11
143
 21
24
  0
LINE
  8
0
 10
143
 20
24
 11
142.961
 21
24.7841
  0
LINE
  8
0
 10
142.961
 20
24.7841
 11
142.846
 21
25.5607
  0
LINE
  8
0
 10
142.846
 20
25.5607
 11
142.656
 21
26.3223
  0
LINE
  8
0
 10
142.656
 20
26.3223
 11
142.391
 21
27.0615
  0
LINE
  8
0
 10
142.391
 20
27.0615
 11
142.055
 21
27.7712
  0
LINE
  8
0
 10
142.055
 20
27.7712
 11
141.652
 21
28.4445
  0
LINE
  8
0
 10
141.652
 20
28.4445
 11
141.194
 21
29.0623
  0
LINE
  8
0
 10
141.194
 20
29.0623
 11
142.185
 21
30.0533
  0
LINE
  8
0
 10
142.185
 20
30.0533
 11
142.266
 21
29.9633
  0
LINE
  8
0
 10
142.266
 20
29.9633
 11
142.816
 21
29.2224
  0
LINE
  8
0
 10
142.816
 20
29.2224
 11
143.29
 21
28.4311
  0
LINE
  8
0
 10
143.29
 20
28.4311
 11
143.684
 21
27.5972
  0
LINE
  8
0
 10
143.684
 20
27.5972
 11
143.995
 21
26.7287
  0
LINE
  8
0
 10
143.995
 20
26.7287
 11
144.219
 21
25.8338
  0
LINE
  8
0
 10
144.219
 20
25.8338
 11
144.298
 21
25.3006
  0
LINE
  8
0
 10
144.298
 20
25.3006
 11
143.939
 21
25.0607
  0
LINE
  8
0
 10
143.939
 20
25.0607
 11
143.614
 21
24.574
  0
LINE
  8
0
 10
143.614
 20
24.574
 11
143.5
 21
24
  0
LINE
  8
0
 10
143.5
 20
24
 11
143.614
 21
23.426
  0
LINE
  8
0
 10
143.614
 20
23.426
 11
143.939
 21
22.9393
  0
LINE
  8
0
 10
143.939
 20
22.9393
 11
144.298
 21
22.6994
  0
LINE
  8
0
 10
144.298
 20
22.6994
 11
144.219
 21
22.1662
  0
LINE
  8
0
 10
144.219
 20
22.1662
 11
143.995
 21
21.2713
  0
LINE
  8
0
 10
143.995
 20
21.2713
 11
143.684
 21
20.4028
  0
LINE
  8
0
 10
143.684
 20
20.4028
 11
143.29
 21
19.5689
  0
LINE
  8
0
 10
143.29
 20
19.5689
 11
142.816
 21
18.7776
  0
LINE
  8
0
 10
142.816
 20
18.7776
 11
142.266
 21
18.0367
  0
LINE
  8
0
 10
142.266
 20
18.0367
 11
142.185
 21
17.9467
  0
LINE
  8
0
 10
142.185
 20
17.9467
 11
141.194
 21
18.9377
  0
LINE
  8
0
 10
139.337
 20
20.7941
 11
139.49
 21
20.9999
  0
LINE
  8
0
 10
139.49
 20
20.9999
 11
139.762
 21
21.4545
  0
LINE
  8
0
 10
139.762
 20
21.4545
 11
139.989
 21
21.9335
  0
LINE
  8
0
 10
139.989
 20
21.9335
 11
140.167
 21
22.4325
  0
LINE
  8
0
 10
140.167
 20
22.4325
 11
140.296
 21
22.9465
  0
LINE
  8
0
 10
140.296
 20
22.9465
 11
140.374
 21
23.4707
  0
LINE
  8
0
 10
140.374
 20
23.4707
 11
140.4
 21
24
  0
LINE
  8
0
 10
140.4
 20
24
 11
140.374
 21
24.5293
  0
LINE
  8
0
 10
140.374
 20
24.5293
 11
140.296
 21
25.0535
  0
LINE
  8
0
 10
140.296
 20
25.0535
 11
140.167
 21
25.5675
  0
LINE
  8
0
 10
140.167
 20
25.5675
 11
139.989
 21
26.0665
  0
LINE
  8
0
 10
139.989
 20
26.0665
 11
139.762
 21
26.5455
  0
LINE
  8
0
 10
139.762
 20
26.5455
 11
139.49
 21
27.0001
  0
LINE
  8
0
 10
139.49
 20
27.0001
 11
139.337
 21
27.2059
  0
LINE
  8
0
 10
139.337
 20
27.2059
 11
140.337
 21
28.2055
  0
LINE
  8
0
 10
140.337
 20
28.2055
 11
140.654
 21
27.7779
  0
LINE
  8
0
 10
140.654
 20
27.7779
 11
140.997
 21
27.2055
  0
LINE
  8
0
 10
140.997
 20
27.2055
 11
141.282
 21
26.6022
  0
LINE
  8
0
 10
141.282
 20
26.6022
 11
141.507
 21
25.9739
  0
LINE
  8
0
 10
141.507
 20
25.9739
 11
141.669
 21
25.3266
  0
LINE
  8
0
 10
141.669
 20
25.3266
 11
141.767
 21
24.6665
  0
LINE
  8
0
 10
141.767
 20
24.6665
 11
141.8
 21
24
  0
LINE
  8
0
 10
141.8
 20
24
 11
141.767
 21
23.3335
  0
LINE
  8
0
 10
141.767
 20
23.3335
 11
141.669
 21
22.6734
  0
LINE
  8
0
 10
141.669
 20
22.6734
 11
141.507
 21
22.0261
  0
LINE
  8
0
 10
141.507
 20
22.0261
 11
141.282
 21
21.3978
  0
LINE
  8
0
 10
141.282
 20
21.3978
 11
140.997
 21
20.7945
  0
LINE
  8
0
 10
140.997
 20
20.7945
 11
140.654
 21
20.2221
  0
LINE
  8
0
 10
140.654
 20
20.2221
 11
140.337
 21
19.7945
  0
LINE
  8
0
 10
140.337
 20
19.7945
 11
139.337
 21
20.7941
  0
LINE
  8
0
 10
129.346
 20
20.2221
 11
129.003
 21
20.7945
  0
LINE
  8
0
 10
129.003
 20
20.7945
 11
128.718
 21
21.3978
  0
LINE
  8
0
 10
128.718
 20
21.3978
 11
128.493
 21
22.0261
  0
LINE
  8
0
 10
128.493
 20
22.0261
 11
128.331
 21
22.6734
  0
LINE
  8
0
 10
128.331
 20
22.6734
 11
128.233
 21
23.3335
  0
LINE
  8
0
 10
128.233
 20
23.3335
 11
128.2
 21
24
  0
LINE
  8
0
 10
128.2
 20
24
 11
128.233
 21
24.6665
  0
LINE
  8
0
 10
128.233
 20
24.6665
 11
128.331
 21
25.3266
  0
LINE
  8
0
 10
128.331
 20
25.3266
 11
128.493
 21
25.9739
  0
LINE
  8
0
 10
128.493
 20
25.9739
 11
128.718
 21
26.6022
  0
LINE
  8
0
 10
128.718
 20
26.6022
 11
129.003
 21
27.2055
  0
LINE
  8
0
 10
129.003
 20
27.2055
 11
129.346
 21
27.7779
  0
LINE
  8
0
 10
129.346
 20
27.7779
 11
129.663
 21
28.2055
  0
LINE
  8
0
 10
129.663
 20
28.2055
 11
130.663
 21
27.2059
  0
LINE
  8
0
 10
130.663
 20
27.2059
 11
130.51
 21
27.0001
  0
LINE
  8
0
 10
130.51
 20
27.0001
 11
130.238
 21
26.5455
  0
LINE
  8
0
 10
130.238
 20
26.5455
 11
130.011
 21
26.0665
  0
LINE
  8
0
 10
130.011
 20
26.0665
 11
129.833
 21
25.5675
  0
LINE
  8
0
 10
129.833
 20
25.5675
 11
129.704
 21
25.0535
  0
LINE
  8
0
 10
129.704
 20
25.0535
 11
129.626
 21
24.5293
  0
LINE
  8
0
 10
129.626
 20
24.5293
 11
129.6
 21
24
  0
LINE
  8
0
 10
129.6
 20
24
 11
129.626
 21
23.4707
  0
LINE
  8
0
 10
129.626
 20
23.4707
 11
129.704
 21
22.9465
  0
LINE
  8
0
 10
129.704
 20
22.9465
 11
129.833
 21
22.4325
  0
LINE
  8
0
 10
129.833
 20
22.4325
 11
130.011
 21
21.9335
  0
LINE
  8
0
 10
130.011
 20
21.9335
 11
130.238
 21
21.4545
  0
LINE
  8
0
 10
130.238
 20
21.4545
 11
130.51
 21
20.9999
  0
LINE
  8
0
 10
130.51
 20
20.9999
 11
130.663
 21
20.7941
  0
LINE
  8
0
 10
130.663
 20
20.7941
 11
129.663
 21
19.7945
  0
LINE
  8
0
 10
129.663
 20
19.7945
 11
129.346
 21
20.2221
  0
LINE
  8
0
 10
134.482
 20
22.0681
 11
134
 21
22.2679
  0
LINE
  8
0
 10
134
 20
22.2679
 11
133.586
 21
22.5858
  0
LINE
  8
0
 10
133.586
 20
22.5858
 11
133.268
 21
23
  0
LINE
  8
0
 10
133.268
 20
23
 11
133.068
 21
23.4824
  0
LINE
  8
0
 10
133.068
 20
23.4824
 11
133
 21
24
  0
LINE
  8
0
 10
133
 20
24
 11
133.068
 21
24.5176
  0
LINE
  8
0
 10
133.068
 20
24.5176
 11
133.268
 21
25
  0
LINE
  8
0
 10
133.268
 20
25
 11
133.586
 21
25.4142
  0
LINE
  8
0
 10
133.586
 20
25.4142
 11
134
 21
25.732
  0
LINE
  8
0
 10
134
 20
25.732
 11
134.482
 21
25.9318
  0
LINE
  8
0
 10
134.482
 20
25.9318
 11
135
 21
26
  0
LINE
  8
0
 10
135
 20
26
 11
135.518
 21
25.9318
  0
LINE
  8
0
 10
135.518
 20
25.9318
 11
136
 21
25.732
  0
LINE
  8
0
 10
136
 20
25.732
 11
136.414
 21
25.4142
  0
LINE
  8
0
 10
136.414
 20
25.4142
 11
136.732
 21
25
  0
LINE
  8
0
 10
136.732
 20
25
 11
136.932
 21
24.5176
  0
LINE
  8
0
 10
136.932
 20
24.5176
 11
137
 21
24
  0
LINE
  8
0
 10
137
 20
24
 11
136.932
 21
23.4824
  0
LINE
  8
0
 10
136.932
 20
23.4824
 11
136.732
 21
23
  0
LINE
  8
0
 10
136.732
 20
23
 11
136.414
 21
22.5858
  0
LINE
  8
0
 10
136.414
 20
22.5858
 11
136
 21
22.2679
  0
LINE
  8
0
 10
136
 20
22.2679
 11
135.518
 21
22.0681
  0
LINE
  8
0
 10
135.518
 20
22.0681
 11
135
 21
22
  0
LINE
  8
0
 10
135
 20
22
 11
134.482
 21
22.0681
  0
LINE
  8
0
 10
134.333
 20
17.2328
 11
133.673
 21
17.3307
  0
LINE
  8
0
 10
133.673
 20
17.3307
 11
133.026
 21
17.4928
  0
LINE
  8
0
 10
133.026
 20
17.4928
 11
132.398
 21
17.7176
  0
LINE
  8
0
 10
132.398
 20
17.7176
 11
131.795
 21
18.0029
  0
LINE
  8
0
 10
131.795
 20
18.0029
 11
131.222
 21
18.346
  0
LINE
  8
0
 10
131.222
 20
18.346
 11
130.795
 21
18.6631
  0
LINE
  8
0
 10
130.795
 20
18.6631
 11
131.794
 21
19.6627
  0
LINE
  8
0
 10
131.794
 20
19.6627
 11
132
 21
19.5101
  0
LINE
  8
0
 10
132
 20
19.5101
 11
132.454
 21
19.2376
  0
LINE
  8
0
 10
132.454
 20
19.2376
 11
132.934
 21
19.0111
  0
LINE
  8
0
 10
132.934
 20
19.0111
 11
133.432
 21
18.8325
  0
LINE
  8
0
 10
133.432
 20
18.8325
 11
133.947
 21
18.7038
  0
LINE
  8
0
 10
133.947
 20
18.7038
 11
134.471
 21
18.626
  0
LINE
  8
0
 10
134.471
 20
18.626
 11
135
 21
18.6
  0
LINE
  8
0
 10
135
 20
18.6
 11
135.529
 21
18.626
  0
LINE
  8
0
 10
135.529
 20
18.626
 11
136.053
 21
18.7038
  0
LINE
  8
0
 10
136.053
 20
18.7038
 11
136.568
 21
18.8325
  0
LINE
  8
0
 10
136.568
 20
18.8325
 11
137.066
 21
19.0111
  0
LINE
  8
0
 10
137.066
 20
19.0111
 11
137.546
 21
19.2376
  0
LINE
  8
0
 10
137.546
 20
19.2376
 11
138
 21
19.5101
  0
LINE
  8
0
 10
138
 20
19.5101
 11
138.206
 21
19.6627
  0
LINE
  8
0
 10
138.206
 20
19.6627
 11
139.205
 21
18.6631
  0
LINE
  8
0
 10
139.205
 20
18.6631
 11
138.778
 21
18.346
  0
LINE
  8
0
 10
138.778
 20
18.346
 11
138.205
 21
18.0029
  0
LINE
  8
0
 10
138.205
 20
18.0029
 11
137.602
 21
17.7176
  0
LINE
  8
0
 10
137.602
 20
17.7176
 11
136.974
 21
17.4928
  0
LINE
  8
0
 10
136.974
 20
17.4928
 11
136.327
 21
17.3307
  0
LINE
  8
0
 10
136.327
 20
17.3307
 11
135.667
 21
17.2328
  0
LINE
  8
0
 10
135.667
 20
17.2328
 11
135
 21
17.2
  0
LINE
  8
0
 10
135
 20
17.2
 11
134.333
 21
17.2328
  0
LINE
  8
0
 10
134.079
 20
14.6453
 11
133.166
 21
14.7806
  0
LINE
  8
0
 10
133.166
 20
14.7806
 11
132.271
 21
15.0048
  0
LINE
  8
0
 10
132.271
 20
15.0048
 11
131.403
 21
15.3155
  0
LINE
  8
0
 10
131.403
 20
15.3155
 11
130.569
 21
15.7099
  0
LINE
  8
0
 10
130.569
 20
15.7099
 11
129.778
 21
16.1842
  0
LINE
  8
0
 10
129.778
 20
16.1842
 11
129.037
 21
16.7337
  0
LINE
  8
0
 10
129.037
 20
16.7337
 11
128.947
 21
16.8153
  0
LINE
  8
0
 10
128.947
 20
16.8153
 11
129.938
 21
17.8064
  0
LINE
  8
0
 10
129.938
 20
17.8064
 11
130.555
 21
17.3483
  0
LINE
  8
0
 10
130.555
 20
17.3483
 11
131.229
 21
16.9446
  0
LINE
  8
0
 10
131.229
 20
16.9446
 11
131.939
 21
16.609
  0
LINE
  8
0
 10
131.939
 20
16.609
 11
132.678
 21
16.3445
  0
LINE
  8
0
 10
132.678
 20
16.3445
 11
133.439
 21
16.1537
  0
LINE
  8
0
 10
133.439
 20
16.1537
 11
134.216
 21
16.0385
  0
LINE
  8
0
 10
134.216
 20
16.0385
 11
135
 21
16
  0
LINE
  8
0
 10
135
 20
16
 11
135.784
 21
16.0385
  0
LINE
  8
0
 10
135.784
 20
16.0385
 11
136.561
 21
16.1537
  0
LINE
  8
0
 10
136.561
 20
16.1537
 11
137.322
 21
16.3445
  0
LINE
  8
0
 10
137.322
 20
16.3445
 11
138.061
 21
16.609
  0
LINE
  8
0
 10
138.061
 20
16.609
 11
138.771
 21
16.9446
  0
LINE
  8
0
 10
138.771
 20
16.9446
 11
139.445
 21
17.3483
  0
LINE
  8
0
 10
139.445
 20
17.3483
 11
140.062
 21
17.8064
  0
LINE
  8
0
 10
140.062
 20
17.8064
 11
141.053
 21
16.8153
  0
LINE
  8
0
 10
141.053
 20
16.8153
 11
140.963
 21
16.7337
  0
LINE
  8
0
 10
140.963
 20
16.7337
 11
140.222
 21
16.1842
  0
LINE
  8
0
 10
140.222
 20
16.1842
 11
139.431
 21
15.7099
  0
LINE
  8
0
 10
139.431
 20
15.7099
 11
138.597
 21
15.3155
  0
LINE
  8
0
 10
138.597
 20
15.3155
 11
137.729
 21
15.0048
  0
LINE
  8
0
 10
137.729
 20
15.0048
 11
136.834
 21
14.7806
  0
LINE
  8
0
 10
136.834
 20
14.7806
 11
135.921
 21
14.6453
  0
LINE
  8
0
 10
135.921
 20
14.6453
 11
135
 21
14.6
  0
LINE
  8
0
 10
135
 20
14.6
 11
134.079
 21
14.6453
  0
LINE
  8
0
 10
133.824
 20
12.0578
 11
132.659
 21
12.2306
  0
LINE
  8
0
 10
132.659
 20
12.2306
 11
131.517
 21
12.5167
  0
LINE
  8
0
 10
131.517
 20
12.5167
 11
130.408
 21
12.9135
  0
LINE
  8
0
 10
130.408
 20
12.9135
 11
129.343
 21
13.4169
  0
LINE
  8
0
 10
129.343
 20
13.4169
 11
128.333
 21
14.0224
  0
LINE
  8
0
 10
128.333
 20
14.0224
 11
127.387
 21
14.7239
  0
LINE
  8
0
 10
127.387
 20
14.7239
 11
127.108
 21
14.9768
  0
LINE
  8
0
 10
127.108
 20
14.9768
 11
128.098
 21
15.9668
  0
LINE
  8
0
 10
128.098
 20
15.9668
 11
128.275
 21
15.8061
  0
LINE
  8
0
 10
128.275
 20
15.8061
 11
129.111
 21
15.1864
  0
LINE
  8
0
 10
129.111
 20
15.1864
 11
130.003
 21
14.6516
  0
LINE
  8
0
 10
130.003
 20
14.6516
 11
130.944
 21
14.2069
  0
LINE
  8
0
 10
130.944
 20
14.2069
 11
131.923
 21
13.8564
  0
LINE
  8
0
 10
131.923
 20
13.8564
 11
132.932
 21
13.6037
  0
LINE
  8
0
 10
132.932
 20
13.6037
 11
133.961
 21
13.451
  0
LINE
  8
0
 10
133.961
 20
13.451
 11
135
 21
13.4
  0
LINE
  8
0
 10
135
 20
13.4
 11
136.039
 21
13.451
  0
LINE
  8
0
 10
136.039
 20
13.451
 11
137.068
 21
13.6037
  0
LINE
  8
0
 10
137.068
 20
13.6037
 11
138.077
 21
13.8564
  0
LINE
  8
0
 10
138.077
 20
13.8564
 11
139.056
 21
14.2069
  0
LINE
  8
0
 10
139.056
 20
14.2069
 11
139.997
 21
14.6516
  0
LINE
  8
0
 10
139.997
 20
14.6516
 11
140.889
 21
15.1864
  0
LINE
  8
0
 10
140.889
 20
15.1864
 11
141.725
 21
15.8061
  0
LINE
  8
0
 10
141.725
 20
15.8061
 11
141.902
 21
15.9668
  0
LINE
  8
0
 10
141.902
 20
15.9668
 11
142.892
 21
14.9768
  0
LINE
  8
0
 10
142.892
 20
14.9768
 11
142.613
 21
14.7239
  0
LINE
  8
0
 10
142.613
 20
14.7239
 11
141.667
 21
14.0224
  0
LINE
  8
0
 10
141.667
 20
14.0224
 11
140.657
 21
13.4169
  0
LINE
  8
0
 10
140.657
 20
13.4169
 11
139.592
 21
12.9135
  0
LINE
  8
0
 10
139.592
 20
12.9135
 11
138.483
 21
12.5167
  0
LINE
  8
0
 10
138.483
 20
12.5167
 11
137.341
 21
12.2306
  0
LINE
  8
0
 10
137.341
 20
12.2306
 11
136.176
 21
12.0578
  0
LINE
  8
0
 10
136.176
 20
12.0578
 11
135
 21
12
  0
LINE
  8
0
 10
135
 20
12
 11
133.824
 21
12.0578
  0
ENDSEC
  0
SECTION
  2
OBJECTS
  0
DICTIONARY
  0
ENDSEC
  0
EOF
