  0
SECTION
  2
BLOCKS
  0
ENDSEC
  0
SECTION
  2
ENTITIES
  0
LINE
  8
0
 10
272.272
 20
0.708054
 11
273.542
 21
2.1411
  0
LINE
  8
0
 10
273.542
 20
2.1411
 11
274
 21
4
  0
LINE
  8
0
 10
274
 20
4
 11
274
 21
69
  0
LINE
  8
0
 10
274
 20
69
 11
273.542
 21
70.8589
  0
LINE
  8
0
 10
273.542
 20
70.8589
 11
272.272
 21
72.2919
  0
LINE
  8
0
 10
272.272
 20
72.2919
 11
270.482
 21
72.9708
  0
LINE
  8
0
 10
270.482
 20
72.9708
 11
4.48213
 21
72.9708
  0
LINE
  8
0
 10
4.48213
 20
72.9708
 11
2.58157
 21
72.7401
  0
LINE
  8
0
 10
2.58157
 20
72.7401
 11
1.00595
 21
71.6525
  0
LINE
  8
0
 10
1.00595
 20
71.6525
 11
0.116226
 21
69.9573
  0
LINE
  8
0
 10
0.116226
 20
69.9573
 11
0.116226
 21
3.04272
  0
LINE
  8
0
 10
0.116226
 20
3.04272
 11
1.00595
 21
1.3475
  0
LINE
  8
0
 10
1.00595
 20
1.3475
 11
2.58157
 21
0.259933
  0
LINE
  8
0
 10
2.58157
 20
0.259933
 11
4.48213
 21
0.0291595
  0
LINE
  8
0
 10
4.48213
 20
0.0291595
 11
270.482
 21
0.0291595
  0
LINE
  8
0
 10
270.482
 20
0.0291595
 11
272.272
 21
0.708054
  0
LINE
  8
0
 10
266.534
 20
64.7613
 11
266.1
 21
64.9411
  0
LINE
  8
0
 10
266.1
 20
64.9411
 11
265.727
 21
65.2272
  0
LINE
  8
0
 10
265.727
 20
65.2272
 11
265.441
 21
65.6
  0
LINE
  8
0
 10
265.441
 20
65.6
 11
265.261
 21
66.0341
  0
LINE
  8
0
 10
265.261
 20
66.0341
 11
265.2
 21
66.5
  0
LINE
  8
0
 10
265.2
 20
66.5
 11
265.261
 21
66.9659
  0
LINE
  8
0
 10
265.261
 20
66.9659
 11
265.441
 21
67.4
  0
LINE
  8
0
 10
265.441
 20
67.4
 11
265.727
 21
67.7728
  0
LINE
  8
0
 10
265.727
 20
67.7728
 11
266.1
 21
68.0588
  0
LINE
  8
0
 10
266.1
 20
68.0588
 11
266.534
 21
68.2387
  0
LINE
  8
0
 10
266.534
 20
68.2387
 11
267
 21
68.3
  0
LINE
  8
0
 10
267
 20
68.3
 11
267.466
 21
68.2387
  0
LINE
  8
0
 10
267.466
 20
68.2387
 11
267.9
 21
68.0588
  0
LINE
  8
0
 10
267.9
 20
68.0588
 11
268.273
 21
67.7728
  0
LINE
  8
0
 10
268.273
 20
67.7728
 11
268.559
 21
67.4
  0
LINE
  8
0
 10
268.559
 20
67.4
 11
268.739
 21
66.9659
  0
LINE
  8
0
 10
268.739
 20
66.9659
 11
268.8
 21
66.5
  0
LINE
  8
0
 10
268.8
 20
66.5
 11
268.739
 21
66.0341
  0
LINE
  8
0
 10
268.739
 20
66.0341
 11
268.559
 21
65.6
  0
LINE
  8
0
 10
268.559
 20
65.6
 11
268.273
 21
65.2272
  0
LINE
  8
0
 10
268.273
 20
65.2272
 11
267.9
 21
64.9411
  0
LINE
  8
0
 10
267.9
 20
64.9411
 11
267.466
 21
64.7613
  0
LINE
  8
0
 10
267.466
 20
64.7613
 11
267
 21
64.7
  0
LINE
  8
0
 10
267
 20
64.7
 11
266.534
 21
64.7613
  0
LINE
  8
0
 10
144.262
 20
35.2859
 11
143.111
 21
36.1395
  0
LINE
  8
0
 10
143.111
 20
36.1395
 11
141.882
 21
36.876
  0
LINE
  8
0
 10
141.882
 20
36.876
 11
140.587
 21
37.4886
  0
LINE
  8
0
 10
140.587
 20
37.4886
 11
139.238
 21
37.9713
  0
LINE
  8
0
 10
139.238
 20
37.9713
 11
137.848
 21
38.3195
  0
LINE
  8
0
 10
137.848
 20
38.3195
 11
136.431
 21
38.5297
  0
LINE
  8
0
 10
136.431
 20
38.5297
 11
135
 21
38.6
  0
LINE
  8
0
 10
135
 20
38.6
 11
133.569
 21
38.5297
  0
LINE
  8
0
 10
133.569
 20
38.5297
 11
132.152
 21
38.3195
  0
LINE
  8
0
 10
132.152
 20
38.3195
 11
130.762
 21
37.9713
  0
LINE
  8
0
 10
130.762
 20
37.9713
 11
129.413
 21
37.4886
  0
LINE
  8
0
 10
129.413
 20
37.4886
 11
128.118
 21
36.876
  0
LINE
  8
0
 10
128.118
 20
36.876
 11
126.889
 21
36.1395
  0
LINE
  8
0
 10
126.889
 20
36.1395
 11
125.738
 21
35.2859
  0
LINE
  8
0
 10
125.738
 20
35.2859
 11
125.27
 21
34.8616
  0
LINE
  8
0
 10
125.27
 20
34.8616
 11
124.28
 21
35.8516
  0
LINE
  8
0
 10
124.28
 20
35.8516
 11
124.85
 21
36.3682
  0
LINE
  8
0
 10
124.85
 20
36.3682
 11
126.111
 21
37.3035
  0
LINE
  8
0
 10
126.111
 20
37.3035
 11
127.458
 21
38.1107
  0
LINE
  8
0
 10
127.458
 20
38.1107
 11
128.877
 21
38.7821
  0
LINE
  8
0
 10
128.877
 20
38.7821
 11
130.355
 21
39.311
  0
LINE
  8
0
 10
130.355
 20
39.311
 11
131.879
 21
39.6926
  0
LINE
  8
0
 10
131.879
 20
39.6926
 11
133.432
 21
39.9229
  0
LINE
  8
0
 10
133.432
 20
39.9229
 11
135
 21
40
  0
LINE
  8
0
 10
135
 20
40
 11
136.568
 21
39.9229
  0
LINE
  8
0
 10
136.568
 20
39.9229
 11
138.121
 21
39.6926
  0
LINE
  8
0
 10
138.121
 20
39.6926
 11
139.645
 21
39.311
  0
LINE
  8
0
 10
139.645
 20
39.311
 11
141.123
 21
38.7821
  0
LINE
  8
0
 10
141.123
 20
38.7821
 11
142.542
 21
38.1107
  0
LINE
  8
0
 10
142.542
 20
38.1107
 11
143.889
 21
37.3035
  0
LINE
  8
0
 10
143.889
 20
37.3035
 11
145.15
 21
36.3682
  0
LINE
  8
0
 10
145.15
 20
36.3682
 11
145.72
 21
35.8516
  0
LINE
  8
0
 10
145.72
 20
35.8516
 11
144.73
 21
34.8616
  0
LINE
  8
0
 10
144.73
 20
34.8616
 11
144.262
 21
35.2859
  0
LINE
  8
0
 10
142.613
 20
33.2761
 11
141.667
 21
33.9776
  0
LINE
  8
0
 10
141.667
 20
33.9776
 11
140.657
 21
34.5831
  0
LINE
  8
0
 10
140.657
 20
34.5831
 11
139.592
 21
35.0865
  0
LINE
  8
0
 10
139.592
 20
35.0865
 11
138.483
 21
35.4833
  0
LINE
  8
0
 10
138.483
 20
35.4833
 11
137.341
 21
35.7694
  0
LINE
  8
0
 10
137.341
 20
35.7694
 11
136.176
 21
35.9422
  0
LINE
  8
0
 10
136.176
 20
35.9422
 11
135
 21
36
  0
LINE
  8
0
 10
135
 20
36
 11
133.824
 21
35.9422
  0
LINE
  8
0
 10
133.824
 20
35.9422
 11
132.659
 21
35.7694
  0
LINE
  8
0
 10
132.659
 20
35.7694
 11
131.517
 21
35.4833
  0
LINE
  8
0
 10
131.517
 20
35.4833
 11
130.408
 21
35.0865
  0
LINE
  8
0
 10
130.408
 20
35.0865
 11
129.343
 21
34.5831
  0
LINE
  8
0
 10
129.343
 20
34.5831
 11
128.333
 21
33.9776
  0
LINE
  8
0
 10
128.333
 20
33.9776
 11
127.387
 21
33.2761
  0
LINE
  8
0
 10
127.387
 20
33.2761
 11
127.108
 21
33.0232
  0
LINE
  8
0
 10
127.108
 20
33.0232
 11
126.118
 21
34.0131
  0
LINE
  8
0
 10
126.118
 20
34.0131
 11
126.499
 21
34.3583
  0
LINE
  8
0
 10
126.499
 20
34.3583
 11
127.555
 21
35.1417
  0
LINE
  8
0
 10
127.555
 20
35.1417
 11
128.683
 21
35.8177
  0
LINE
  8
0
 10
128.683
 20
35.8177
 11
129.872
 21
36.38
  0
LINE
  8
0
 10
129.872
 20
36.38
 11
131.11
 21
36.823
  0
LINE
  8
0
 10
131.11
 20
36.823
 11
132.386
 21
37.1425
  0
LINE
  8
0
 10
132.386
 20
37.1425
 11
133.687
 21
37.3355
  0
LINE
  8
0
 10
133.687
 20
37.3355
 11
135
 21
37.4
  0
LINE
  8
0
 10
135
 20
37.4
 11
136.313
 21
37.3355
  0
LINE
  8
0
 10
136.313
 20
37.3355
 11
137.614
 21
37.1425
  0
LINE
  8
0
 10
137.614
 20
37.1425
 11
138.89
 21
36.823
  0
LINE
  8
0
 10
138.89
 20
36.823
 11
140.128
 21
36.38
  0
LINE
  8
0
 10
140.128
 20
36.38
 11
141.317
 21
35.8177
  0
LINE
  8
0
 10
141.317
 20
35.8177
 11
142.445
 21
35.1417
  0
LINE
  8
0
 10
142.445
 20
35.1417
 11
143.501
 21
34.3583
  0
LINE
  8
0
 10
143.501
 20
34.3583
 11
143.882
 21
34.0131
  0
LINE
  8
0
 10
143.882
 20
34.0131
 11
142.892
 21
33.0232
  0
LINE
  8
0
 10
142.892
 20
33.0232
 11
142.613
 21
33.2761
  0
LINE
  8
0
 10
140.963
 20
31.2663
 11
140.222
 21
31.8158
  0
LINE
  8
0
 10
140.222
 20
31.8158
 11
139.431
 21
32.2901
  0
LINE
  8
0
 10
139.431
 20
32.2901
 11
138.597
 21
32.6845
  0
LINE
  8
0
 10
138.597
 20
32.6845
 11
137.729
 21
32.9952
  0
LINE
  8
0
 10
137.729
 20
32.9952
 11
136.834
 21
33.2194
  0
LINE
  8
0
 10
136.834
 20
33.2194
 11
135.921
 21
33.3547
  0
LINE
  8
0
 10
135.921
 20
33.3547
 11
135
 21
33.4
  0
LINE
  8
0
 10
135
 20
33.4
 11
134.079
 21
33.3547
  0
LINE
  8
0
 10
134.079
 20
33.3547
 11
133.166
 21
33.2194
  0
LINE
  8
0
 10
133.166
 20
33.2194
 11
132.271
 21
32.9952
  0
LINE
  8
0
 10
132.271
 20
32.9952
 11
131.403
 21
32.6845
  0
LINE
  8
0
 10
131.403
 20
32.6845
 11
130.569
 21
32.2901
  0
LINE
  8
0
 10
130.569
 20
32.2901
 11
129.778
 21
31.8158
  0
LINE
  8
0
 10
129.778
 20
31.8158
 11
129.037
 21
31.2663
  0
LINE
  8
0
 10
129.037
 20
31.2663
 11
128.947
 21
31.1847
  0
LINE
  8
0
 10
128.947
 20
31.1847
 11
127.957
 21
32.1746
  0
LINE
  8
0
 10
127.957
 20
32.1746
 11
128.149
 21
32.3485
  0
LINE
  8
0
 10
128.149
 20
32.3485
 11
129
 21
32.9799
  0
LINE
  8
0
 10
129
 20
32.9799
 11
129.909
 21
33.5247
  0
LINE
  8
0
 10
129.909
 20
33.5247
 11
130.867
 21
33.9779
  0
LINE
  8
0
 10
130.867
 20
33.9779
 11
131.865
 21
34.3349
  0
LINE
  8
0
 10
131.865
 20
34.3349
 11
132.893
 21
34.5925
  0
LINE
  8
0
 10
132.893
 20
34.5925
 11
133.941
 21
34.748
  0
LINE
  8
0
 10
133.941
 20
34.748
 11
135
 21
34.8
  0
LINE
  8
0
 10
135
 20
34.8
 11
136.059
 21
34.748
  0
LINE
  8
0
 10
136.059
 20
34.748
 11
137.107
 21
34.5925
  0
LINE
  8
0
 10
137.107
 20
34.5925
 11
138.135
 21
34.3349
  0
LINE
  8
0
 10
138.135
 20
34.3349
 11
139.133
 21
33.9779
  0
LINE
  8
0
 10
139.133
 20
33.9779
 11
140.091
 21
33.5247
  0
LINE
  8
0
 10
140.091
 20
33.5247
 11
141
 21
32.9799
  0
LINE
  8
0
 10
141
 20
32.9799
 11
141.851
 21
32.3485
  0
LINE
  8
0
 10
141.851
 20
32.3485
 11
142.043
 21
32.1746
  0
LINE
  8
0
 10
142.043
 20
32.1746
 11
141.053
 21
31.1847
  0
LINE
  8
0
 10
141.053
 20
31.1847
 11
140.963
 21
31.2663
  0
LINE
  8
0
 10
150.574
 20
25.3858
 11
150
 21
25.5
  0
LINE
  8
0
 10
150
 20
25.5
 11
149.531
 21
25.4067
  0
LINE
  8
0
 10
149.531
 20
25.4067
 11
149.53
 21
25.431
  0
LINE
  8
0
 10
149.53
 20
25.431
 11
149.319
 21
26.8483
  0
LINE
  8
0
 10
149.319
 20
26.8483
 11
148.971
 21
28.2381
  0
LINE
  8
0
 10
148.971
 20
28.2381
 11
148.489
 21
29.5872
  0
LINE
  8
0
 10
148.489
 20
29.5872
 11
147.876
 21
30.8824
  0
LINE
  8
0
 10
147.876
 20
30.8824
 11
147.139
 21
32.1113
  0
LINE
  8
0
 10
147.139
 20
32.1113
 11
146.286
 21
33.2621
  0
LINE
  8
0
 10
146.286
 20
33.2621
 11
145.862
 21
33.7303
  0
LINE
  8
0
 10
145.862
 20
33.7303
 11
146.852
 21
34.7202
  0
LINE
  8
0
 10
146.852
 20
34.7202
 11
147.368
 21
34.1503
  0
LINE
  8
0
 10
147.368
 20
34.1503
 11
148.304
 21
32.8891
  0
LINE
  8
0
 10
148.304
 20
32.8891
 11
149.111
 21
31.5423
  0
LINE
  8
0
 10
149.111
 20
31.5423
 11
149.782
 21
30.1229
  0
LINE
  8
0
 10
149.782
 20
30.1229
 11
150.311
 21
28.6445
  0
LINE
  8
0
 10
150.311
 20
28.6445
 11
150.693
 21
27.1214
  0
LINE
  8
0
 10
150.693
 20
27.1214
 11
150.923
 21
25.5683
  0
LINE
  8
0
 10
150.923
 20
25.5683
 11
150.944
 21
25.1386
  0
LINE
  8
0
 10
150.944
 20
25.1386
 11
150.574
 21
25.3858
  0
LINE
  8
0
 10
119.077
 20
25.5683
 11
119.307
 21
27.1214
  0
LINE
  8
0
 10
119.307
 20
27.1214
 11
119.689
 21
28.6445
  0
LINE
  8
0
 10
119.689
 20
28.6445
 11
120.218
 21
30.1229
  0
LINE
  8
0
 10
120.218
 20
30.1229
 11
120.889
 21
31.5423
  0
LINE
  8
0
 10
120.889
 20
31.5423
 11
121.696
 21
32.8891
  0
LINE
  8
0
 10
121.696
 20
32.8891
 11
122.632
 21
34.1503
  0
LINE
  8
0
 10
122.632
 20
34.1503
 11
123.148
 21
34.7202
  0
LINE
  8
0
 10
123.148
 20
34.7202
 11
124.138
 21
33.7303
  0
LINE
  8
0
 10
124.138
 20
33.7303
 11
123.714
 21
33.2621
  0
LINE
  8
0
 10
123.714
 20
33.2621
 11
122.861
 21
32.1113
  0
LINE
  8
0
 10
122.861
 20
32.1113
 11
122.124
 21
30.8824
  0
LINE
  8
0
 10
122.124
 20
30.8824
 11
121.511
 21
29.5872
  0
LINE
  8
0
 10
121.511
 20
29.5872
 11
121.029
 21
28.2381
  0
LINE
  8
0
 10
121.029
 20
28.2381
 11
120.681
 21
26.8483
  0
LINE
  8
0
 10
120.681
 20
26.8483
 11
120.47
 21
25.431
  0
LINE
  8
0
 10
120.47
 20
25.431
 11
120.469
 21
25.4067
  0
LINE
  8
0
 10
120.469
 20
25.4067
 11
120
 21
25.5
  0
LINE
  8
0
 10
120
 20
25.5
 11
119.426
 21
25.3858
  0
LINE
  8
0
 10
119.426
 20
25.3858
 11
119.056
 21
25.1386
  0
LINE
  8
0
 10
119.056
 20
25.1386
 11
119.077
 21
25.5683
  0
LINE
  8
0
 10
124.642
 20
15.4991
 11
123.858
 21
16.5554
  0
LINE
  8
0
 10
123.858
 20
16.5554
 11
123.182
 21
17.6833
  0
LINE
  8
0
 10
123.182
 20
17.6833
 11
122.62
 21
18.8721
  0
LINE
  8
0
 10
122.62
 20
18.8721
 11
122.177
 21
20.1102
  0
LINE
  8
0
 10
122.177
 20
20.1102
 11
121.857
 21
21.3858
  0
LINE
  8
0
 10
121.857
 20
21.3858
 11
121.665
 21
22.6866
  0
LINE
  8
0
 10
121.665
 20
22.6866
 11
121.6
 21
24
  0
LINE
  8
0
 10
121.6
 20
24
 11
121.665
 21
25.3134
  0
LINE
  8
0
 10
121.665
 20
25.3134
 11
121.857
 21
26.6142
  0
LINE
  8
0
 10
121.857
 20
26.6142
 11
122.177
 21
27.8898
  0
LINE
  8
0
 10
122.177
 20
27.8898
 11
122.62
 21
29.1279
  0
LINE
  8
0
 10
122.62
 20
29.1279
 11
123.182
 21
30.3167
  0
LINE
  8
0
 10
123.182
 20
30.3167
 11
123.858
 21
31.4446
  0
LINE
  8
0
 10
123.858
 20
31.4446
 11
124.642
 21
32.5009
  0
LINE
  8
0
 10
124.642
 20
32.5009
 11
124.987
 21
32.8818
  0
LINE
  8
0
 10
124.987
 20
32.8818
 11
125.977
 21
31.8918
  0
LINE
  8
0
 10
125.977
 20
31.8918
 11
125.724
 21
31.6127
  0
LINE
  8
0
 10
125.724
 20
31.6127
 11
125.022
 21
30.6668
  0
LINE
  8
0
 10
125.022
 20
30.6668
 11
124.417
 21
29.6568
  0
LINE
  8
0
 10
124.417
 20
29.6568
 11
123.913
 21
28.5922
  0
LINE
  8
0
 10
123.913
 20
28.5922
 11
123.517
 21
27.4834
  0
LINE
  8
0
 10
123.517
 20
27.4834
 11
123.231
 21
26.3411
  0
LINE
  8
0
 10
123.231
 20
26.3411
 11
123.058
 21
25.1762
  0
LINE
  8
0
 10
123.058
 20
25.1762
 11
123
 21
24
  0
LINE
  8
0
 10
123
 20
24
 11
123.058
 21
22.8238
  0
LINE
  8
0
 10
123.058
 20
22.8238
 11
123.231
 21
21.6589
  0
LINE
  8
0
 10
123.231
 20
21.6589
 11
123.517
 21
20.5166
  0
LINE
  8
0
 10
123.517
 20
20.5166
 11
123.913
 21
19.4078
  0
LINE
  8
0
 10
123.913
 20
19.4078
 11
124.417
 21
18.3432
  0
LINE
  8
0
 10
124.417
 20
18.3432
 11
125.022
 21
17.3332
  0
LINE
  8
0
 10
125.022
 20
17.3332
 11
125.724
 21
16.3873
  0
LINE
  8
0
 10
125.724
 20
16.3873
 11
125.977
 21
16.1082
  0
LINE
  8
0
 10
125.977
 20
16.1082
 11
124.987
 21
15.1182
  0
LINE
  8
0
 10
124.987
 20
15.1182
 11
124.642
 21
15.4991
  0
LINE
  8
0
 10
144.023
 20
16.1082
 11
144.276
 21
16.3873
  0
LINE
  8
0
 10
144.276
 20
16.3873
 11
144.978
 21
17.3332
  0
LINE
  8
0
 10
144.978
 20
17.3332
 11
145.583
 21
18.3432
  0
LINE
  8
0
 10
145.583
 20
18.3432
 11
146.087
 21
19.4078
  0
LINE
  8
0
 10
146.087
 20
19.4078
 11
146.483
 21
20.5166
  0
LINE
  8
0
 10
146.483
 20
20.5166
 11
146.769
 21
21.6589
  0
LINE
  8
0
 10
146.769
 20
21.6589
 11
146.942
 21
22.8238
  0
LINE
  8
0
 10
146.942
 20
22.8238
 11
147
 21
24
  0
LINE
  8
0
 10
147
 20
24
 11
146.942
 21
25.1762
  0
LINE
  8
0
 10
146.942
 20
25.1762
 11
146.769
 21
26.3411
  0
LINE
  8
0
 10
146.769
 20
26.3411
 11
146.483
 21
27.4834
  0
LINE
  8
0
 10
146.483
 20
27.4834
 11
146.087
 21
28.5922
  0
LINE
  8
0
 10
146.087
 20
28.5922
 11
145.583
 21
29.6568
  0
LINE
  8
0
 10
145.583
 20
29.6568
 11
144.978
 21
30.6668
  0
LINE
  8
0
 10
144.978
 20
30.6668
 11
144.276
 21
31.6127
  0
LINE
  8
0
 10
144.276
 20
31.6127
 11
144.023
 21
31.8918
  0
LINE
  8
0
 10
144.023
 20
31.8918
 11
145.013
 21
32.8818
  0
LINE
  8
0
 10
145.013
 20
32.8818
 11
145.358
 21
32.5009
  0
LINE
  8
0
 10
145.358
 20
32.5009
 11
146.142
 21
31.4446
  0
LINE
  8
0
 10
146.142
 20
31.4446
 11
146.818
 21
30.3167
  0
LINE
  8
0
 10
146.818
 20
30.3167
 11
147.38
 21
29.1279
  0
LINE
  8
0
 10
147.38
 20
29.1279
 11
147.823
 21
27.8898
  0
LINE
  8
0
 10
147.823
 20
27.8898
 11
148.143
 21
26.6142
  0
LINE
  8
0
 10
148.143
 20
26.6142
 11
148.335
 21
25.3134
  0
LINE
  8
0
 10
148.335
 20
25.3134
 11
148.4
 21
24
  0
LINE
  8
0
 10
148.4
 20
24
 11
148.335
 21
22.6866
  0
LINE
  8
0
 10
148.335
 20
22.6866
 11
148.143
 21
21.3858
  0
LINE
  8
0
 10
148.143
 20
21.3858
 11
147.823
 21
20.1102
  0
LINE
  8
0
 10
147.823
 20
20.1102
 11
147.38
 21
18.8721
  0
LINE
  8
0
 10
147.38
 20
18.8721
 11
146.818
 21
17.6833
  0
LINE
  8
0
 10
146.818
 20
17.6833
 11
146.142
 21
16.5554
  0
LINE
  8
0
 10
146.142
 20
16.5554
 11
145.358
 21
15.4991
  0
LINE
  8
0
 10
145.358
 20
15.4991
 11
145.013
 21
15.1182
  0
LINE
  8
0
 10
145.013
 20
15.1182
 11
144.023
 21
16.1082
  0
LINE
  8
0
 10
142.185
 20
17.9467
 11
142.266
 21
18.0367
  0
LINE
  8
0
 10
142.266
 20
18.0367
 11
142.816
 21
18.7776
  0
LINE
  8
0
 10
142.816
 20
18.7776
 11
143.29
 21
19.5689
  0
LINE
  8
0
 10
143.29
 20
19.5689
 11
143.684
 21
20.4028
  0
LINE
  8
0
 10
143.684
 20
20.4028
 11
143.995
 21
21.2713
  0
LINE
  8
0
 10
143.995
 20
21.2713
 11
144.219
 21
22.1662
  0
LINE
  8
0
 10
144.219
 20
22.1662
 11
144.355
 21
23.0786
  0
LINE
  8
0
 10
144.355
 20
23.0786
 11
144.4
 21
24
  0
LINE
  8
0
 10
144.4
 20
24
 11
144.355
 21
24.9214
  0
LINE
  8
0
 10
144.355
 20
24.9214
 11
144.219
 21
25.8338
  0
LINE
  8
0
 10
144.219
 20
25.8338
 11
143.995
 21
26.7287
  0
LINE
  8
0
 10
143.995
 20
26.7287
 11
143.684
 21
27.5972
  0
LINE
  8
0
 10
143.684
 20
27.5972
 11
143.29
 21
28.4311
  0
LINE
  8
0
 10
143.29
 20
28.4311
 11
142.816
 21
29.2224
  0
LINE
  8
0
 10
142.816
 20
29.2224
 11
142.266
 21
29.9633
  0
LINE
  8
0
 10
142.266
 20
29.9633
 11
142.185
 21
30.0533
  0
LINE
  8
0
 10
142.185
 20
30.0533
 11
143.175
 21
31.0433
  0
LINE
  8
0
 10
143.175
 20
31.0433
 11
143.349
 21
30.8514
  0
LINE
  8
0
 10
143.349
 20
30.8514
 11
143.98
 21
30.0002
  0
LINE
  8
0
 10
143.98
 20
30.0002
 11
144.525
 21
29.0911
  0
LINE
  8
0
 10
144.525
 20
29.0911
 11
144.978
 21
28.133
  0
LINE
  8
0
 10
144.978
 20
28.133
 11
145.335
 21
27.1351
  0
LINE
  8
0
 10
145.335
 20
27.1351
 11
145.592
 21
26.107
  0
LINE
  8
0
 10
145.592
 20
26.107
 11
145.748
 21
25.0586
  0
LINE
  8
0
 10
145.748
 20
25.0586
 11
145.8
 21
24
  0
LINE
  8
0
 10
145.8
 20
24
 11
145.748
 21
22.9414
  0
LINE
  8
0
 10
145.748
 20
22.9414
 11
145.592
 21
21.893
  0
LINE
  8
0
 10
145.592
 20
21.893
 11
145.335
 21
20.8649
  0
LINE
  8
0
 10
145.335
 20
20.8649
 11
144.978
 21
19.867
  0
LINE
  8
0
 10
144.978
 20
19.867
 11
144.525
 21
18.9089
  0
LINE
  8
0
 10
144.525
 20
18.9089
 11
143.98
 21
17.9998
  0
LINE
  8
0
 10
143.98
 20
17.9998
 11
143.349
 21
17.1486
  0
LINE
  8
0
 10
143.349
 20
17.1486
 11
143.175
 21
16.9567
  0
LINE
  8
0
 10
143.175
 20
16.9567
 11
142.185
 21
17.9467
  0
LINE
  8
0
 10
126.651
 20
17.1486
 11
126.02
 21
17.9998
  0
LINE
  8
0
 10
126.02
 20
17.9998
 11
125.475
 21
18.9089
  0
LINE
  8
0
 10
125.475
 20
18.9089
 11
125.022
 21
19.867
  0
LINE
  8
0
 10
125.022
 20
19.867
 11
124.665
 21
20.8649
  0
LINE
  8
0
 10
124.665
 20
20.8649
 11
124.408
 21
21.893
  0
LINE
  8
0
 10
124.408
 20
21.893
 11
124.252
 21
22.9414
  0
LINE
  8
0
 10
124.252
 20
22.9414
 11
124.2
 21
24
  0
LINE
  8
0
 10
124.2
 20
24
 11
124.252
 21
25.0586
  0
LINE
  8
0
 10
124.252
 20
25.0586
 11
124.408
 21
26.107
  0
LINE
  8
0
 10
124.408
 20
26.107
 11
124.665
 21
27.1351
  0
LINE
  8
0
 10
124.665
 20
27.1351
 11
125.022
 21
28.133
  0
LINE
  8
0
 10
125.022
 20
28.133
 11
125.475
 21
29.0911
  0
LINE
  8
0
 10
125.475
 20
29.0911
 11
126.02
 21
30.0002
  0
LINE
  8
0
 10
126.02
 20
30.0002
 11
126.651
 21
30.8514
  0
LINE
  8
0
 10
126.651
 20
30.8514
 11
126.825
 21
31.0433
  0
LINE
  8
0
 10
126.825
 20
31.0433
 11
127.815
 21
30.0533
  0
LINE
  8
0
 10
127.815
 20
30.0533
 11
127.734
 21
29.9633
  0
LINE
  8
0
 10
127.734
 20
29.9633
 11
127.184
 21
29.2224
  0
LINE
  8
0
 10
127.184
 20
29.2224
 11
126.71
 21
28.4311
  0
LINE
  8
0
 10
126.71
 20
28.4311
 11
126.316
 21
27.5972
  0
LINE
  8
0
 10
126.316
 20
27.5972
 11
126.005
 21
26.7287
  0
LINE
  8
0
 10
126.005
 20
26.7287
 11
125.781
 21
25.8338
  0
LINE
  8
0
 10
125.781
 20
25.8338
 11
125.645
 21
24.9214
  0
LINE
  8
0
 10
125.645
 20
24.9214
 11
125.6
 21
24
  0
LINE
  8
0
 10
125.6
 20
24
 11
125.645
 21
23.0786
  0
LINE
  8
0
 10
125.645
 20
23.0786
 11
125.781
 21
22.1662
  0
LINE
  8
0
 10
125.781
 20
22.1662
 11
126.005
 21
21.2713
  0
LINE
  8
0
 10
126.005
 20
21.2713
 11
126.316
 21
20.4028
  0
LINE
  8
0
 10
126.316
 20
20.4028
 11
126.71
 21
19.5689
  0
LINE
  8
0
 10
126.71
 20
19.5689
 11
127.184
 21
18.7776
  0
LINE
  8
0
 10
127.184
 20
18.7776
 11
127.734
 21
18.0367
  0
LINE
  8
0
 10
127.734
 20
18.0367
 11
127.815
 21
17.9467
  0
LINE
  8
0
 10
127.815
 20
17.9467
 11
126.825
 21
16.9567
  0
LINE
  8
0
 10
126.825
 20
16.9567
 11
126.651
 21
17.1486
  0
LINE
  8
0
 10
134.482
 20
22.0681
 11
134
 21
22.2679
  0
LINE
  8
0
 10
134
 20
22.2679
 11
133.586
 21
22.5858
  0
LINE
  8
0
 10
133.586
 20
22.5858
 11
133.268
 21
23
  0
LINE
  8
0
 10
133.268
 20
23
 11
133.068
 21
23.4824
  0
LINE
  8
0
 10
133.068
 20
23.4824
 11
133
 21
24
  0
LINE
  8
0
 10
133
 20
24
 11
133.068
 21
24.5176
  0
LINE
  8
0
 10
133.068
 20
24.5176
 11
133.268
 21
25
  0
LINE
  8
0
 10
133.268
 20
25
 11
133.586
 21
25.4142
  0
LINE
  8
0
 10
133.586
 20
25.4142
 11
134
 21
25.732
  0
LINE
  8
0
 10
134
 20
25.732
 11
134.482
 21
25.9318
  0
LINE
  8
0
 10
134.482
 20
25.9318
 11
135
 21
26
  0
LINE
  8
0
 10
135
 20
26
 11
135.518
 21
25.9318
  0
LINE
  8
0
 10
135.518
 20
25.9318
 11
136
 21
25.732
  0
LINE
  8
0
 10
136
 20
25.732
 11
136.414
 21
25.4142
  0
LINE
  8
0
 10
136.414
 20
25.4142
 11
136.732
 21
25
  0
LINE
  8
0
 10
136.732
 20
25
 11
136.932
 21
24.5176
  0
LINE
  8
0
 10
136.932
 20
24.5176
 11
137
 21
24
  0
LINE
  8
0
 10
137
 20
24
 11
136.932
 21
23.4824
  0
LINE
  8
0
 10
136.932
 20
23.4824
 11
136.732
 21
23
  0
LINE
  8
0
 10
136.732
 20
23
 11
136.414
 21
22.5858
  0
LINE
  8
0
 10
136.414
 20
22.5858
 11
136
 21
22.2679
  0
LINE
  8
0
 10
136
 20
22.2679
 11
135.518
 21
22.0681
  0
LINE
  8
0
 10
135.518
 20
22.0681
 11
135
 21
22
  0
LINE
  8
0
 10
135
 20
22
 11
134.482
 21
22.0681
  0
LINE
  8
0
 10
122.632
 20
13.8497
 11
121.696
 21
15.1109
  0
LINE
  8
0
 10
121.696
 20
15.1109
 11
120.889
 21
16.4577
  0
LINE
  8
0
 10
120.889
 20
16.4577
 11
120.218
 21
17.8771
  0
LINE
  8
0
 10
120.218
 20
17.8771
 11
119.689
 21
19.3555
  0
LINE
  8
0
 10
119.689
 20
19.3555
 11
119.307
 21
20.8786
  0
LINE
  8
0
 10
119.307
 20
20.8786
 11
119.077
 21
22.4317
  0
LINE
  8
0
 10
119.077
 20
22.4317
 11
119.056
 21
22.8614
  0
LINE
  8
0
 10
119.056
 20
22.8614
 11
119.426
 21
22.6142
  0
LINE
  8
0
 10
119.426
 20
22.6142
 11
120
 21
22.5
  0
LINE
  8
0
 10
120
 20
22.5
 11
120.469
 21
22.5933
  0
LINE
  8
0
 10
120.469
 20
22.5933
 11
120.47
 21
22.569
  0
LINE
  8
0
 10
120.47
 20
22.569
 11
120.681
 21
21.1517
  0
LINE
  8
0
 10
120.681
 20
21.1517
 11
121.029
 21
19.7619
  0
LINE
  8
0
 10
121.029
 20
19.7619
 11
121.511
 21
18.4128
  0
LINE
  8
0
 10
121.511
 20
18.4128
 11
122.124
 21
17.1176
  0
LINE
  8
0
 10
122.124
 20
17.1176
 11
122.861
 21
15.8887
  0
LINE
  8
0
 10
122.861
 20
15.8887
 11
123.714
 21
14.7379
  0
LINE
  8
0
 10
123.714
 20
14.7379
 11
124.138
 21
14.2697
  0
LINE
  8
0
 10
124.138
 20
14.2697
 11
123.148
 21
13.2798
  0
LINE
  8
0
 10
123.148
 20
13.2798
 11
122.632
 21
13.8497
  0
LINE
  8
0
 10
145.862
 20
14.2697
 11
146.286
 21
14.7379
  0
LINE
  8
0
 10
146.286
 20
14.7379
 11
147.139
 21
15.8887
  0
LINE
  8
0
 10
147.139
 20
15.8887
 11
147.876
 21
17.1176
  0
LINE
  8
0
 10
147.876
 20
17.1176
 11
148.489
 21
18.4128
  0
LINE
  8
0
 10
148.489
 20
18.4128
 11
148.971
 21
19.7619
  0
LINE
  8
0
 10
148.971
 20
19.7619
 11
149.319
 21
21.1517
  0
LINE
  8
0
 10
149.319
 20
21.1517
 11
149.53
 21
22.569
  0
LINE
  8
0
 10
149.53
 20
22.569
 11
149.531
 21
22.5933
  0
LINE
  8
0
 10
149.531
 20
22.5933
 11
150
 21
22.5
  0
LINE
  8
0
 10
150
 20
22.5
 11
150.574
 21
22.6142
  0
LINE
  8
0
 10
150.574
 20
22.6142
 11
150.944
 21
22.8614
  0
LINE
  8
0
 10
150.944
 20
22.8614
 11
150.923
 21
22.4317
  0
LINE
  8
0
 10
150.923
 20
22.4317
 11
150.693
 21
20.8786
  0
LINE
  8
0
 10
150.693
 20
20.8786
 11
150.311
 21
19.3555
  0
LINE
  8
0
 10
150.311
 20
19.3555
 11
149.782
 21
17.8771
  0
LINE
  8
0
 10
149.782
 20
17.8771
 11
149.111
 21
16.4577
  0
LINE
  8
0
 10
149.111
 20
16.4577
 11
148.304
 21
15.1109
  0
LINE
  8
0
 10
148.304
 20
15.1109
 11
147.368
 21
13.8497
  0
LINE
  8
0
 10
147.368
 20
13.8497
 11
146.852
 21
13.2798
  0
LINE
  8
0
 10
146.852
 20
13.2798
 11
145.862
 21
14.2697
  0
LINE
  8
0
 10
133.941
 20
13.252
 11
132.893
 21
13.4075
  0
LINE
  8
0
 10
132.893
 20
13.4075
 11
131.865
 21
13.6651
  0
LINE
  8
0
 10
131.865
 20
13.6651
 11
130.867
 21
14.0221
  0
LINE
  8
0
 10
130.867
 20
14.0221
 11
129.909
 21
14.4753
  0
LINE
  8
0
 10
129.909
 20
14.4753
 11
129
 21
15.0201
  0
LINE
  8
0
 10
129
 20
15.0201
 11
128.149
 21
15.6515
  0
LINE
  8
0
 10
128.149
 20
15.6515
 11
127.957
 21
15.8254
  0
LINE
  8
0
 10
127.957
 20
15.8254
 11
128.947
 21
16.8153
  0
LINE
  8
0
 10
128.947
 20
16.8153
 11
129.037
 21
16.7337
  0
LINE
  8
0
 10
129.037
 20
16.7337
 11
129.778
 21
16.1842
  0
LINE
  8
0
 10
129.778
 20
16.1842
 11
130.569
 21
15.7099
  0
LINE
  8
0
 10
130.569
 20
15.7099
 11
131.403
 21
15.3155
  0
LINE
  8
0
 10
131.403
 20
15.3155
 11
132.271
 21
15.0048
  0
LINE
  8
0
 10
132.271
 20
15.0048
 11
133.166
 21
14.7806
  0
LINE
  8
0
 10
133.166
 20
14.7806
 11
134.079
 21
14.6453
  0
LINE
  8
0
 10
134.079
 20
14.6453
 11
135
 21
14.6
  0
LINE
  8
0
 10
135
 20
14.6
 11
135.921
 21
14.6453
  0
LINE
  8
0
 10
135.921
 20
14.6453
 11
136.834
 21
14.7806
  0
LINE
  8
0
 10
136.834
 20
14.7806
 11
137.729
 21
15.0048
  0
LINE
  8
0
 10
137.729
 20
15.0048
 11
138.597
 21
15.3155
  0
LINE
  8
0
 10
138.597
 20
15.3155
 11
139.431
 21
15.7099
  0
LINE
  8
0
 10
139.431
 20
15.7099
 11
140.222
 21
16.1842
  0
LINE
  8
0
 10
140.222
 20
16.1842
 11
140.963
 21
16.7337
  0
LINE
  8
0
 10
140.963
 20
16.7337
 11
141.053
 21
16.8153
  0
LINE
  8
0
 10
141.053
 20
16.8153
 11
142.043
 21
15.8254
  0
LINE
  8
0
 10
142.043
 20
15.8254
 11
141.851
 21
15.6515
  0
LINE
  8
0
 10
141.851
 20
15.6515
 11
141
 21
15.0201
  0
LINE
  8
0
 10
141
 20
15.0201
 11
140.091
 21
14.4753
  0
LINE
  8
0
 10
140.091
 20
14.4753
 11
139.133
 21
14.0221
  0
LINE
  8
0
 10
139.133
 20
14.0221
 11
138.135
 21
13.6651
  0
LINE
  8
0
 10
138.135
 20
13.6651
 11
137.107
 21
13.4075
  0
LINE
  8
0
 10
137.107
 20
13.4075
 11
136.059
 21
13.252
  0
LINE
  8
0
 10
136.059
 20
13.252
 11
135
 21
13.2
  0
LINE
  8
0
 10
135
 20
13.2
 11
133.941
 21
13.252
  0
LINE
  8
0
 10
133.687
 20
10.6645
 11
132.386
 21
10.8575
  0
LINE
  8
0
 10
132.386
 20
10.8575
 11
131.11
 21
11.177
  0
LINE
  8
0
 10
131.11
 20
11.177
 11
129.872
 21
11.62
  0
LINE
  8
0
 10
129.872
 20
11.62
 11
128.683
 21
12.1823
  0
LINE
  8
0
 10
128.683
 20
12.1823
 11
127.555
 21
12.8583
  0
LINE
  8
0
 10
127.555
 20
12.8583
 11
126.499
 21
13.6417
  0
LINE
  8
0
 10
126.499
 20
13.6417
 11
126.118
 21
13.9869
  0
LINE
  8
0
 10
126.118
 20
13.9869
 11
127.108
 21
14.9768
  0
LINE
  8
0
 10
127.108
 20
14.9768
 11
127.387
 21
14.7239
  0
LINE
  8
0
 10
127.387
 20
14.7239
 11
128.333
 21
14.0224
  0
LINE
  8
0
 10
128.333
 20
14.0224
 11
129.343
 21
13.4169
  0
LINE
  8
0
 10
129.343
 20
13.4169
 11
130.408
 21
12.9135
  0
LINE
  8
0
 10
130.408
 20
12.9135
 11
131.517
 21
12.5167
  0
LINE
  8
0
 10
131.517
 20
12.5167
 11
132.659
 21
12.2306
  0
LINE
  8
0
 10
132.659
 20
12.2306
 11
133.824
 21
12.0578
  0
LINE
  8
0
 10
133.824
 20
12.0578
 11
135
 21
12
  0
LINE
  8
0
 10
135
 20
12
 11
136.176
 21
12.0578
  0
LINE
  8
0
 10
136.176
 20
12.0578
 11
137.341
 21
12.2306
  0
LINE
  8
0
 10
137.341
 20
12.2306
 11
138.483
 21
12.5167
  0
LINE
  8
0
 10
138.483
 20
12.5167
 11
139.592
 21
12.9135
  0
LINE
  8
0
 10
139.592
 20
12.9135
 11
140.657
 21
13.4169
  0
LINE
  8
0
 10
140.657
 20
13.4169
 11
141.667
 21
14.0224
  0
LINE
  8
0
 10
141.667
 20
14.0224
 11
142.613
 21
14.7239
  0
LINE
  8
0
 10
142.613
 20
14.7239
 11
142.892
 21
14.9768
  0
LINE
  8
0
 10
142.892
 20
14.9768
 11
143.882
 21
13.9869
  0
LINE
  8
0
 10
143.882
 20
13.9869
 11
143.501
 21
13.6417
  0
LINE
  8
0
 10
143.501
 20
13.6417
 11
142.445
 21
12.8583
  0
LINE
  8
0
 10
142.445
 20
12.8583
 11
141.317
 21
12.1823
  0
LINE
  8
0
 10
141.317
 20
12.1823
 11
140.128
 21
11.62
  0
LINE
  8
0
 10
140.128
 20
11.62
 11
138.89
 21
11.177
  0
LINE
  8
0
 10
138.89
 20
11.177
 11
137.614
 21
10.8575
  0
LINE
  8
0
 10
137.614
 20
10.8575
 11
136.313
 21
10.6645
  0
LINE
  8
0
 10
136.313
 20
10.6645
 11
135
 21
10.6
  0
LINE
  8
0
 10
135
 20
10.6
 11
133.687
 21
10.6645
  0
LINE
  8
0
 10
133.432
 20
8.07706
 11
131.879
 21
8.30745
  0
LINE
  8
0
 10
131.879
 20
8.30745
 11
130.355
 21
8.68896
  0
LINE
  8
0
 10
130.355
 20
8.68896
 11
128.877
 21
9.21794
  0
LINE
  8
0
 10
128.877
 20
9.21794
 11
127.458
 21
9.88927
  0
LINE
  8
0
 10
127.458
 20
9.88927
 11
126.111
 21
10.6965
  0
LINE
  8
0
 10
126.111
 20
10.6965
 11
124.85
 21
11.6318
  0
LINE
  8
0
 10
124.85
 20
11.6318
 11
124.28
 21
12.1484
  0
LINE
  8
0
 10
124.28
 20
12.1484
 11
125.27
 21
13.1384
  0
LINE
  8
0
 10
125.27
 20
13.1384
 11
125.738
 21
12.7141
  0
LINE
  8
0
 10
125.738
 20
12.7141
 11
126.889
 21
11.8605
  0
LINE
  8
0
 10
126.889
 20
11.8605
 11
128.118
 21
11.124
  0
LINE
  8
0
 10
128.118
 20
11.124
 11
129.413
 21
10.5114
  0
LINE
  8
0
 10
129.413
 20
10.5114
 11
130.762
 21
10.0287
  0
LINE
  8
0
 10
130.762
 20
10.0287
 11
132.152
 21
9.68054
  0
LINE
  8
0
 10
132.152
 20
9.68054
 11
133.569
 21
9.47031
  0
LINE
  8
0
 10
133.569
 20
9.47031
 11
135
 21
9.40001
  0
LINE
  8
0
 10
135
 20
9.40001
 11
136.431
 21
9.47031
  0
LINE
  8
0
 10
136.431
 20
9.47031
 11
137.848
 21
9.68054
  0
LINE
  8
0
 10
137.848
 20
9.68054
 11
139.238
 21
10.0287
  0
LINE
  8
0
 10
139.238
 20
10.0287
 11
140.587
 21
10.5114
  0
LINE
  8
0
 10
140.587
 20
10.5114
 11
141.882
 21
11.124
  0
LINE
  8
0
 10
141.882
 20
11.124
 11
143.111
 21
11.8605
  0
LINE
  8
0
 10
143.111
 20
11.8605
 11
144.262
 21
12.7141
  0
LINE
  8
0
 10
144.262
 20
12.7141
 11
144.73
 21
13.1384
  0
LINE
  8
0
 10
144.73
 20
13.1384
 11
145.72
 21
12.1484
  0
LINE
  8
0
 10
145.72
 20
12.1484
 11
145.15
 21
11.6318
  0
LINE
  8
0
 10
145.15
 20
11.6318
 11
143.889
 21
10.6965
  0
LINE
  8
0
 10
143.889
 20
10.6965
 11
142.542
 21
9.88927
  0
LINE
  8
0
 10
142.542
 20
9.88927
 11
141.123
 21
9.21794
  0
LINE
  8
0
 10
141.123
 20
9.21794
 11
139.645
 21
8.68896
  0
LINE
  8
0
 10
139.645
 20
8.68896
 11
138.121
 21
8.30745
  0
LINE
  8
0
 10
138.121
 20
8.30745
 11
136.568
 21
8.07706
  0
LINE
  8
0
 10
136.568
 20
8.07706
 11
135
 21
8
  0
LINE
  8
0
 10
135
 20
8
 11
133.432
 21
8.07706
  0
LINE
  8
0
 10
267
 20
4.7
 11
266.534
 21
4.76132
  0
LINE
  8
0
 10
266.534
 20
4.76132
 11
266.1
 21
4.94115
  0
LINE
  8
0
 10
266.1
 20
4.94115
 11
265.727
 21
5.2272
  0
LINE
  8
0
 10
265.727
 20
5.2272
 11
265.441
 21
5.59999
  0
LINE
  8
0
 10
265.441
 20
5.59999
 11
265.261
 21
6.03412
  0
LINE
  8
0
 10
265.261
 20
6.03412
 11
265.2
 21
6.5
  0
LINE
  8
0
 10
265.2
 20
6.5
 11
265.261
 21
6.96587
  0
LINE
  8
0
 10
265.261
 20
6.96587
 11
265.441
 21
7.39999
  0
LINE
  8
0
 10
265.441
 20
7.39999
 11
265.727
 21
7.77278
  0
LINE
  8
0
 10
265.727
 20
7.77278
 11
266.1
 21
8.05884
  0
LINE
  8
0
 10
266.1
 20
8.05884
 11
266.534
 21
8.23866
  0
LINE
  8
0
 10
266.534
 20
8.23866
 11
267
 21
8.29999
  0
LINE
  8
0
 10
267
 20
8.29999
 11
267.466
 21
8.23866
  0
LINE
  8
0
 10
267.466
 20
8.23866
 11
267.9
 21
8.05884
  0
LINE
  8
0
 10
267.9
 20
8.05884
 11
268.273
 21
7.77278
  0
LINE
  8
0
 10
268.273
 20
7.77278
 11
268.559
 21
7.39999
  0
LINE
  8
0
 10
268.559
 20
7.39999
 11
268.739
 21
6.96587
  0
LINE
  8
0
 10
268.739
 20
6.96587
 11
268.8
 21
6.5
  0
LINE
  8
0
 10
268.8
 20
6.5
 11
268.739
 21
6.03412
  0
LINE
  8
0
 10
268.739
 20
6.03412
 11
268.559
 21
5.59999
  0
LINE
  8
0
 10
268.559
 20
5.59999
 11
268.273
 21
5.2272
  0
LINE
  8
0
 10
268.273
 20
5.2272
 11
267.9
 21
4.94115
  0
LINE
  8
0
 10
267.9
 20
4.94115
 11
267.466
 21
4.76132
  0
LINE
  8
0
 10
267.466
 20
4.76132
 11
267
 21
4.7
  0
LINE
  8
0
 10
5.7272
 20
67.7728
 11
6.09999
 21
68.0588
  0
LINE
  8
0
 10
6.09999
 20
68.0588
 11
6.53412
 21
68.2387
  0
LINE
  8
0
 10
6.53412
 20
68.2387
 11
7
 21
68.3
  0
LINE
  8
0
 10
7
 20
68.3
 11
7.46587
 21
68.2387
  0
LINE
  8
0
 10
7.46587
 20
68.2387
 11
7.89999
 21
68.0588
  0
LINE
  8
0
 10
7.89999
 20
68.0588
 11
8.27278
 21
67.7728
  0
LINE
  8
0
 10
8.27278
 20
67.7728
 11
8.55884
 21
67.4
  0
LINE
  8
0
 10
8.55884
 20
67.4
 11
8.73866
 21
66.9659
  0
LINE
  8
0
 10
8.73866
 20
66.9659
 11
8.79999
 21
66.5
  0
LINE
  8
0
 10
8.79999
 20
66.5
 11
8.73866
 21
66.0341
  0
LINE
  8
0
 10
8.73866
 20
66.0341
 11
8.55884
 21
65.6
  0
LINE
  8
0
 10
8.55884
 20
65.6
 11
8.27278
 21
65.2272
  0
LINE
  8
0
 10
8.27278
 20
65.2272
 11
7.89999
 21
64.9411
  0
LINE
  8
0
 10
7.89999
 20
64.9411
 11
7.46587
 21
64.7613
  0
LINE
  8
0
 10
7.46587
 20
64.7613
 11
7
 21
64.7
  0
LINE
  8
0
 10
7
 20
64.7
 11
6.53412
 21
64.7613
  0
LINE
  8
0
 10
6.53412
 20
64.7613
 11
6.09999
 21
64.9411
  0
LINE
  8
0
 10
6.09999
 20
64.9411
 11
5.7272
 21
65.2272
  0
LINE
  8
0
 10
5.7272
 20
65.2272
 11
5.44115
 21
65.6
  0
LINE
  8
0
 10
5.44115
 20
65.6
 11
5.26132
 21
66.0341
  0
LINE
  8
0
 10
5.26132
 20
66.0341
 11
5.2
 21
66.5
  0
LINE
  8
0
 10
5.2
 20
66.5
 11
5.26132
 21
66.9659
  0
LINE
  8
0
 10
5.26132
 20
66.9659
 11
5.44115
 21
67.4
  0
LINE
  8
0
 10
5.44115
 20
67.4
 11
5.7272
 21
67.7728
  0
LINE
  8
0
 10
6.09999
 20
8.05884
 11
6.53412
 21
8.23866
  0
LINE
  8
0
 10
6.53412
 20
8.23866
 11
7
 21
8.29999
  0
LINE
  8
0
 10
7
 20
8.29999
 11
7.46587
 21
8.23866
  0
LINE
  8
0
 10
7.46587
 20
8.23866
 11
7.89999
 21
8.05884
  0
LINE
  8
0
 10
7.89999
 20
8.05884
 11
8.27278
 21
7.77278
  0
LINE
  8
0
 10
8.27278
 20
7.77278
 11
8.55884
 21
7.39999
  0
LINE
  8
0
 10
8.55884
 20
7.39999
 11
8.73866
 21
6.96587
  0
LINE
  8
0
 10
8.73866
 20
6.96587
 11
8.79999
 21
6.5
  0
LINE
  8
0
 10
8.79999
 20
6.5
 11
8.73866
 21
6.03412
  0
LINE
  8
0
 10
8.73866
 20
6.03412
 11
8.55884
 21
5.59999
  0
LINE
  8
0
 10
8.55884
 20
5.59999
 11
8.27278
 21
5.2272
  0
LINE
  8
0
 10
8.27278
 20
5.2272
 11
7.89999
 21
4.94115
  0
LINE
  8
0
 10
7.89999
 20
4.94115
 11
7.46587
 21
4.76132
  0
LINE
  8
0
 10
7.46587
 20
4.76132
 11
7
 21
4.7
  0
LINE
  8
0
 10
7
 20
4.7
 11
6.53412
 21
4.76132
  0
LINE
  8
0
 10
6.53412
 20
4.76132
 11
6.09999
 21
4.94115
  0
LINE
  8
0
 10
6.09999
 20
4.94115
 11
5.7272
 21
5.2272
  0
LINE
  8
0
 10
5.7272
 20
5.2272
 11
5.44115
 21
5.59999
  0
LINE
  8
0
 10
5.44115
 20
5.59999
 11
5.26132
 21
6.03412
  0
LINE
  8
0
 10
5.26132
 20
6.03412
 11
5.2
 21
6.5
  0
LINE
  8
0
 10
5.2
 20
6.5
 11
5.26132
 21
6.96587
  0
LINE
  8
0
 10
5.26132
 20
6.96587
 11
5.44115
 21
7.39999
  0
LINE
  8
0
 10
5.44115
 20
7.39999
 11
5.7272
 21
7.77278
  0
LINE
  8
0
 10
5.7272
 20
7.77278
 11
6.09999
 21
8.05884
  0
ENDSEC
  0
SECTION
  2
OBJECTS
  0
DICTIONARY
  0
ENDSEC
  0
EOF
