solid OpenSCAD_Model
  facet normal 1 0 0
    outer loop
      vertex 153 63 6
      vertex 153 51 5.4
      vertex 153 63 2.5
    endloop
  endfacet
  facet normal 1 -0 0
    outer loop
      vertex 153 45 6
      vertex 153 51 5.4
      vertex 153 63 6
    endloop
  endfacet
  facet normal 1 0 0
    outer loop
      vertex 153 51 5.4
      vertex 153 45 6
      vertex 153 45 5.4
    endloop
  endfacet
  facet normal 1 0 0
    outer loop
      vertex 153 63 2.5
      vertex 153 51 5.4
      vertex 153 51 2.5
    endloop
  endfacet
  facet normal -0 0 1
    outer loop
      vertex 117 63 6
      vertex 117.6 45 6
      vertex 117.6 63 6
    endloop
  endfacet
  facet normal 0 0 1
    outer loop
      vertex 117.6 45 6
      vertex 117 63 6
      vertex 117 45 6
    endloop
  endfacet
  facet normal -0 0 1
    outer loop
      vertex 152.4 63 6
      vertex 153 45 6
      vertex 153 63 6
    endloop
  endfacet
  facet normal 0 0 1
    outer loop
      vertex 153 45 6
      vertex 152.4 63 6
      vertex 152.4 45 6
    endloop
  endfacet
  facet normal -0 0 1
    outer loop
      vertex 128.4 63 6
      vertex 129.6 45 6
      vertex 129.6 63 6
    endloop
  endfacet
  facet normal 0 0 1
    outer loop
      vertex 129.6 45 6
      vertex 128.4 63 6
      vertex 128.4 45 6
    endloop
  endfacet
  facet normal -0 0 1
    outer loop
      vertex 126.4 63 6
      vertex 127.6 45 6
      vertex 127.6 63 6
    endloop
  endfacet
  facet normal 0 0 1
    outer loop
      vertex 127.6 45 6
      vertex 126.4 63 6
      vertex 126.4 45 6
    endloop
  endfacet
  facet normal -0 0 1
    outer loop
      vertex 142.4 63 6
      vertex 143.6 45 6
      vertex 143.6 63 6
    endloop
  endfacet
  facet normal 0 0 1
    outer loop
      vertex 143.6 45 6
      vertex 142.4 63 6
      vertex 142.4 45 6
    endloop
  endfacet
  facet normal -0 0 1
    outer loop
      vertex 140.4 63 6
      vertex 141.6 45 6
      vertex 141.6 63 6
    endloop
  endfacet
  facet normal 0 0 1
    outer loop
      vertex 141.6 45 6
      vertex 140.4 63 6
      vertex 140.4 45 6
    endloop
  endfacet
  facet normal -0 0 1
    outer loop
      vertex 136.4 63 6
      vertex 137.6 45 6
      vertex 137.6 63 6
    endloop
  endfacet
  facet normal 0 0 1
    outer loop
      vertex 137.6 45 6
      vertex 136.4 63 6
      vertex 136.4 45 6
    endloop
  endfacet
  facet normal -0 0 1
    outer loop
      vertex 134.4 63 6
      vertex 135.6 45 6
      vertex 135.6 63 6
    endloop
  endfacet
  facet normal 0 0 1
    outer loop
      vertex 135.6 45 6
      vertex 134.4 63 6
      vertex 134.4 45 6
    endloop
  endfacet
  facet normal -0 0 1
    outer loop
      vertex 124.4 63 6
      vertex 125.6 45 6
      vertex 125.6 63 6
    endloop
  endfacet
  facet normal 0 0 1
    outer loop
      vertex 125.6 45 6
      vertex 124.4 63 6
      vertex 124.4 45 6
    endloop
  endfacet
  facet normal -0 0 1
    outer loop
      vertex 122.4 63 6
      vertex 123.6 45 6
      vertex 123.6 63 6
    endloop
  endfacet
  facet normal 0 0 1
    outer loop
      vertex 123.6 45 6
      vertex 122.4 63 6
      vertex 122.4 45 6
    endloop
  endfacet
  facet normal -0 0 1
    outer loop
      vertex 118.4 63 6
      vertex 119.6 45 6
      vertex 119.6 63 6
    endloop
  endfacet
  facet normal 0 0 1
    outer loop
      vertex 119.6 45 6
      vertex 118.4 63 6
      vertex 118.4 45 6
    endloop
  endfacet
  facet normal -0 0 1
    outer loop
      vertex 120.4 63 6
      vertex 121.6 45 6
      vertex 121.6 63 6
    endloop
  endfacet
  facet normal 0 0 1
    outer loop
      vertex 121.6 45 6
      vertex 120.4 63 6
      vertex 120.4 45 6
    endloop
  endfacet
  facet normal -0 0 1
    outer loop
      vertex 132.4 63 6
      vertex 133.6 45 6
      vertex 133.6 63 6
    endloop
  endfacet
  facet normal 0 0 1
    outer loop
      vertex 133.6 45 6
      vertex 132.4 63 6
      vertex 132.4 45 6
    endloop
  endfacet
  facet normal -0 0 1
    outer loop
      vertex 130.4 63 6
      vertex 131.6 45 6
      vertex 131.6 63 6
    endloop
  endfacet
  facet normal 0 0 1
    outer loop
      vertex 131.6 45 6
      vertex 130.4 63 6
      vertex 130.4 45 6
    endloop
  endfacet
  facet normal -0 0 1
    outer loop
      vertex 138.4 63 6
      vertex 139.6 45 6
      vertex 139.6 63 6
    endloop
  endfacet
  facet normal 0 0 1
    outer loop
      vertex 139.6 45 6
      vertex 138.4 63 6
      vertex 138.4 45 6
    endloop
  endfacet
  facet normal -0 0 1
    outer loop
      vertex 150.4 63 6
      vertex 151.6 45 6
      vertex 151.6 63 6
    endloop
  endfacet
  facet normal 0 0 1
    outer loop
      vertex 151.6 45 6
      vertex 150.4 63 6
      vertex 150.4 45 6
    endloop
  endfacet
  facet normal -0 0 1
    outer loop
      vertex 148.4 63 6
      vertex 149.6 45 6
      vertex 149.6 63 6
    endloop
  endfacet
  facet normal 0 0 1
    outer loop
      vertex 149.6 45 6
      vertex 148.4 63 6
      vertex 148.4 45 6
    endloop
  endfacet
  facet normal -0 0 1
    outer loop
      vertex 146.4 63 6
      vertex 147.6 45 6
      vertex 147.6 63 6
    endloop
  endfacet
  facet normal 0 0 1
    outer loop
      vertex 147.6 45 6
      vertex 146.4 63 6
      vertex 146.4 45 6
    endloop
  endfacet
  facet normal -0 0 1
    outer loop
      vertex 144.4 63 6
      vertex 145.6 45 6
      vertex 145.6 63 6
    endloop
  endfacet
  facet normal 0 0 1
    outer loop
      vertex 145.6 45 6
      vertex 144.4 63 6
      vertex 144.4 45 6
    endloop
  endfacet
  facet normal 0 0 -1
    outer loop
      vertex 117 51 2.5
      vertex 153 63 2.5
      vertex 153 51 2.5
    endloop
  endfacet
  facet normal -0 0 -1
    outer loop
      vertex 153 63 2.5
      vertex 117 51 2.5
      vertex 117 63 2.5
    endloop
  endfacet
  facet normal -1 0 0
    outer loop
      vertex 117 51 5.4
      vertex 117 63 2.5
      vertex 117 51 2.5
    endloop
  endfacet
  facet normal -1 0 0
    outer loop
      vertex 117 63 2.5
      vertex 117 51 5.4
      vertex 117 63 6
    endloop
  endfacet
  facet normal -1 0 0
    outer loop
      vertex 117 45 6
      vertex 117 51 5.4
      vertex 117 45 5.4
    endloop
  endfacet
  facet normal -1 0 0
    outer loop
      vertex 117 51 5.4
      vertex 117 45 6
      vertex 117 63 6
    endloop
  endfacet
  facet normal 0 1 -0
    outer loop
      vertex 153 63 2.5
      vertex 152.4 63 6
      vertex 153 63 6
    endloop
  endfacet
  facet normal 0 1 0
    outer loop
      vertex 152.4 63 6
      vertex 153 63 2.5
      vertex 151.6 63 6
    endloop
  endfacet
  facet normal 0 1 0
    outer loop
      vertex 151.6 63 6
      vertex 153 63 2.5
      vertex 150.4 63 6
    endloop
  endfacet
  facet normal 0 1 0
    outer loop
      vertex 150.4 63 6
      vertex 153 63 2.5
      vertex 149.6 63 6
    endloop
  endfacet
  facet normal 0 1 0
    outer loop
      vertex 149.6 63 6
      vertex 153 63 2.5
      vertex 148.4 63 6
    endloop
  endfacet
  facet normal 0 1 0
    outer loop
      vertex 148.4 63 6
      vertex 153 63 2.5
      vertex 147.6 63 6
    endloop
  endfacet
  facet normal 0 1 0
    outer loop
      vertex 147.6 63 6
      vertex 153 63 2.5
      vertex 146.4 63 6
    endloop
  endfacet
  facet normal 0 1 0
    outer loop
      vertex 146.4 63 6
      vertex 153 63 2.5
      vertex 145.6 63 6
    endloop
  endfacet
  facet normal 0 1 0
    outer loop
      vertex 145.6 63 6
      vertex 153 63 2.5
      vertex 144.4 63 6
    endloop
  endfacet
  facet normal 0 1 0
    outer loop
      vertex 144.4 63 6
      vertex 153 63 2.5
      vertex 143.6 63 6
    endloop
  endfacet
  facet normal 0 1 0
    outer loop
      vertex 143.6 63 6
      vertex 153 63 2.5
      vertex 142.4 63 6
    endloop
  endfacet
  facet normal 0 1 0
    outer loop
      vertex 142.4 63 6
      vertex 153 63 2.5
      vertex 141.6 63 6
    endloop
  endfacet
  facet normal 0 1 0
    outer loop
      vertex 141.6 63 6
      vertex 153 63 2.5
      vertex 140.4 63 6
    endloop
  endfacet
  facet normal 0 1 0
    outer loop
      vertex 140.4 63 6
      vertex 153 63 2.5
      vertex 139.6 63 6
    endloop
  endfacet
  facet normal 0 1 0
    outer loop
      vertex 139.6 63 6
      vertex 153 63 2.5
      vertex 138.4 63 6
    endloop
  endfacet
  facet normal 0 1 0
    outer loop
      vertex 138.4 63 6
      vertex 153 63 2.5
      vertex 137.6 63 6
    endloop
  endfacet
  facet normal 0 1 0
    outer loop
      vertex 137.6 63 6
      vertex 153 63 2.5
      vertex 136.4 63 6
    endloop
  endfacet
  facet normal 0 1 0
    outer loop
      vertex 136.4 63 6
      vertex 153 63 2.5
      vertex 135.6 63 6
    endloop
  endfacet
  facet normal 0 1 0
    outer loop
      vertex 135.6 63 6
      vertex 153 63 2.5
      vertex 134.4 63 6
    endloop
  endfacet
  facet normal 0 1 0
    outer loop
      vertex 117 63 2.5
      vertex 134.4 63 6
      vertex 153 63 2.5
    endloop
  endfacet
  facet normal 0 1 0
    outer loop
      vertex 134.4 63 6
      vertex 117 63 2.5
      vertex 133.6 63 6
    endloop
  endfacet
  facet normal 0 1 0
    outer loop
      vertex 133.6 63 6
      vertex 117 63 2.5
      vertex 132.4 63 6
    endloop
  endfacet
  facet normal 0 1 0
    outer loop
      vertex 132.4 63 6
      vertex 117 63 2.5
      vertex 131.6 63 6
    endloop
  endfacet
  facet normal 0 1 0
    outer loop
      vertex 131.6 63 6
      vertex 117 63 2.5
      vertex 130.4 63 6
    endloop
  endfacet
  facet normal 0 1 0
    outer loop
      vertex 130.4 63 6
      vertex 117 63 2.5
      vertex 129.6 63 6
    endloop
  endfacet
  facet normal 0 1 0
    outer loop
      vertex 129.6 63 6
      vertex 117 63 2.5
      vertex 128.4 63 6
    endloop
  endfacet
  facet normal 0 1 0
    outer loop
      vertex 128.4 63 6
      vertex 117 63 2.5
      vertex 127.6 63 6
    endloop
  endfacet
  facet normal 0 1 0
    outer loop
      vertex 127.6 63 6
      vertex 117 63 2.5
      vertex 126.4 63 6
    endloop
  endfacet
  facet normal 0 1 0
    outer loop
      vertex 126.4 63 6
      vertex 117 63 2.5
      vertex 125.6 63 6
    endloop
  endfacet
  facet normal 0 1 0
    outer loop
      vertex 125.6 63 6
      vertex 117 63 2.5
      vertex 124.4 63 6
    endloop
  endfacet
  facet normal 0 1 0
    outer loop
      vertex 124.4 63 6
      vertex 117 63 2.5
      vertex 123.6 63 6
    endloop
  endfacet
  facet normal 0 1 0
    outer loop
      vertex 123.6 63 6
      vertex 117 63 2.5
      vertex 122.4 63 6
    endloop
  endfacet
  facet normal 0 1 0
    outer loop
      vertex 122.4 63 6
      vertex 117 63 2.5
      vertex 121.6 63 6
    endloop
  endfacet
  facet normal 0 1 0
    outer loop
      vertex 121.6 63 6
      vertex 117 63 2.5
      vertex 120.4 63 6
    endloop
  endfacet
  facet normal 0 1 0
    outer loop
      vertex 120.4 63 6
      vertex 117 63 2.5
      vertex 119.6 63 6
    endloop
  endfacet
  facet normal 0 1 0
    outer loop
      vertex 119.6 63 6
      vertex 117 63 2.5
      vertex 118.4 63 6
    endloop
  endfacet
  facet normal 0 1 0
    outer loop
      vertex 118.4 63 6
      vertex 117 63 2.5
      vertex 117.6 63 6
    endloop
  endfacet
  facet normal 0 1 0
    outer loop
      vertex 117.6 63 6
      vertex 117 63 2.5
      vertex 117 63 6
    endloop
  endfacet
  facet normal 0 1 -0
    outer loop
      vertex 152.4 63 6
      vertex 151.6 63 10.5
      vertex 152.4 63 10.5
    endloop
  endfacet
  facet normal 0 1 0
    outer loop
      vertex 151.6 63 10.5
      vertex 152.4 63 6
      vertex 151.6 63 6
    endloop
  endfacet
  facet normal 0 1 -0
    outer loop
      vertex 150.4 63 6
      vertex 149.6 63 10.5
      vertex 150.4 63 10.5
    endloop
  endfacet
  facet normal 0 1 0
    outer loop
      vertex 149.6 63 10.5
      vertex 150.4 63 6
      vertex 149.6 63 6
    endloop
  endfacet
  facet normal 0 1 -0
    outer loop
      vertex 148.4 63 6
      vertex 147.6 63 10.5
      vertex 148.4 63 10.5
    endloop
  endfacet
  facet normal 0 1 0
    outer loop
      vertex 147.6 63 10.5
      vertex 148.4 63 6
      vertex 147.6 63 6
    endloop
  endfacet
  facet normal 0 1 -0
    outer loop
      vertex 146.4 63 6
      vertex 145.6 63 10.5
      vertex 146.4 63 10.5
    endloop
  endfacet
  facet normal 0 1 0
    outer loop
      vertex 145.6 63 10.5
      vertex 146.4 63 6
      vertex 145.6 63 6
    endloop
  endfacet
  facet normal 0 1 -0
    outer loop
      vertex 144.4 63 6
      vertex 143.6 63 10.5
      vertex 144.4 63 10.5
    endloop
  endfacet
  facet normal 0 1 0
    outer loop
      vertex 143.6 63 10.5
      vertex 144.4 63 6
      vertex 143.6 63 6
    endloop
  endfacet
  facet normal 0 1 -0
    outer loop
      vertex 142.4 63 6
      vertex 141.6 63 10.5
      vertex 142.4 63 10.5
    endloop
  endfacet
  facet normal 0 1 0
    outer loop
      vertex 141.6 63 10.5
      vertex 142.4 63 6
      vertex 141.6 63 6
    endloop
  endfacet
  facet normal 0 1 -0
    outer loop
      vertex 140.4 63 6
      vertex 139.6 63 10.5
      vertex 140.4 63 10.5
    endloop
  endfacet
  facet normal 0 1 0
    outer loop
      vertex 139.6 63 10.5
      vertex 140.4 63 6
      vertex 139.6 63 6
    endloop
  endfacet
  facet normal 0 1 -0
    outer loop
      vertex 138.4 63 6
      vertex 137.6 63 10.5
      vertex 138.4 63 10.5
    endloop
  endfacet
  facet normal 0 1 0
    outer loop
      vertex 137.6 63 10.5
      vertex 138.4 63 6
      vertex 137.6 63 6
    endloop
  endfacet
  facet normal 0 1 -0
    outer loop
      vertex 136.4 63 6
      vertex 135.6 63 10.5
      vertex 136.4 63 10.5
    endloop
  endfacet
  facet normal 0 1 0
    outer loop
      vertex 135.6 63 10.5
      vertex 136.4 63 6
      vertex 135.6 63 6
    endloop
  endfacet
  facet normal 0 1 -0
    outer loop
      vertex 134.4 63 6
      vertex 133.6 63 10.5
      vertex 134.4 63 10.5
    endloop
  endfacet
  facet normal 0 1 0
    outer loop
      vertex 133.6 63 10.5
      vertex 134.4 63 6
      vertex 133.6 63 6
    endloop
  endfacet
  facet normal 0 1 -0
    outer loop
      vertex 132.4 63 6
      vertex 131.6 63 10.5
      vertex 132.4 63 10.5
    endloop
  endfacet
  facet normal 0 1 0
    outer loop
      vertex 131.6 63 10.5
      vertex 132.4 63 6
      vertex 131.6 63 6
    endloop
  endfacet
  facet normal 0 1 -0
    outer loop
      vertex 130.4 63 6
      vertex 129.6 63 10.5
      vertex 130.4 63 10.5
    endloop
  endfacet
  facet normal 0 1 0
    outer loop
      vertex 129.6 63 10.5
      vertex 130.4 63 6
      vertex 129.6 63 6
    endloop
  endfacet
  facet normal 0 1 -0
    outer loop
      vertex 128.4 63 6
      vertex 127.6 63 10.5
      vertex 128.4 63 10.5
    endloop
  endfacet
  facet normal 0 1 0
    outer loop
      vertex 127.6 63 10.5
      vertex 128.4 63 6
      vertex 127.6 63 6
    endloop
  endfacet
  facet normal 0 1 -0
    outer loop
      vertex 126.4 63 6
      vertex 125.6 63 10.5
      vertex 126.4 63 10.5
    endloop
  endfacet
  facet normal 0 1 0
    outer loop
      vertex 125.6 63 10.5
      vertex 126.4 63 6
      vertex 125.6 63 6
    endloop
  endfacet
  facet normal 0 1 -0
    outer loop
      vertex 124.4 63 6
      vertex 123.6 63 10.5
      vertex 124.4 63 10.5
    endloop
  endfacet
  facet normal 0 1 0
    outer loop
      vertex 123.6 63 10.5
      vertex 124.4 63 6
      vertex 123.6 63 6
    endloop
  endfacet
  facet normal 0 1 -0
    outer loop
      vertex 122.4 63 6
      vertex 121.6 63 10.5
      vertex 122.4 63 10.5
    endloop
  endfacet
  facet normal 0 1 0
    outer loop
      vertex 121.6 63 10.5
      vertex 122.4 63 6
      vertex 121.6 63 6
    endloop
  endfacet
  facet normal 0 1 -0
    outer loop
      vertex 120.4 63 6
      vertex 119.6 63 10.5
      vertex 120.4 63 10.5
    endloop
  endfacet
  facet normal 0 1 0
    outer loop
      vertex 119.6 63 10.5
      vertex 120.4 63 6
      vertex 119.6 63 6
    endloop
  endfacet
  facet normal 0 1 -0
    outer loop
      vertex 118.4 63 6
      vertex 117.6 63 10.5
      vertex 118.4 63 10.5
    endloop
  endfacet
  facet normal 0 1 0
    outer loop
      vertex 117.6 63 10.5
      vertex 118.4 63 6
      vertex 117.6 63 6
    endloop
  endfacet
  facet normal 0 -1 0
    outer loop
      vertex 117 45 5.4
      vertex 117.6 45 6
      vertex 117 45 6
    endloop
  endfacet
  facet normal 0 -1 -0
    outer loop
      vertex 117.6 45 6
      vertex 117 45 5.4
      vertex 118.4 45 6
    endloop
  endfacet
  facet normal 0 -1 -0
    outer loop
      vertex 118.4 45 6
      vertex 117 45 5.4
      vertex 119.6 45 6
    endloop
  endfacet
  facet normal 0 -1 -0
    outer loop
      vertex 119.6 45 6
      vertex 117 45 5.4
      vertex 120.4 45 6
    endloop
  endfacet
  facet normal 0 -1 -0
    outer loop
      vertex 120.4 45 6
      vertex 117 45 5.4
      vertex 121.6 45 6
    endloop
  endfacet
  facet normal 0 -1 -0
    outer loop
      vertex 121.6 45 6
      vertex 117 45 5.4
      vertex 122.4 45 6
    endloop
  endfacet
  facet normal 0 -1 -0
    outer loop
      vertex 122.4 45 6
      vertex 117 45 5.4
      vertex 123.6 45 6
    endloop
  endfacet
  facet normal 0 -1 -0
    outer loop
      vertex 123.6 45 6
      vertex 117 45 5.4
      vertex 124.4 45 6
    endloop
  endfacet
  facet normal 0 -1 -0
    outer loop
      vertex 124.4 45 6
      vertex 117 45 5.4
      vertex 125.6 45 6
    endloop
  endfacet
  facet normal 0 -1 -0
    outer loop
      vertex 125.6 45 6
      vertex 117 45 5.4
      vertex 126.4 45 6
    endloop
  endfacet
  facet normal 0 -1 -0
    outer loop
      vertex 126.4 45 6
      vertex 117 45 5.4
      vertex 127.6 45 6
    endloop
  endfacet
  facet normal 0 -1 -0
    outer loop
      vertex 127.6 45 6
      vertex 117 45 5.4
      vertex 128.4 45 6
    endloop
  endfacet
  facet normal 0 -1 -0
    outer loop
      vertex 128.4 45 6
      vertex 117 45 5.4
      vertex 129.6 45 6
    endloop
  endfacet
  facet normal 0 -1 -0
    outer loop
      vertex 129.6 45 6
      vertex 117 45 5.4
      vertex 130.4 45 6
    endloop
  endfacet
  facet normal 0 -1 -0
    outer loop
      vertex 130.4 45 6
      vertex 117 45 5.4
      vertex 131.6 45 6
    endloop
  endfacet
  facet normal 0 -1 -0
    outer loop
      vertex 131.6 45 6
      vertex 117 45 5.4
      vertex 132.4 45 6
    endloop
  endfacet
  facet normal 0 -1 -0
    outer loop
      vertex 132.4 45 6
      vertex 117 45 5.4
      vertex 133.6 45 6
    endloop
  endfacet
  facet normal 0 -1 -0
    outer loop
      vertex 133.6 45 6
      vertex 117 45 5.4
      vertex 134.4 45 6
    endloop
  endfacet
  facet normal 0 -1 -0
    outer loop
      vertex 134.4 45 6
      vertex 117 45 5.4
      vertex 135.6 45 6
    endloop
  endfacet
  facet normal 0 -1 -0
    outer loop
      vertex 135.6 45 6
      vertex 117 45 5.4
      vertex 136.4 45 6
    endloop
  endfacet
  facet normal 0 -1 -0
    outer loop
      vertex 136.4 45 6
      vertex 117 45 5.4
      vertex 137.6 45 6
    endloop
  endfacet
  facet normal 0 -1 0
    outer loop
      vertex 153 45 5.4
      vertex 137.6 45 6
      vertex 117 45 5.4
    endloop
  endfacet
  facet normal 0 -1 0
    outer loop
      vertex 137.6 45 6
      vertex 153 45 5.4
      vertex 138.4 45 6
    endloop
  endfacet
  facet normal 0 -1 0
    outer loop
      vertex 138.4 45 6
      vertex 153 45 5.4
      vertex 139.6 45 6
    endloop
  endfacet
  facet normal 0 -1 0
    outer loop
      vertex 139.6 45 6
      vertex 153 45 5.4
      vertex 140.4 45 6
    endloop
  endfacet
  facet normal 0 -1 0
    outer loop
      vertex 140.4 45 6
      vertex 153 45 5.4
      vertex 141.6 45 6
    endloop
  endfacet
  facet normal 0 -1 0
    outer loop
      vertex 141.6 45 6
      vertex 153 45 5.4
      vertex 142.4 45 6
    endloop
  endfacet
  facet normal 0 -1 0
    outer loop
      vertex 142.4 45 6
      vertex 153 45 5.4
      vertex 143.6 45 6
    endloop
  endfacet
  facet normal 0 -1 0
    outer loop
      vertex 143.6 45 6
      vertex 153 45 5.4
      vertex 144.4 45 6
    endloop
  endfacet
  facet normal 0 -1 0
    outer loop
      vertex 144.4 45 6
      vertex 153 45 5.4
      vertex 145.6 45 6
    endloop
  endfacet
  facet normal 0 -1 0
    outer loop
      vertex 145.6 45 6
      vertex 153 45 5.4
      vertex 146.4 45 6
    endloop
  endfacet
  facet normal 0 -1 0
    outer loop
      vertex 146.4 45 6
      vertex 153 45 5.4
      vertex 147.6 45 6
    endloop
  endfacet
  facet normal 0 -1 0
    outer loop
      vertex 147.6 45 6
      vertex 153 45 5.4
      vertex 148.4 45 6
    endloop
  endfacet
  facet normal 0 -1 0
    outer loop
      vertex 148.4 45 6
      vertex 153 45 5.4
      vertex 149.6 45 6
    endloop
  endfacet
  facet normal 0 -1 0
    outer loop
      vertex 149.6 45 6
      vertex 153 45 5.4
      vertex 150.4 45 6
    endloop
  endfacet
  facet normal 0 -1 0
    outer loop
      vertex 150.4 45 6
      vertex 153 45 5.4
      vertex 151.6 45 6
    endloop
  endfacet
  facet normal 0 -1 0
    outer loop
      vertex 151.6 45 6
      vertex 153 45 5.4
      vertex 152.4 45 6
    endloop
  endfacet
  facet normal 0 -1 0
    outer loop
      vertex 152.4 45 6
      vertex 153 45 5.4
      vertex 153 45 6
    endloop
  endfacet
  facet normal 0 -1 0
    outer loop
      vertex 117.6 45 6
      vertex 118.4 45 10.5
      vertex 117.6 45 10.5
    endloop
  endfacet
  facet normal 0 -1 -0
    outer loop
      vertex 118.4 45 10.5
      vertex 117.6 45 6
      vertex 118.4 45 6
    endloop
  endfacet
  facet normal 0 -1 0
    outer loop
      vertex 119.6 45 6
      vertex 120.4 45 10.5
      vertex 119.6 45 10.5
    endloop
  endfacet
  facet normal 0 -1 -0
    outer loop
      vertex 120.4 45 10.5
      vertex 119.6 45 6
      vertex 120.4 45 6
    endloop
  endfacet
  facet normal 0 -1 0
    outer loop
      vertex 121.6 45 6
      vertex 122.4 45 10.5
      vertex 121.6 45 10.5
    endloop
  endfacet
  facet normal 0 -1 -0
    outer loop
      vertex 122.4 45 10.5
      vertex 121.6 45 6
      vertex 122.4 45 6
    endloop
  endfacet
  facet normal 0 -1 0
    outer loop
      vertex 123.6 45 6
      vertex 124.4 45 10.5
      vertex 123.6 45 10.5
    endloop
  endfacet
  facet normal 0 -1 -0
    outer loop
      vertex 124.4 45 10.5
      vertex 123.6 45 6
      vertex 124.4 45 6
    endloop
  endfacet
  facet normal 0 -1 0
    outer loop
      vertex 125.6 45 6
      vertex 126.4 45 10.5
      vertex 125.6 45 10.5
    endloop
  endfacet
  facet normal 0 -1 -0
    outer loop
      vertex 126.4 45 10.5
      vertex 125.6 45 6
      vertex 126.4 45 6
    endloop
  endfacet
  facet normal 0 -1 0
    outer loop
      vertex 127.6 45 6
      vertex 128.4 45 10.5
      vertex 127.6 45 10.5
    endloop
  endfacet
  facet normal 0 -1 -0
    outer loop
      vertex 128.4 45 10.5
      vertex 127.6 45 6
      vertex 128.4 45 6
    endloop
  endfacet
  facet normal 0 -1 0
    outer loop
      vertex 129.6 45 6
      vertex 130.4 45 10.5
      vertex 129.6 45 10.5
    endloop
  endfacet
  facet normal 0 -1 -0
    outer loop
      vertex 130.4 45 10.5
      vertex 129.6 45 6
      vertex 130.4 45 6
    endloop
  endfacet
  facet normal 0 -1 0
    outer loop
      vertex 131.6 45 6
      vertex 132.4 45 10.5
      vertex 131.6 45 10.5
    endloop
  endfacet
  facet normal 0 -1 -0
    outer loop
      vertex 132.4 45 10.5
      vertex 131.6 45 6
      vertex 132.4 45 6
    endloop
  endfacet
  facet normal 0 -1 0
    outer loop
      vertex 133.6 45 6
      vertex 134.4 45 10.5
      vertex 133.6 45 10.5
    endloop
  endfacet
  facet normal 0 -1 -0
    outer loop
      vertex 134.4 45 10.5
      vertex 133.6 45 6
      vertex 134.4 45 6
    endloop
  endfacet
  facet normal 0 -1 0
    outer loop
      vertex 135.6 45 6
      vertex 136.4 45 10.5
      vertex 135.6 45 10.5
    endloop
  endfacet
  facet normal 0 -1 -0
    outer loop
      vertex 136.4 45 10.5
      vertex 135.6 45 6
      vertex 136.4 45 6
    endloop
  endfacet
  facet normal 0 -1 0
    outer loop
      vertex 137.6 45 6
      vertex 138.4 45 10.5
      vertex 137.6 45 10.5
    endloop
  endfacet
  facet normal 0 -1 -0
    outer loop
      vertex 138.4 45 10.5
      vertex 137.6 45 6
      vertex 138.4 45 6
    endloop
  endfacet
  facet normal 0 -1 0
    outer loop
      vertex 139.6 45 6
      vertex 140.4 45 10.5
      vertex 139.6 45 10.5
    endloop
  endfacet
  facet normal 0 -1 -0
    outer loop
      vertex 140.4 45 10.5
      vertex 139.6 45 6
      vertex 140.4 45 6
    endloop
  endfacet
  facet normal 0 -1 0
    outer loop
      vertex 141.6 45 6
      vertex 142.4 45 10.5
      vertex 141.6 45 10.5
    endloop
  endfacet
  facet normal 0 -1 -0
    outer loop
      vertex 142.4 45 10.5
      vertex 141.6 45 6
      vertex 142.4 45 6
    endloop
  endfacet
  facet normal 0 -1 0
    outer loop
      vertex 143.6 45 6
      vertex 144.4 45 10.5
      vertex 143.6 45 10.5
    endloop
  endfacet
  facet normal 0 -1 -0
    outer loop
      vertex 144.4 45 10.5
      vertex 143.6 45 6
      vertex 144.4 45 6
    endloop
  endfacet
  facet normal 0 -1 0
    outer loop
      vertex 145.6 45 6
      vertex 146.4 45 10.5
      vertex 145.6 45 10.5
    endloop
  endfacet
  facet normal 0 -1 -0
    outer loop
      vertex 146.4 45 10.5
      vertex 145.6 45 6
      vertex 146.4 45 6
    endloop
  endfacet
  facet normal 0 -1 0
    outer loop
      vertex 147.6 45 6
      vertex 148.4 45 10.5
      vertex 147.6 45 10.5
    endloop
  endfacet
  facet normal 0 -1 -0
    outer loop
      vertex 148.4 45 10.5
      vertex 147.6 45 6
      vertex 148.4 45 6
    endloop
  endfacet
  facet normal 0 -1 0
    outer loop
      vertex 149.6 45 6
      vertex 150.4 45 10.5
      vertex 149.6 45 10.5
    endloop
  endfacet
  facet normal 0 -1 -0
    outer loop
      vertex 150.4 45 10.5
      vertex 149.6 45 6
      vertex 150.4 45 6
    endloop
  endfacet
  facet normal 0 -1 0
    outer loop
      vertex 151.6 45 6
      vertex 152.4 45 10.5
      vertex 151.6 45 10.5
    endloop
  endfacet
  facet normal 0 -1 -0
    outer loop
      vertex 152.4 45 10.5
      vertex 151.6 45 6
      vertex 152.4 45 6
    endloop
  endfacet
  facet normal 0 0 -1
    outer loop
      vertex 117 45 5.4
      vertex 153 51 5.4
      vertex 153 45 5.4
    endloop
  endfacet
  facet normal -0 0 -1
    outer loop
      vertex 153 51 5.4
      vertex 117 45 5.4
      vertex 117 51 5.4
    endloop
  endfacet
  facet normal 0 -1 0
    outer loop
      vertex 117 51 2.5
      vertex 153 51 5.4
      vertex 117 51 5.4
    endloop
  endfacet
  facet normal 0 -1 -0
    outer loop
      vertex 153 51 5.4
      vertex 117 51 2.5
      vertex 153 51 2.5
    endloop
  endfacet
  facet normal 1 -0 0
    outer loop
      vertex 118.4 45 10.5
      vertex 118.4 63 6
      vertex 118.4 63 10.5
    endloop
  endfacet
  facet normal 1 0 0
    outer loop
      vertex 118.4 63 6
      vertex 118.4 45 10.5
      vertex 118.4 45 6
    endloop
  endfacet
  facet normal -0 0 1
    outer loop
      vertex 117.6 63 10.5
      vertex 118.4 45 10.5
      vertex 118.4 63 10.5
    endloop
  endfacet
  facet normal 0 0 1
    outer loop
      vertex 118.4 45 10.5
      vertex 117.6 63 10.5
      vertex 117.6 45 10.5
    endloop
  endfacet
  facet normal -1 0 0
    outer loop
      vertex 117.6 45 6
      vertex 117.6 63 10.5
      vertex 117.6 63 6
    endloop
  endfacet
  facet normal -1 -0 0
    outer loop
      vertex 117.6 63 10.5
      vertex 117.6 45 6
      vertex 117.6 45 10.5
    endloop
  endfacet
  facet normal 1 -0 0
    outer loop
      vertex 120.4 45 10.5
      vertex 120.4 63 6
      vertex 120.4 63 10.5
    endloop
  endfacet
  facet normal 1 0 0
    outer loop
      vertex 120.4 63 6
      vertex 120.4 45 10.5
      vertex 120.4 45 6
    endloop
  endfacet
  facet normal -0 0 1
    outer loop
      vertex 119.6 63 10.5
      vertex 120.4 45 10.5
      vertex 120.4 63 10.5
    endloop
  endfacet
  facet normal 0 0 1
    outer loop
      vertex 120.4 45 10.5
      vertex 119.6 63 10.5
      vertex 119.6 45 10.5
    endloop
  endfacet
  facet normal -1 0 0
    outer loop
      vertex 119.6 45 6
      vertex 119.6 63 10.5
      vertex 119.6 63 6
    endloop
  endfacet
  facet normal -1 -0 0
    outer loop
      vertex 119.6 63 10.5
      vertex 119.6 45 6
      vertex 119.6 45 10.5
    endloop
  endfacet
  facet normal 1 -0 0
    outer loop
      vertex 122.4 45 10.5
      vertex 122.4 63 6
      vertex 122.4 63 10.5
    endloop
  endfacet
  facet normal 1 0 0
    outer loop
      vertex 122.4 63 6
      vertex 122.4 45 10.5
      vertex 122.4 45 6
    endloop
  endfacet
  facet normal -0 0 1
    outer loop
      vertex 121.6 63 10.5
      vertex 122.4 45 10.5
      vertex 122.4 63 10.5
    endloop
  endfacet
  facet normal 0 0 1
    outer loop
      vertex 122.4 45 10.5
      vertex 121.6 63 10.5
      vertex 121.6 45 10.5
    endloop
  endfacet
  facet normal -1 0 0
    outer loop
      vertex 121.6 45 6
      vertex 121.6 63 10.5
      vertex 121.6 63 6
    endloop
  endfacet
  facet normal -1 -0 0
    outer loop
      vertex 121.6 63 10.5
      vertex 121.6 45 6
      vertex 121.6 45 10.5
    endloop
  endfacet
  facet normal 1 -0 0
    outer loop
      vertex 124.4 45 10.5
      vertex 124.4 63 6
      vertex 124.4 63 10.5
    endloop
  endfacet
  facet normal 1 0 0
    outer loop
      vertex 124.4 63 6
      vertex 124.4 45 10.5
      vertex 124.4 45 6
    endloop
  endfacet
  facet normal -0 0 1
    outer loop
      vertex 123.6 63 10.5
      vertex 124.4 45 10.5
      vertex 124.4 63 10.5
    endloop
  endfacet
  facet normal 0 0 1
    outer loop
      vertex 124.4 45 10.5
      vertex 123.6 63 10.5
      vertex 123.6 45 10.5
    endloop
  endfacet
  facet normal -1 0 0
    outer loop
      vertex 123.6 45 6
      vertex 123.6 63 10.5
      vertex 123.6 63 6
    endloop
  endfacet
  facet normal -1 -0 0
    outer loop
      vertex 123.6 63 10.5
      vertex 123.6 45 6
      vertex 123.6 45 10.5
    endloop
  endfacet
  facet normal 1 -0 0
    outer loop
      vertex 126.4 45 10.5
      vertex 126.4 63 6
      vertex 126.4 63 10.5
    endloop
  endfacet
  facet normal 1 0 0
    outer loop
      vertex 126.4 63 6
      vertex 126.4 45 10.5
      vertex 126.4 45 6
    endloop
  endfacet
  facet normal -0 0 1
    outer loop
      vertex 125.6 63 10.5
      vertex 126.4 45 10.5
      vertex 126.4 63 10.5
    endloop
  endfacet
  facet normal 0 0 1
    outer loop
      vertex 126.4 45 10.5
      vertex 125.6 63 10.5
      vertex 125.6 45 10.5
    endloop
  endfacet
  facet normal -1 0 0
    outer loop
      vertex 125.6 45 6
      vertex 125.6 63 10.5
      vertex 125.6 63 6
    endloop
  endfacet
  facet normal -1 -0 0
    outer loop
      vertex 125.6 63 10.5
      vertex 125.6 45 6
      vertex 125.6 45 10.5
    endloop
  endfacet
  facet normal 1 -0 0
    outer loop
      vertex 128.4 45 10.5
      vertex 128.4 63 6
      vertex 128.4 63 10.5
    endloop
  endfacet
  facet normal 1 0 0
    outer loop
      vertex 128.4 63 6
      vertex 128.4 45 10.5
      vertex 128.4 45 6
    endloop
  endfacet
  facet normal -0 0 1
    outer loop
      vertex 127.6 63 10.5
      vertex 128.4 45 10.5
      vertex 128.4 63 10.5
    endloop
  endfacet
  facet normal 0 0 1
    outer loop
      vertex 128.4 45 10.5
      vertex 127.6 63 10.5
      vertex 127.6 45 10.5
    endloop
  endfacet
  facet normal -1 0 0
    outer loop
      vertex 127.6 45 6
      vertex 127.6 63 10.5
      vertex 127.6 63 6
    endloop
  endfacet
  facet normal -1 -0 0
    outer loop
      vertex 127.6 63 10.5
      vertex 127.6 45 6
      vertex 127.6 45 10.5
    endloop
  endfacet
  facet normal 1 -0 0
    outer loop
      vertex 130.4 45 10.5
      vertex 130.4 63 6
      vertex 130.4 63 10.5
    endloop
  endfacet
  facet normal 1 0 0
    outer loop
      vertex 130.4 63 6
      vertex 130.4 45 10.5
      vertex 130.4 45 6
    endloop
  endfacet
  facet normal -0 0 1
    outer loop
      vertex 129.6 63 10.5
      vertex 130.4 45 10.5
      vertex 130.4 63 10.5
    endloop
  endfacet
  facet normal 0 0 1
    outer loop
      vertex 130.4 45 10.5
      vertex 129.6 63 10.5
      vertex 129.6 45 10.5
    endloop
  endfacet
  facet normal -1 0 0
    outer loop
      vertex 129.6 45 6
      vertex 129.6 63 10.5
      vertex 129.6 63 6
    endloop
  endfacet
  facet normal -1 -0 0
    outer loop
      vertex 129.6 63 10.5
      vertex 129.6 45 6
      vertex 129.6 45 10.5
    endloop
  endfacet
  facet normal 1 -0 0
    outer loop
      vertex 132.4 45 10.5
      vertex 132.4 63 6
      vertex 132.4 63 10.5
    endloop
  endfacet
  facet normal 1 0 0
    outer loop
      vertex 132.4 63 6
      vertex 132.4 45 10.5
      vertex 132.4 45 6
    endloop
  endfacet
  facet normal -0 0 1
    outer loop
      vertex 131.6 63 10.5
      vertex 132.4 45 10.5
      vertex 132.4 63 10.5
    endloop
  endfacet
  facet normal 0 0 1
    outer loop
      vertex 132.4 45 10.5
      vertex 131.6 63 10.5
      vertex 131.6 45 10.5
    endloop
  endfacet
  facet normal -1 0 0
    outer loop
      vertex 131.6 45 6
      vertex 131.6 63 10.5
      vertex 131.6 63 6
    endloop
  endfacet
  facet normal -1 -0 0
    outer loop
      vertex 131.6 63 10.5
      vertex 131.6 45 6
      vertex 131.6 45 10.5
    endloop
  endfacet
  facet normal 1 -0 0
    outer loop
      vertex 134.4 45 10.5
      vertex 134.4 63 6
      vertex 134.4 63 10.5
    endloop
  endfacet
  facet normal 1 0 0
    outer loop
      vertex 134.4 63 6
      vertex 134.4 45 10.5
      vertex 134.4 45 6
    endloop
  endfacet
  facet normal -0 0 1
    outer loop
      vertex 133.6 63 10.5
      vertex 134.4 45 10.5
      vertex 134.4 63 10.5
    endloop
  endfacet
  facet normal 0 0 1
    outer loop
      vertex 134.4 45 10.5
      vertex 133.6 63 10.5
      vertex 133.6 45 10.5
    endloop
  endfacet
  facet normal -1 0 0
    outer loop
      vertex 133.6 45 6
      vertex 133.6 63 10.5
      vertex 133.6 63 6
    endloop
  endfacet
  facet normal -1 -0 0
    outer loop
      vertex 133.6 63 10.5
      vertex 133.6 45 6
      vertex 133.6 45 10.5
    endloop
  endfacet
  facet normal 1 -0 0
    outer loop
      vertex 136.4 45 10.5
      vertex 136.4 63 6
      vertex 136.4 63 10.5
    endloop
  endfacet
  facet normal 1 0 0
    outer loop
      vertex 136.4 63 6
      vertex 136.4 45 10.5
      vertex 136.4 45 6
    endloop
  endfacet
  facet normal -0 0 1
    outer loop
      vertex 135.6 63 10.5
      vertex 136.4 45 10.5
      vertex 136.4 63 10.5
    endloop
  endfacet
  facet normal 0 0 1
    outer loop
      vertex 136.4 45 10.5
      vertex 135.6 63 10.5
      vertex 135.6 45 10.5
    endloop
  endfacet
  facet normal -1 0 0
    outer loop
      vertex 135.6 45 6
      vertex 135.6 63 10.5
      vertex 135.6 63 6
    endloop
  endfacet
  facet normal -1 -0 0
    outer loop
      vertex 135.6 63 10.5
      vertex 135.6 45 6
      vertex 135.6 45 10.5
    endloop
  endfacet
  facet normal 1 -0 0
    outer loop
      vertex 138.4 45 10.5
      vertex 138.4 63 6
      vertex 138.4 63 10.5
    endloop
  endfacet
  facet normal 1 0 0
    outer loop
      vertex 138.4 63 6
      vertex 138.4 45 10.5
      vertex 138.4 45 6
    endloop
  endfacet
  facet normal -0 0 1
    outer loop
      vertex 137.6 63 10.5
      vertex 138.4 45 10.5
      vertex 138.4 63 10.5
    endloop
  endfacet
  facet normal 0 0 1
    outer loop
      vertex 138.4 45 10.5
      vertex 137.6 63 10.5
      vertex 137.6 45 10.5
    endloop
  endfacet
  facet normal -1 0 0
    outer loop
      vertex 137.6 45 6
      vertex 137.6 63 10.5
      vertex 137.6 63 6
    endloop
  endfacet
  facet normal -1 -0 0
    outer loop
      vertex 137.6 63 10.5
      vertex 137.6 45 6
      vertex 137.6 45 10.5
    endloop
  endfacet
  facet normal 1 -0 0
    outer loop
      vertex 140.4 45 10.5
      vertex 140.4 63 6
      vertex 140.4 63 10.5
    endloop
  endfacet
  facet normal 1 0 0
    outer loop
      vertex 140.4 63 6
      vertex 140.4 45 10.5
      vertex 140.4 45 6
    endloop
  endfacet
  facet normal -0 0 1
    outer loop
      vertex 139.6 63 10.5
      vertex 140.4 45 10.5
      vertex 140.4 63 10.5
    endloop
  endfacet
  facet normal 0 0 1
    outer loop
      vertex 140.4 45 10.5
      vertex 139.6 63 10.5
      vertex 139.6 45 10.5
    endloop
  endfacet
  facet normal -1 0 0
    outer loop
      vertex 139.6 45 6
      vertex 139.6 63 10.5
      vertex 139.6 63 6
    endloop
  endfacet
  facet normal -1 -0 0
    outer loop
      vertex 139.6 63 10.5
      vertex 139.6 45 6
      vertex 139.6 45 10.5
    endloop
  endfacet
  facet normal 1 -0 0
    outer loop
      vertex 142.4 45 10.5
      vertex 142.4 63 6
      vertex 142.4 63 10.5
    endloop
  endfacet
  facet normal 1 0 0
    outer loop
      vertex 142.4 63 6
      vertex 142.4 45 10.5
      vertex 142.4 45 6
    endloop
  endfacet
  facet normal -0 0 1
    outer loop
      vertex 141.6 63 10.5
      vertex 142.4 45 10.5
      vertex 142.4 63 10.5
    endloop
  endfacet
  facet normal 0 0 1
    outer loop
      vertex 142.4 45 10.5
      vertex 141.6 63 10.5
      vertex 141.6 45 10.5
    endloop
  endfacet
  facet normal -1 0 0
    outer loop
      vertex 141.6 45 6
      vertex 141.6 63 10.5
      vertex 141.6 63 6
    endloop
  endfacet
  facet normal -1 -0 0
    outer loop
      vertex 141.6 63 10.5
      vertex 141.6 45 6
      vertex 141.6 45 10.5
    endloop
  endfacet
  facet normal 1 -0 0
    outer loop
      vertex 144.4 45 10.5
      vertex 144.4 63 6
      vertex 144.4 63 10.5
    endloop
  endfacet
  facet normal 1 0 0
    outer loop
      vertex 144.4 63 6
      vertex 144.4 45 10.5
      vertex 144.4 45 6
    endloop
  endfacet
  facet normal -0 0 1
    outer loop
      vertex 143.6 63 10.5
      vertex 144.4 45 10.5
      vertex 144.4 63 10.5
    endloop
  endfacet
  facet normal 0 0 1
    outer loop
      vertex 144.4 45 10.5
      vertex 143.6 63 10.5
      vertex 143.6 45 10.5
    endloop
  endfacet
  facet normal -1 0 0
    outer loop
      vertex 143.6 45 6
      vertex 143.6 63 10.5
      vertex 143.6 63 6
    endloop
  endfacet
  facet normal -1 -0 0
    outer loop
      vertex 143.6 63 10.5
      vertex 143.6 45 6
      vertex 143.6 45 10.5
    endloop
  endfacet
  facet normal 1 -0 0
    outer loop
      vertex 146.4 45 10.5
      vertex 146.4 63 6
      vertex 146.4 63 10.5
    endloop
  endfacet
  facet normal 1 0 0
    outer loop
      vertex 146.4 63 6
      vertex 146.4 45 10.5
      vertex 146.4 45 6
    endloop
  endfacet
  facet normal -0 0 1
    outer loop
      vertex 145.6 63 10.5
      vertex 146.4 45 10.5
      vertex 146.4 63 10.5
    endloop
  endfacet
  facet normal 0 0 1
    outer loop
      vertex 146.4 45 10.5
      vertex 145.6 63 10.5
      vertex 145.6 45 10.5
    endloop
  endfacet
  facet normal -1 0 0
    outer loop
      vertex 145.6 45 6
      vertex 145.6 63 10.5
      vertex 145.6 63 6
    endloop
  endfacet
  facet normal -1 -0 0
    outer loop
      vertex 145.6 63 10.5
      vertex 145.6 45 6
      vertex 145.6 45 10.5
    endloop
  endfacet
  facet normal 1 -0 0
    outer loop
      vertex 148.4 45 10.5
      vertex 148.4 63 6
      vertex 148.4 63 10.5
    endloop
  endfacet
  facet normal 1 0 0
    outer loop
      vertex 148.4 63 6
      vertex 148.4 45 10.5
      vertex 148.4 45 6
    endloop
  endfacet
  facet normal -0 0 1
    outer loop
      vertex 147.6 63 10.5
      vertex 148.4 45 10.5
      vertex 148.4 63 10.5
    endloop
  endfacet
  facet normal 0 0 1
    outer loop
      vertex 148.4 45 10.5
      vertex 147.6 63 10.5
      vertex 147.6 45 10.5
    endloop
  endfacet
  facet normal -1 0 0
    outer loop
      vertex 147.6 45 6
      vertex 147.6 63 10.5
      vertex 147.6 63 6
    endloop
  endfacet
  facet normal -1 -0 0
    outer loop
      vertex 147.6 63 10.5
      vertex 147.6 45 6
      vertex 147.6 45 10.5
    endloop
  endfacet
  facet normal 1 -0 0
    outer loop
      vertex 150.4 45 10.5
      vertex 150.4 63 6
      vertex 150.4 63 10.5
    endloop
  endfacet
  facet normal 1 0 0
    outer loop
      vertex 150.4 63 6
      vertex 150.4 45 10.5
      vertex 150.4 45 6
    endloop
  endfacet
  facet normal -0 0 1
    outer loop
      vertex 149.6 63 10.5
      vertex 150.4 45 10.5
      vertex 150.4 63 10.5
    endloop
  endfacet
  facet normal 0 0 1
    outer loop
      vertex 150.4 45 10.5
      vertex 149.6 63 10.5
      vertex 149.6 45 10.5
    endloop
  endfacet
  facet normal -1 0 0
    outer loop
      vertex 149.6 45 6
      vertex 149.6 63 10.5
      vertex 149.6 63 6
    endloop
  endfacet
  facet normal -1 -0 0
    outer loop
      vertex 149.6 63 10.5
      vertex 149.6 45 6
      vertex 149.6 45 10.5
    endloop
  endfacet
  facet normal 1 -0 0
    outer loop
      vertex 152.4 45 10.5
      vertex 152.4 63 6
      vertex 152.4 63 10.5
    endloop
  endfacet
  facet normal 1 0 0
    outer loop
      vertex 152.4 63 6
      vertex 152.4 45 10.5
      vertex 152.4 45 6
    endloop
  endfacet
  facet normal -0 0 1
    outer loop
      vertex 151.6 63 10.5
      vertex 152.4 45 10.5
      vertex 152.4 63 10.5
    endloop
  endfacet
  facet normal 0 0 1
    outer loop
      vertex 152.4 45 10.5
      vertex 151.6 63 10.5
      vertex 151.6 45 10.5
    endloop
  endfacet
  facet normal -1 0 0
    outer loop
      vertex 151.6 45 6
      vertex 151.6 63 10.5
      vertex 151.6 63 6
    endloop
  endfacet
  facet normal -1 -0 0
    outer loop
      vertex 151.6 63 10.5
      vertex 151.6 45 6
      vertex 151.6 45 10.5
    endloop
  endfacet
endsolid OpenSCAD_Model
