<?xml version="1.0" standalone="no"?>
<!DOCTYPE svg PUBLIC "-//W3C//DTD SVG 1.1//EN" "http://www.w3.org/Graphics/SVG/1.1/DTD/svg11.dtd">
<svg width="273mm" height="73mm" viewBox="0 -73 273 73" xmlns="http://www.w3.org/2000/svg" version="1.1">
<title>OpenSCAD Model</title>
<path d="
M 271.272,-0.708054 L 272.542,-2.1411 L 273,-4 L 273,-69 L 272.542,-70.8589 L 271.272,-72.2919
 L 269.482,-72.9708 L 4.48213,-72.9708 L 2.58157,-72.7401 L 1.00595,-71.6525 L 0.116226,-69.9573 L 0.116226,-3.04272
 L 1.00595,-1.3475 L 2.58157,-0.259933 L 4.48213,-0.0291595 L 269.482,-0.0291595 z
M 9.44426,-4 L 9.47487,-4.02512 L 9.91014,-4.5555 L 10.2336,-5.1606 L 10.4327,-5.81718 L 10.5,-6.5
 L 10.4327,-7.18282 L 10.2336,-7.83939 L 9.91014,-8.44449 L 9.47487,-8.97487 L 8.94449,-9.41014 L 8.33939,-9.73357
 L 7.68282,-9.93274 L 7,-10 L 6.31718,-9.93274 L 5.6606,-9.73357 L 5.0555,-9.41014 L 4.52512,-8.97487
 L 4.08984,-8.44449 L 4,-8.2764 L 4,-64.7236 L 4.08984,-64.5555 L 4.52512,-64.0251 L 5.0555,-63.5899
 L 5.6606,-63.2664 L 6.31718,-63.0672 L 7,-63 L 7.68282,-63.0672 L 8.33939,-63.2664 L 8.94449,-63.5899
 L 9.47487,-64.0251 L 9.91014,-64.5555 L 10.1477,-65 L 262.852,-65 L 263.09,-64.5555 L 263.525,-64.0251
 L 264.056,-63.5899 L 264.661,-63.2664 L 265,-63.1635 L 265,-9.83652 L 264.661,-9.73357 L 264.056,-9.41014
 L 263.525,-8.97487 L 263.09,-8.44449 L 262.766,-7.83939 L 262.567,-7.18282 L 262.5,-6.5 L 262.567,-5.81718
 L 262.766,-5.1606 L 263.09,-4.5555 L 263.525,-4.02512 L 263.556,-4 z
M 4,-4 L 4,-4.72359 L 4.08984,-4.5555 L 4.52512,-4.02512 L 4.55573,-4 z
" stroke="black" fill="lightgray" stroke-width="0.5"/>
</svg>
