  0
SECTION
  2
BLOCKS
  0
ENDSEC
  0
SECTION
  2
ENTITIES
  0
LINE
  8
0
 10
271.272
 20
0.708054
 11
272.542
 21
2.1411
  0
LINE
  8
0
 10
272.542
 20
2.1411
 11
273
 21
4
  0
LINE
  8
0
 10
273
 20
4
 11
273
 21
69
  0
LINE
  8
0
 10
273
 20
69
 11
272.542
 21
70.8589
  0
LINE
  8
0
 10
272.542
 20
70.8589
 11
271.272
 21
72.2919
  0
LINE
  8
0
 10
271.272
 20
72.2919
 11
269.482
 21
72.9708
  0
LINE
  8
0
 10
269.482
 20
72.9708
 11
4.48213
 21
72.9708
  0
LINE
  8
0
 10
4.48213
 20
72.9708
 11
2.58157
 21
72.7401
  0
LINE
  8
0
 10
2.58157
 20
72.7401
 11
1.00595
 21
71.6525
  0
LINE
  8
0
 10
1.00595
 20
71.6525
 11
0.116226
 21
69.9573
  0
LINE
  8
0
 10
0.116226
 20
69.9573
 11
0.116226
 21
3.04272
  0
LINE
  8
0
 10
0.116226
 20
3.04272
 11
1.00595
 21
1.3475
  0
LINE
  8
0
 10
1.00595
 20
1.3475
 11
2.58157
 21
0.259933
  0
LINE
  8
0
 10
2.58157
 20
0.259933
 11
4.48213
 21
0.0291595
  0
LINE
  8
0
 10
4.48213
 20
0.0291595
 11
269.482
 21
0.0291595
  0
LINE
  8
0
 10
269.482
 20
0.0291595
 11
271.272
 21
0.708054
  0
ENDSEC
  0
SECTION
  2
OBJECTS
  0
DICTIONARY
  0
ENDSEC
  0
EOF
