  0
SECTION
  2
BLOCKS
  0
ENDSEC
  0
SECTION
  2
ENTITIES
  0
LINE
  8
0
 10
271.272
 20
0.708054
 11
272.542
 21
2.1411
  0
LINE
  8
0
 10
272.542
 20
2.1411
 11
273
 21
4
  0
LINE
  8
0
 10
273
 20
4
 11
273
 21
69
  0
LINE
  8
0
 10
273
 20
69
 11
272.542
 21
70.8589
  0
LINE
  8
0
 10
272.542
 20
70.8589
 11
271.272
 21
72.2919
  0
LINE
  8
0
 10
271.272
 20
72.2919
 11
269.482
 21
72.9708
  0
LINE
  8
0
 10
269.482
 20
72.9708
 11
4.48213
 21
72.9708
  0
LINE
  8
0
 10
4.48213
 20
72.9708
 11
2.58157
 21
72.7401
  0
LINE
  8
0
 10
2.58157
 20
72.7401
 11
1.00595
 21
71.6525
  0
LINE
  8
0
 10
1.00595
 20
71.6525
 11
0.116226
 21
69.9573
  0
LINE
  8
0
 10
0.116226
 20
69.9573
 11
0.116226
 21
3.04272
  0
LINE
  8
0
 10
0.116226
 20
3.04272
 11
1.00595
 21
1.3475
  0
LINE
  8
0
 10
1.00595
 20
1.3475
 11
2.58157
 21
0.259933
  0
LINE
  8
0
 10
2.58157
 20
0.259933
 11
4.48213
 21
0.0291595
  0
LINE
  8
0
 10
4.48213
 20
0.0291595
 11
269.482
 21
0.0291595
  0
LINE
  8
0
 10
269.482
 20
0.0291595
 11
271.272
 21
0.708054
  0
LINE
  8
0
 10
10.4507
 20
6
 11
10.5
 21
6.5
  0
LINE
  8
0
 10
10.5
 20
6.5
 11
10.4327
 21
7.18282
  0
LINE
  8
0
 10
10.4327
 20
7.18282
 11
10.2336
 21
7.83939
  0
LINE
  8
0
 10
10.2336
 20
7.83939
 11
9.91014
 21
8.44449
  0
LINE
  8
0
 10
9.91014
 20
8.44449
 11
9.47487
 21
8.97487
  0
LINE
  8
0
 10
9.47487
 20
8.97487
 11
8.94449
 21
9.41014
  0
LINE
  8
0
 10
8.94449
 20
9.41014
 11
8.33939
 21
9.73357
  0
LINE
  8
0
 10
8.33939
 20
9.73357
 11
7.68282
 21
9.93274
  0
LINE
  8
0
 10
7.68282
 20
9.93274
 11
7
 21
10
  0
LINE
  8
0
 10
7
 20
10
 11
6.31718
 21
9.93274
  0
LINE
  8
0
 10
6.31718
 20
9.93274
 11
6
 21
9.83652
  0
LINE
  8
0
 10
6
 20
9.83652
 11
6
 21
63.1635
  0
LINE
  8
0
 10
6
 20
63.1635
 11
6.31718
 21
63.0672
  0
LINE
  8
0
 10
6.31718
 20
63.0672
 11
7
 21
63
  0
LINE
  8
0
 10
7
 20
63
 11
7.68282
 21
63.0672
  0
LINE
  8
0
 10
7.68282
 20
63.0672
 11
8.33939
 21
63.2664
  0
LINE
  8
0
 10
8.33939
 20
63.2664
 11
8.94449
 21
63.5899
  0
LINE
  8
0
 10
8.94449
 20
63.5899
 11
9.47487
 21
64.0251
  0
LINE
  8
0
 10
9.47487
 20
64.0251
 11
9.91014
 21
64.5555
  0
LINE
  8
0
 10
9.91014
 20
64.5555
 11
10.2336
 21
65.1606
  0
LINE
  8
0
 10
10.2336
 20
65.1606
 11
10.4327
 21
65.8172
  0
LINE
  8
0
 10
10.4327
 20
65.8172
 11
10.5
 21
66.5
  0
LINE
  8
0
 10
10.5
 20
66.5
 11
10.4507
 21
67
  0
LINE
  8
0
 10
10.4507
 20
67
 11
262.549
 21
67
  0
LINE
  8
0
 10
262.549
 20
67
 11
262.5
 21
66.5
  0
LINE
  8
0
 10
262.5
 20
66.5
 11
262.567
 21
65.8172
  0
LINE
  8
0
 10
262.567
 20
65.8172
 11
262.766
 21
65.1606
  0
LINE
  8
0
 10
262.766
 20
65.1606
 11
263.09
 21
64.5555
  0
LINE
  8
0
 10
263.09
 20
64.5555
 11
263.525
 21
64.0251
  0
LINE
  8
0
 10
263.525
 20
64.0251
 11
264.056
 21
63.5899
  0
LINE
  8
0
 10
264.056
 20
63.5899
 11
264.661
 21
63.2664
  0
LINE
  8
0
 10
264.661
 20
63.2664
 11
265.317
 21
63.0672
  0
LINE
  8
0
 10
265.317
 20
63.0672
 11
266
 21
63
  0
LINE
  8
0
 10
266
 20
63
 11
266.683
 21
63.0672
  0
LINE
  8
0
 10
266.683
 20
63.0672
 11
267
 21
63.1635
  0
LINE
  8
0
 10
267
 20
63.1635
 11
267
 21
9.83652
  0
LINE
  8
0
 10
267
 20
9.83652
 11
266.683
 21
9.93274
  0
LINE
  8
0
 10
266.683
 20
9.93274
 11
266
 21
10
  0
LINE
  8
0
 10
266
 20
10
 11
265.317
 21
9.93274
  0
LINE
  8
0
 10
265.317
 20
9.93274
 11
264.661
 21
9.73357
  0
LINE
  8
0
 10
264.661
 20
9.73357
 11
264.056
 21
9.41014
  0
LINE
  8
0
 10
264.056
 20
9.41014
 11
263.525
 21
8.97487
  0
LINE
  8
0
 10
263.525
 20
8.97487
 11
263.09
 21
8.44449
  0
LINE
  8
0
 10
263.09
 20
8.44449
 11
262.766
 21
7.83939
  0
LINE
  8
0
 10
262.766
 20
7.83939
 11
262.567
 21
7.18282
  0
LINE
  8
0
 10
262.567
 20
7.18282
 11
262.5
 21
6.5
  0
LINE
  8
0
 10
262.5
 20
6.5
 11
262.549
 21
6
  0
LINE
  8
0
 10
262.549
 20
6
 11
10.4507
 21
6
  0
ENDSEC
  0
SECTION
  2
OBJECTS
  0
DICTIONARY
  0
ENDSEC
  0
EOF
