<?xml version="1.0" standalone="no"?>
<!DOCTYPE svg PUBLIC "-//W3C//DTD SVG 1.1//EN" "http://www.w3.org/Graphics/SVG/1.1/DTD/svg11.dtd">
<svg width="274mm" height="17mm" viewBox="0 -17 274 17" xmlns="http://www.w3.org/2000/svg" version="1.1">
<title>OpenSCAD Model</title>
<path d="
M 274,-17 L 0.116226,-17 L 0.116226,-0 L 274,-0 z
M 129,-7 L 129,-14 L 145,-14 L 145,-7 L 141,-7 L 141,-9.00999
 L 133,-9.00999 L 133,-7 z
M 249.5,-9.75 L 249.5,-11.25 L 261.091,-11.25 L 261.091,-9.75 z
M 94.6667,-9.75 L 94.6667,-11.25 L 105.636,-11.25 L 105.636,-9.75 z
M 22.5,-11 L 22.5,-11.25 L 27.9091,-11.25 L 27.9091,-11 z
M 12.9091,-9.75 L 12.9091,-11.25 L 17.5,-11.25 L 17.5,-9.75 z
M 43.3333,-9.75 L 43.3333,-11.25 L 53.8182,-11.25 L 53.8182,-9.75 z
M 69,-9.75 L 69,-11.25 L 79.7273,-11.25 L 79.7273,-9.75 z
M 168.364,-9.75 L 168.364,-11.25 L 176.333,-11.25 L 176.333,-9.75 z
M 194.273,-9.75 L 194.273,-11.25 L 200,-11.25 L 200,-9.75 z
M 208.667,-9.75 L 208.667,-11.25 L 209.273,-11.25 L 209.273,-9.75 z
M 220.182,-9.75 L 220.182,-11.25 L 223.667,-11.25 L 223.667,-9.75 z
" stroke="black" fill="lightgray" stroke-width="0.5"/>
</svg>
