solid OpenSCAD_Model
  facet normal 1 0 0
    outer loop
      vertex 34 35 10.9
      vertex 34 33 9.9
      vertex 34 35 9.9
    endloop
  endfacet
  facet normal 1 0 0
    outer loop
      vertex 34 33 9.9
      vertex 34 21 10.9
      vertex 34 33 6.9
    endloop
  endfacet
  facet normal 1 -0 0
    outer loop
      vertex 34 21 10.9
      vertex 34 33 9.9
      vertex 34 35 10.9
    endloop
  endfacet
  facet normal 1 -0 0
    outer loop
      vertex 34 33 6.9
      vertex 34 35 5.5
      vertex 34 35 6.9
    endloop
  endfacet
  facet normal 1 0 0
    outer loop
      vertex 34 21 5.5
      vertex 34 33 6.9
      vertex 34 21 10.9
    endloop
  endfacet
  facet normal 1 0 0
    outer loop
      vertex 34 33 6.9
      vertex 34 21 5.5
      vertex 34 35 5.5
    endloop
  endfacet
  facet normal -0 0 1
    outer loop
      vertex 20 35 10.9
      vertex 34 21 10.9
      vertex 34 35 10.9
    endloop
  endfacet
  facet normal 0 0 1
    outer loop
      vertex 34 21 10.9
      vertex 20 35 10.9
      vertex 20 21 10.9
    endloop
  endfacet
  facet normal 0 0 -1
    outer loop
      vertex 30.25 21 5.5
      vertex 34 35 5.5
      vertex 34 21 5.5
    endloop
  endfacet
  facet normal -0 0 -1
    outer loop
      vertex 34 35 5.5
      vertex 30.25 21 5.5
      vertex 30.25 35 5.5
    endloop
  endfacet
  facet normal 0 0 -1
    outer loop
      vertex 20 21 5.5
      vertex 23.75 35 5.5
      vertex 23.75 21 5.5
    endloop
  endfacet
  facet normal -0 0 -1
    outer loop
      vertex 23.75 35 5.5
      vertex 20 21 5.5
      vertex 20 35 5.5
    endloop
  endfacet
  facet normal -1 0 0
    outer loop
      vertex 20 21 5.5
      vertex 20 35 10.9
      vertex 20 35 5.5
    endloop
  endfacet
  facet normal -1 -0 0
    outer loop
      vertex 20 35 10.9
      vertex 20 21 5.5
      vertex 20 21 10.9
    endloop
  endfacet
  facet normal 0 1 0
    outer loop
      vertex 24 35 9.9
      vertex 34 35 10.9
      vertex 34 35 9.9
    endloop
  endfacet
  facet normal 0 1 0
    outer loop
      vertex 34 35 10.9
      vertex 24 35 9.9
      vertex 20 35 10.9
    endloop
  endfacet
  facet normal 0 1 -0
    outer loop
      vertex 23.75 35 9.9
      vertex 20 35 10.9
      vertex 24 35 9.9
    endloop
  endfacet
  facet normal 0 1 0
    outer loop
      vertex 20 35 5.5
      vertex 23.75 35 9.9
      vertex 23.75 35 5.5
    endloop
  endfacet
  facet normal 0 1 0
    outer loop
      vertex 23.75 35 9.9
      vertex 20 35 5.5
      vertex 20 35 10.9
    endloop
  endfacet
  facet normal 0 1 -0
    outer loop
      vertex 34 35 5.5
      vertex 30.25 35 6.9
      vertex 34 35 6.9
    endloop
  endfacet
  facet normal 0 1 0
    outer loop
      vertex 30.25 35 6.9
      vertex 34 35 5.5
      vertex 30.25 35 5.5
    endloop
  endfacet
  facet normal 0 -1 0
    outer loop
      vertex 20 21 10.9
      vertex 23.75 21 9.9
      vertex 34 21 10.9
    endloop
  endfacet
  facet normal 0 -1 0
    outer loop
      vertex 20 21 5.5
      vertex 23.75 21 9.9
      vertex 20 21 10.9
    endloop
  endfacet
  facet normal 0 -1 -0
    outer loop
      vertex 23.75 21 9.9
      vertex 20 21 5.5
      vertex 23.75 21 5.5
    endloop
  endfacet
  facet normal 0 -1 0
    outer loop
      vertex 30.25 21 9.9
      vertex 34 21 10.9
      vertex 23.75 21 9.9
    endloop
  endfacet
  facet normal 0 -1 0
    outer loop
      vertex 34 21 5.5
      vertex 30.25 21 9.9
      vertex 30.25 21 5.5
    endloop
  endfacet
  facet normal 0 -1 0
    outer loop
      vertex 30.25 21 9.9
      vertex 34 21 5.5
      vertex 34 21 10.9
    endloop
  endfacet
  facet normal -1 0 0
    outer loop
      vertex 30.25 35 5.5
      vertex 30.25 33 6.9
      vertex 30.25 35 6.9
    endloop
  endfacet
  facet normal -1 0 0
    outer loop
      vertex 30.25 21 5.5
      vertex 30.25 33 6.9
      vertex 30.25 35 5.5
    endloop
  endfacet
  facet normal -1 0 0
    outer loop
      vertex 30.25 21 9.9
      vertex 30.25 33 6.9
      vertex 30.25 21 5.5
    endloop
  endfacet
  facet normal -1 0 0
    outer loop
      vertex 30.25 33 6.9
      vertex 30.25 21 9.9
      vertex 30.25 33 9.9
    endloop
  endfacet
  facet normal 0 0 -1
    outer loop
      vertex 30.25 21 9.9
      vertex 30 25 9.9
      vertex 30.25 33 9.9
    endloop
  endfacet
  facet normal 0 0 -1
    outer loop
      vertex 30.25 21 9.9
      vertex 24 25 9.9
      vertex 30 25 9.9
    endloop
  endfacet
  facet normal 0 0 -1
    outer loop
      vertex 23.75 21 9.9
      vertex 24 25 9.9
      vertex 30.25 21 9.9
    endloop
  endfacet
  facet normal 0 0 -1
    outer loop
      vertex 23.75 35 9.9
      vertex 24 25 9.9
      vertex 23.75 21 9.9
    endloop
  endfacet
  facet normal 0 0 -1
    outer loop
      vertex 24 25 9.9
      vertex 23.75 35 9.9
      vertex 24 35 9.9
    endloop
  endfacet
  facet normal -0 0 -1
    outer loop
      vertex 30.25 33 9.9
      vertex 30 25 9.9
      vertex 30 33 9.9
    endloop
  endfacet
  facet normal 0 0 1
    outer loop
      vertex 53 39 9.9
      vertex 34 35 9.9
      vertex 53 33 9.9
    endloop
  endfacet
  facet normal -0 0 1
    outer loop
      vertex 24 39 9.9
      vertex 34 35 9.9
      vertex 53 39 9.9
    endloop
  endfacet
  facet normal 0 0 1
    outer loop
      vertex 34 35 9.9
      vertex 24 39 9.9
      vertex 24 35 9.9
    endloop
  endfacet
  facet normal 0 0 1
    outer loop
      vertex 53 33 9.9
      vertex 34 35 9.9
      vertex 34 33 9.9
    endloop
  endfacet
  facet normal 1 -0 0
    outer loop
      vertex 23.75 21 9.9
      vertex 23.75 35 5.5
      vertex 23.75 35 9.9
    endloop
  endfacet
  facet normal 1 0 0
    outer loop
      vertex 23.75 35 5.5
      vertex 23.75 21 9.9
      vertex 23.75 21 5.5
    endloop
  endfacet
  facet normal 1 -0 0
    outer loop
      vertex 30 25 9.9
      vertex 30 33 6.9
      vertex 30 33 9.9
    endloop
  endfacet
  facet normal 1 0 0
    outer loop
      vertex 30 33 6.9
      vertex 30 25 9.9
      vertex 30 25 6.9
    endloop
  endfacet
  facet normal 0 0 -1
    outer loop
      vertex 30 25 6.9
      vertex 24 25 6.9
      vertex 30 33 6.9
    endloop
  endfacet
  facet normal 0 0 -1
    outer loop
      vertex 30.25 33 6.9
      vertex 30 33 6.9
      vertex 30.25 35 6.9
    endloop
  endfacet
  facet normal 0 0 -1
    outer loop
      vertex 34 35 6.9
      vertex 47 33 6.9
      vertex 34 33 6.9
    endloop
  endfacet
  facet normal 0 0 -1
    outer loop
      vertex 47 33 6.9
      vertex 34 35 6.9
      vertex 47 39 6.9
    endloop
  endfacet
  facet normal 0 0 -1
    outer loop
      vertex 24 39 6.9
      vertex 34 35 6.9
      vertex 30.25 35 6.9
    endloop
  endfacet
  facet normal 0 0 -1
    outer loop
      vertex 24 39 6.9
      vertex 30 33 6.9
      vertex 24 25 6.9
    endloop
  endfacet
  facet normal 0 0 -1
    outer loop
      vertex 34 35 6.9
      vertex 24 39 6.9
      vertex 47 39 6.9
    endloop
  endfacet
  facet normal 0 0 -1
    outer loop
      vertex 30 33 6.9
      vertex 24 39 6.9
      vertex 30.25 35 6.9
    endloop
  endfacet
  facet normal -1 0 0
    outer loop
      vertex 24 39 6.9
      vertex 24 35 9.9
      vertex 24 39 9.9
    endloop
  endfacet
  facet normal -1 0 0
    outer loop
      vertex 24 25 6.9
      vertex 24 35 9.9
      vertex 24 39 6.9
    endloop
  endfacet
  facet normal -1 -0 0
    outer loop
      vertex 24 35 9.9
      vertex 24 25 6.9
      vertex 24 25 9.9
    endloop
  endfacet
  facet normal 0 1 0
    outer loop
      vertex 112 39 5.5
      vertex 112 39 2.5
      vertex 53 39 5.5
    endloop
  endfacet
  facet normal 0 1 0
    outer loop
      vertex 53 39 9.9
      vertex 47 39 6.9
      vertex 24 39 9.9
    endloop
  endfacet
  facet normal 0 1 -0
    outer loop
      vertex 53 39 5.5
      vertex 47 39 6.9
      vertex 53 39 9.9
    endloop
  endfacet
  facet normal 0 1 0
    outer loop
      vertex 53 39 5.5
      vertex 47 39 2.5
      vertex 47 39 6.9
    endloop
  endfacet
  facet normal 0 1 0
    outer loop
      vertex 47 39 2.5
      vertex 53 39 5.5
      vertex 112 39 2.5
    endloop
  endfacet
  facet normal 0 1 0
    outer loop
      vertex 24 39 9.9
      vertex 47 39 6.9
      vertex 24 39 6.9
    endloop
  endfacet
  facet normal 0 -1 0
    outer loop
      vertex 24 25 6.9
      vertex 30 25 9.9
      vertex 24 25 9.9
    endloop
  endfacet
  facet normal 0 -1 -0
    outer loop
      vertex 30 25 9.9
      vertex 24 25 6.9
      vertex 30 25 6.9
    endloop
  endfacet
  facet normal 0 -1 0
    outer loop
      vertex 47 33 6.9
      vertex 34 33 9.9
      vertex 34 33 6.9
    endloop
  endfacet
  facet normal 0 -1 0
    outer loop
      vertex 34 33 9.9
      vertex 47 33 6.9
      vertex 53 33 9.9
    endloop
  endfacet
  facet normal 0 -1 0
    outer loop
      vertex 47 33 6.9
      vertex 53 33 5.5
      vertex 53 33 9.9
    endloop
  endfacet
  facet normal 0 -1 0
    outer loop
      vertex 47 33 2.5
      vertex 53 33 5.5
      vertex 47 33 6.9
    endloop
  endfacet
  facet normal 0 -1 0
    outer loop
      vertex 118 33 2.5
      vertex 53 33 5.5
      vertex 47 33 2.5
    endloop
  endfacet
  facet normal 0 -1 0
    outer loop
      vertex 53 33 5.5
      vertex 118 33 2.5
      vertex 118 33 5.5
    endloop
  endfacet
  facet normal 0 -1 0
    outer loop
      vertex 30 33 6.9
      vertex 30.25 33 9.9
      vertex 30 33 9.9
    endloop
  endfacet
  facet normal 0 -1 -0
    outer loop
      vertex 30.25 33 9.9
      vertex 30 33 6.9
      vertex 30.25 33 6.9
    endloop
  endfacet
  facet normal 1 -0 0
    outer loop
      vertex 53 33 9.9
      vertex 53 39 5.5
      vertex 53 39 9.9
    endloop
  endfacet
  facet normal 1 0 0
    outer loop
      vertex 53 39 5.5
      vertex 53 33 9.9
      vertex 53 33 5.5
    endloop
  endfacet
  facet normal 0 0 -1
    outer loop
      vertex 118 33 2.5
      vertex 112 39 2.5
      vertex 118 41 2.5
    endloop
  endfacet
  facet normal 0 0 -1
    outer loop
      vertex 47 33 2.5
      vertex 112 39 2.5
      vertex 118 33 2.5
    endloop
  endfacet
  facet normal -0 0 -1
    outer loop
      vertex 112 39 2.5
      vertex 47 33 2.5
      vertex 47 39 2.5
    endloop
  endfacet
  facet normal 0 0 -1
    outer loop
      vertex 150 41 2.5
      vertex 120 47 2.5
      vertex 150 59 2.5
    endloop
  endfacet
  facet normal 0 0 -1
    outer loop
      vertex 118 41 2.5
      vertex 120 47 2.5
      vertex 150 41 2.5
    endloop
  endfacet
  facet normal 0 0 -1
    outer loop
      vertex 112 47 2.5
      vertex 118 41 2.5
      vertex 112 39 2.5
    endloop
  endfacet
  facet normal 0 0 -1
    outer loop
      vertex 118 41 2.5
      vertex 112 47 2.5
      vertex 120 47 2.5
    endloop
  endfacet
  facet normal -0 0 -1
    outer loop
      vertex 150 59 2.5
      vertex 120 47 2.5
      vertex 120 59 2.5
    endloop
  endfacet
  facet normal -1 0 0
    outer loop
      vertex 47 33 2.5
      vertex 47 39 6.9
      vertex 47 39 2.5
    endloop
  endfacet
  facet normal -1 -0 0
    outer loop
      vertex 47 39 6.9
      vertex 47 33 2.5
      vertex 47 33 6.9
    endloop
  endfacet
  facet normal 0 0 1
    outer loop
      vertex 120.6 47 5.5
      vertex 118 41 5.5
      vertex 120.6 41 5.5
    endloop
  endfacet
  facet normal -0 0 1
    outer loop
      vertex 112 47 5.5
      vertex 118 41 5.5
      vertex 120.6 47 5.5
    endloop
  endfacet
  facet normal 0 0 1
    outer loop
      vertex 112 39 5.5
      vertex 118 41 5.5
      vertex 112 47 5.5
    endloop
  endfacet
  facet normal 0 0 1
    outer loop
      vertex 118 41 5.5
      vertex 112 39 5.5
      vertex 118 33 5.5
    endloop
  endfacet
  facet normal 0 0 1
    outer loop
      vertex 53 33 5.5
      vertex 112 39 5.5
      vertex 53 39 5.5
    endloop
  endfacet
  facet normal 0 0 1
    outer loop
      vertex 112 39 5.5
      vertex 53 33 5.5
      vertex 118 33 5.5
    endloop
  endfacet
  facet normal -0 0 1
    outer loop
      vertex 121.4 47 5.5
      vertex 122.6 41 5.5
      vertex 122.6 47 5.5
    endloop
  endfacet
  facet normal 0 0 1
    outer loop
      vertex 122.6 41 5.5
      vertex 121.4 47 5.5
      vertex 121.4 41 5.5
    endloop
  endfacet
  facet normal -0 0 1
    outer loop
      vertex 123.4 47 5.5
      vertex 124.6 41 5.5
      vertex 124.6 47 5.5
    endloop
  endfacet
  facet normal 0 0 1
    outer loop
      vertex 124.6 41 5.5
      vertex 123.4 47 5.5
      vertex 123.4 41 5.5
    endloop
  endfacet
  facet normal -0 0 1
    outer loop
      vertex 125.4 47 5.5
      vertex 126.6 41 5.5
      vertex 126.6 47 5.5
    endloop
  endfacet
  facet normal 0 0 1
    outer loop
      vertex 126.6 41 5.5
      vertex 125.4 47 5.5
      vertex 125.4 41 5.5
    endloop
  endfacet
  facet normal -0 0 1
    outer loop
      vertex 127.4 47 5.5
      vertex 128.6 41 5.5
      vertex 128.6 47 5.5
    endloop
  endfacet
  facet normal 0 0 1
    outer loop
      vertex 128.6 41 5.5
      vertex 127.4 47 5.5
      vertex 127.4 41 5.5
    endloop
  endfacet
  facet normal -0 0 1
    outer loop
      vertex 129.4 47 5.5
      vertex 130.6 41 5.5
      vertex 130.6 47 5.5
    endloop
  endfacet
  facet normal 0 0 1
    outer loop
      vertex 130.6 41 5.5
      vertex 129.4 47 5.5
      vertex 129.4 41 5.5
    endloop
  endfacet
  facet normal -0 0 1
    outer loop
      vertex 131.4 47 5.5
      vertex 132.6 41 5.5
      vertex 132.6 47 5.5
    endloop
  endfacet
  facet normal 0 0 1
    outer loop
      vertex 132.6 41 5.5
      vertex 131.4 47 5.5
      vertex 131.4 41 5.5
    endloop
  endfacet
  facet normal -0 0 1
    outer loop
      vertex 133.4 47 5.5
      vertex 134.6 41 5.5
      vertex 134.6 47 5.5
    endloop
  endfacet
  facet normal 0 0 1
    outer loop
      vertex 134.6 41 5.5
      vertex 133.4 47 5.5
      vertex 133.4 41 5.5
    endloop
  endfacet
  facet normal 1 -0 0
    outer loop
      vertex 118 33 5.5
      vertex 118 41 2.5
      vertex 118 41 5.5
    endloop
  endfacet
  facet normal 1 0 0
    outer loop
      vertex 118 41 2.5
      vertex 118 33 5.5
      vertex 118 33 2.5
    endloop
  endfacet
  facet normal -1 0 0
    outer loop
      vertex 112 39 2.5
      vertex 112 47 5.5
      vertex 112 47 2.5
    endloop
  endfacet
  facet normal -1 -0 0
    outer loop
      vertex 112 47 5.5
      vertex 112 39 2.5
      vertex 112 39 5.5
    endloop
  endfacet
  facet normal 0 1 0
    outer loop
      vertex 120 47 4
      vertex 120.6 47 5.5
      vertex 120.6 47 4
    endloop
  endfacet
  facet normal 0 1 0
    outer loop
      vertex 120.6 47 5.5
      vertex 120 47 4
      vertex 112 47 5.5
    endloop
  endfacet
  facet normal 0 1 0
    outer loop
      vertex 112 47 2.5
      vertex 120 47 4
      vertex 120 47 2.5
    endloop
  endfacet
  facet normal 0 1 0
    outer loop
      vertex 120 47 4
      vertex 112 47 2.5
      vertex 112 47 5.5
    endloop
  endfacet
  facet normal 0 1 -0
    outer loop
      vertex 122.6 47 4
      vertex 121.4 47 5.5
      vertex 122.6 47 5.5
    endloop
  endfacet
  facet normal 0 1 0
    outer loop
      vertex 121.4 47 5.5
      vertex 122.6 47 4
      vertex 121.4 47 4
    endloop
  endfacet
  facet normal 0 1 -0
    outer loop
      vertex 124.6 47 4
      vertex 123.4 47 5.5
      vertex 124.6 47 5.5
    endloop
  endfacet
  facet normal 0 1 0
    outer loop
      vertex 123.4 47 5.5
      vertex 124.6 47 4
      vertex 123.4 47 4
    endloop
  endfacet
  facet normal 0 1 -0
    outer loop
      vertex 126.6 47 4
      vertex 125.4 47 5.5
      vertex 126.6 47 5.5
    endloop
  endfacet
  facet normal 0 1 0
    outer loop
      vertex 125.4 47 5.5
      vertex 126.6 47 4
      vertex 125.4 47 4
    endloop
  endfacet
  facet normal 0 1 -0
    outer loop
      vertex 128.6 47 4
      vertex 127.4 47 5.5
      vertex 128.6 47 5.5
    endloop
  endfacet
  facet normal 0 1 0
    outer loop
      vertex 127.4 47 5.5
      vertex 128.6 47 4
      vertex 127.4 47 4
    endloop
  endfacet
  facet normal 0 1 -0
    outer loop
      vertex 130.6 47 4
      vertex 129.4 47 5.5
      vertex 130.6 47 5.5
    endloop
  endfacet
  facet normal 0 1 0
    outer loop
      vertex 129.4 47 5.5
      vertex 130.6 47 4
      vertex 129.4 47 4
    endloop
  endfacet
  facet normal 0 1 -0
    outer loop
      vertex 132.6 47 4
      vertex 131.4 47 5.5
      vertex 132.6 47 5.5
    endloop
  endfacet
  facet normal 0 1 0
    outer loop
      vertex 131.4 47 5.5
      vertex 132.6 47 4
      vertex 131.4 47 4
    endloop
  endfacet
  facet normal 0 1 -0
    outer loop
      vertex 134.6 47 4
      vertex 133.4 47 5.5
      vertex 134.6 47 5.5
    endloop
  endfacet
  facet normal 0 1 0
    outer loop
      vertex 133.4 47 5.5
      vertex 134.6 47 4
      vertex 133.4 47 4
    endloop
  endfacet
  facet normal 0 -1 0
    outer loop
      vertex 118 41 2.5
      vertex 120.6 41 5.5
      vertex 118 41 5.5
    endloop
  endfacet
  facet normal 0 -1 -0
    outer loop
      vertex 120.6 41 5.5
      vertex 118 41 2.5
      vertex 121.4 41 5.5
    endloop
  endfacet
  facet normal 0 -1 -0
    outer loop
      vertex 121.4 41 5.5
      vertex 118 41 2.5
      vertex 122.6 41 5.5
    endloop
  endfacet
  facet normal 0 -1 -0
    outer loop
      vertex 122.6 41 5.5
      vertex 118 41 2.5
      vertex 123.4 41 5.5
    endloop
  endfacet
  facet normal 0 -1 -0
    outer loop
      vertex 123.4 41 5.5
      vertex 118 41 2.5
      vertex 124.6 41 5.5
    endloop
  endfacet
  facet normal 0 -1 -0
    outer loop
      vertex 124.6 41 5.5
      vertex 118 41 2.5
      vertex 125.4 41 5.5
    endloop
  endfacet
  facet normal 0 -1 -0
    outer loop
      vertex 125.4 41 5.5
      vertex 118 41 2.5
      vertex 126.6 41 5.5
    endloop
  endfacet
  facet normal 0 -1 -0
    outer loop
      vertex 126.6 41 5.5
      vertex 118 41 2.5
      vertex 127.4 41 5.5
    endloop
  endfacet
  facet normal 0 -1 -0
    outer loop
      vertex 127.4 41 5.5
      vertex 118 41 2.5
      vertex 128.6 41 5.5
    endloop
  endfacet
  facet normal -0 -1 0
    outer loop
      vertex 135.4 41 4
      vertex 128.6 41 5.5
      vertex 118 41 2.5
    endloop
  endfacet
  facet normal 0 -1 0
    outer loop
      vertex 128.6 41 5.5
      vertex 135.4 41 4
      vertex 129.4 41 5.5
    endloop
  endfacet
  facet normal 0 -1 0
    outer loop
      vertex 129.4 41 5.5
      vertex 135.4 41 4
      vertex 130.6 41 5.5
    endloop
  endfacet
  facet normal 0 -1 0
    outer loop
      vertex 130.6 41 5.5
      vertex 135.4 41 4
      vertex 131.4 41 5.5
    endloop
  endfacet
  facet normal 0 -1 0
    outer loop
      vertex 131.4 41 5.5
      vertex 135.4 41 4
      vertex 132.6 41 5.5
    endloop
  endfacet
  facet normal 0 -1 0
    outer loop
      vertex 132.6 41 5.5
      vertex 135.4 41 4
      vertex 133.4 41 5.5
    endloop
  endfacet
  facet normal 0 -1 0
    outer loop
      vertex 150 41 2.5
      vertex 136.6 41 4
      vertex 135.4 41 4
    endloop
  endfacet
  facet normal 0 -1 0
    outer loop
      vertex 136.6 41 4
      vertex 150 41 2.5
      vertex 137.4 41 4
    endloop
  endfacet
  facet normal 0 -1 0
    outer loop
      vertex 137.4 41 4
      vertex 150 41 2.5
      vertex 138.6 41 4
    endloop
  endfacet
  facet normal 0 -1 0
    outer loop
      vertex 138.6 41 4
      vertex 150 41 2.5
      vertex 139.4 41 4
    endloop
  endfacet
  facet normal 0 -1 0
    outer loop
      vertex 139.4 41 4
      vertex 150 41 2.5
      vertex 140.6 41 4
    endloop
  endfacet
  facet normal 0 -1 0
    outer loop
      vertex 140.6 41 4
      vertex 150 41 2.5
      vertex 141.4 41 4
    endloop
  endfacet
  facet normal 0 -1 0
    outer loop
      vertex 141.4 41 4
      vertex 150 41 2.5
      vertex 142.6 41 4
    endloop
  endfacet
  facet normal 0 -1 0
    outer loop
      vertex 142.6 41 4
      vertex 150 41 2.5
      vertex 143.4 41 4
    endloop
  endfacet
  facet normal 0 -1 0
    outer loop
      vertex 143.4 41 4
      vertex 150 41 2.5
      vertex 144.6 41 4
    endloop
  endfacet
  facet normal 0 -1 0
    outer loop
      vertex 144.6 41 4
      vertex 150 41 2.5
      vertex 145.4 41 4
    endloop
  endfacet
  facet normal 0 -1 0
    outer loop
      vertex 145.4 41 4
      vertex 150 41 2.5
      vertex 146.6 41 4
    endloop
  endfacet
  facet normal 0 -1 0
    outer loop
      vertex 146.6 41 4
      vertex 150 41 2.5
      vertex 147.4 41 4
    endloop
  endfacet
  facet normal 0 -1 0
    outer loop
      vertex 147.4 41 4
      vertex 150 41 2.5
      vertex 148.6 41 4
    endloop
  endfacet
  facet normal 0 -1 0
    outer loop
      vertex 148.6 41 4
      vertex 150 41 2.5
      vertex 149.4 41 4
    endloop
  endfacet
  facet normal 0 -1 0
    outer loop
      vertex 133.4 41 5.5
      vertex 135.4 41 4
      vertex 134.6 41 5.5
    endloop
  endfacet
  facet normal 0 -1 0
    outer loop
      vertex 150 41 2.5
      vertex 135.4 41 4
      vertex 118 41 2.5
    endloop
  endfacet
  facet normal 0 -1 0
    outer loop
      vertex 149.4 41 4
      vertex 150 41 2.5
      vertex 150 41 4
    endloop
  endfacet
  facet normal 0 -1 0
    outer loop
      vertex 120.6 41 5.5
      vertex 121.4 41 10.5
      vertex 120.6 41 10.5
    endloop
  endfacet
  facet normal 0 -1 -0
    outer loop
      vertex 121.4 41 10.5
      vertex 120.6 41 5.5
      vertex 121.4 41 5.5
    endloop
  endfacet
  facet normal 0 -1 0
    outer loop
      vertex 122.6 41 5.5
      vertex 123.4 41 10.5
      vertex 122.6 41 10.5
    endloop
  endfacet
  facet normal 0 -1 -0
    outer loop
      vertex 123.4 41 10.5
      vertex 122.6 41 5.5
      vertex 123.4 41 5.5
    endloop
  endfacet
  facet normal 0 -1 0
    outer loop
      vertex 124.6 41 5.5
      vertex 125.4 41 10.5
      vertex 124.6 41 10.5
    endloop
  endfacet
  facet normal 0 -1 -0
    outer loop
      vertex 125.4 41 10.5
      vertex 124.6 41 5.5
      vertex 125.4 41 5.5
    endloop
  endfacet
  facet normal 0 -1 0
    outer loop
      vertex 126.6 41 5.5
      vertex 127.4 41 10.5
      vertex 126.6 41 10.5
    endloop
  endfacet
  facet normal 0 -1 -0
    outer loop
      vertex 127.4 41 10.5
      vertex 126.6 41 5.5
      vertex 127.4 41 5.5
    endloop
  endfacet
  facet normal 0 -1 0
    outer loop
      vertex 128.6 41 5.5
      vertex 129.4 41 10.5
      vertex 128.6 41 10.5
    endloop
  endfacet
  facet normal 0 -1 -0
    outer loop
      vertex 129.4 41 10.5
      vertex 128.6 41 5.5
      vertex 129.4 41 5.5
    endloop
  endfacet
  facet normal 0 -1 0
    outer loop
      vertex 130.6 41 5.5
      vertex 131.4 41 10.5
      vertex 130.6 41 10.5
    endloop
  endfacet
  facet normal 0 -1 -0
    outer loop
      vertex 131.4 41 10.5
      vertex 130.6 41 5.5
      vertex 131.4 41 5.5
    endloop
  endfacet
  facet normal 0 -1 0
    outer loop
      vertex 132.6 41 5.5
      vertex 133.4 41 10.5
      vertex 132.6 41 10.5
    endloop
  endfacet
  facet normal 0 -1 -0
    outer loop
      vertex 133.4 41 10.5
      vertex 132.6 41 5.5
      vertex 133.4 41 5.5
    endloop
  endfacet
  facet normal 0 -1 0
    outer loop
      vertex 134.6 41 5.5
      vertex 135.4 41 10.5
      vertex 134.6 41 10.5
    endloop
  endfacet
  facet normal 0 -1 -0
    outer loop
      vertex 135.4 41 10.5
      vertex 134.6 41 5.5
      vertex 135.4 41 4
    endloop
  endfacet
  facet normal 0 -1 0
    outer loop
      vertex 136.6 41 4
      vertex 137.4 41 10.5
      vertex 136.6 41 10.5
    endloop
  endfacet
  facet normal 0 -1 -0
    outer loop
      vertex 137.4 41 10.5
      vertex 136.6 41 4
      vertex 137.4 41 4
    endloop
  endfacet
  facet normal 0 -1 0
    outer loop
      vertex 138.6 41 4
      vertex 139.4 41 10.5
      vertex 138.6 41 10.5
    endloop
  endfacet
  facet normal 0 -1 -0
    outer loop
      vertex 139.4 41 10.5
      vertex 138.6 41 4
      vertex 139.4 41 4
    endloop
  endfacet
  facet normal 0 -1 0
    outer loop
      vertex 140.6 41 4
      vertex 141.4 41 10.5
      vertex 140.6 41 10.5
    endloop
  endfacet
  facet normal 0 -1 -0
    outer loop
      vertex 141.4 41 10.5
      vertex 140.6 41 4
      vertex 141.4 41 4
    endloop
  endfacet
  facet normal 0 -1 0
    outer loop
      vertex 142.6 41 4
      vertex 143.4 41 10.5
      vertex 142.6 41 10.5
    endloop
  endfacet
  facet normal 0 -1 -0
    outer loop
      vertex 143.4 41 10.5
      vertex 142.6 41 4
      vertex 143.4 41 4
    endloop
  endfacet
  facet normal 0 -1 0
    outer loop
      vertex 144.6 41 4
      vertex 145.4 41 10.5
      vertex 144.6 41 10.5
    endloop
  endfacet
  facet normal 0 -1 -0
    outer loop
      vertex 145.4 41 10.5
      vertex 144.6 41 4
      vertex 145.4 41 4
    endloop
  endfacet
  facet normal 0 -1 0
    outer loop
      vertex 146.6 41 4
      vertex 147.4 41 10.5
      vertex 146.6 41 10.5
    endloop
  endfacet
  facet normal 0 -1 -0
    outer loop
      vertex 147.4 41 10.5
      vertex 146.6 41 4
      vertex 147.4 41 4
    endloop
  endfacet
  facet normal 0 -1 0
    outer loop
      vertex 148.6 41 4
      vertex 149.4 41 10.5
      vertex 148.6 41 10.5
    endloop
  endfacet
  facet normal 0 -1 -0
    outer loop
      vertex 149.4 41 10.5
      vertex 148.6 41 4
      vertex 149.4 41 4
    endloop
  endfacet
  facet normal 1 -0 0
    outer loop
      vertex 150 41 4
      vertex 150 59 2.5
      vertex 150 59 4
    endloop
  endfacet
  facet normal 1 0 0
    outer loop
      vertex 150 59 2.5
      vertex 150 41 4
      vertex 150 41 2.5
    endloop
  endfacet
  facet normal -0 0 1
    outer loop
      vertex 120 59 4
      vertex 120.6 47 4
      vertex 120.6 59 4
    endloop
  endfacet
  facet normal 0 0 1
    outer loop
      vertex 120.6 47 4
      vertex 120 59 4
      vertex 120 47 4
    endloop
  endfacet
  facet normal -0 0 1
    outer loop
      vertex 149.4 59 4
      vertex 150 41 4
      vertex 150 59 4
    endloop
  endfacet
  facet normal 0 0 1
    outer loop
      vertex 150 41 4
      vertex 149.4 59 4
      vertex 149.4 41 4
    endloop
  endfacet
  facet normal -0 0 1
    outer loop
      vertex 135.4 59 4
      vertex 136.6 41 4
      vertex 136.6 59 4
    endloop
  endfacet
  facet normal 0 0 1
    outer loop
      vertex 136.6 41 4
      vertex 135.4 59 4
      vertex 135.4 41 4
    endloop
  endfacet
  facet normal -0 0 1
    outer loop
      vertex 133.4 59 4
      vertex 134.6 47 4
      vertex 134.6 59 4
    endloop
  endfacet
  facet normal 0 0 1
    outer loop
      vertex 134.6 47 4
      vertex 133.4 59 4
      vertex 133.4 47 4
    endloop
  endfacet
  facet normal -0 0 1
    outer loop
      vertex 121.4 59 4
      vertex 122.6 47 4
      vertex 122.6 59 4
    endloop
  endfacet
  facet normal 0 0 1
    outer loop
      vertex 122.6 47 4
      vertex 121.4 59 4
      vertex 121.4 47 4
    endloop
  endfacet
  facet normal -0 0 1
    outer loop
      vertex 125.4 59 4
      vertex 126.6 47 4
      vertex 126.6 59 4
    endloop
  endfacet
  facet normal 0 0 1
    outer loop
      vertex 126.6 47 4
      vertex 125.4 59 4
      vertex 125.4 47 4
    endloop
  endfacet
  facet normal -0 0 1
    outer loop
      vertex 123.4 59 4
      vertex 124.6 47 4
      vertex 124.6 59 4
    endloop
  endfacet
  facet normal 0 0 1
    outer loop
      vertex 124.6 47 4
      vertex 123.4 59 4
      vertex 123.4 47 4
    endloop
  endfacet
  facet normal -0 0 1
    outer loop
      vertex 127.4 59 4
      vertex 128.6 47 4
      vertex 128.6 59 4
    endloop
  endfacet
  facet normal 0 0 1
    outer loop
      vertex 128.6 47 4
      vertex 127.4 59 4
      vertex 127.4 47 4
    endloop
  endfacet
  facet normal -0 0 1
    outer loop
      vertex 137.4 59 4
      vertex 138.6 41 4
      vertex 138.6 59 4
    endloop
  endfacet
  facet normal 0 0 1
    outer loop
      vertex 138.6 41 4
      vertex 137.4 59 4
      vertex 137.4 41 4
    endloop
  endfacet
  facet normal -0 0 1
    outer loop
      vertex 143.4 59 4
      vertex 144.6 41 4
      vertex 144.6 59 4
    endloop
  endfacet
  facet normal 0 0 1
    outer loop
      vertex 144.6 41 4
      vertex 143.4 59 4
      vertex 143.4 41 4
    endloop
  endfacet
  facet normal -0 0 1
    outer loop
      vertex 141.4 59 4
      vertex 142.6 41 4
      vertex 142.6 59 4
    endloop
  endfacet
  facet normal 0 0 1
    outer loop
      vertex 142.6 41 4
      vertex 141.4 59 4
      vertex 141.4 41 4
    endloop
  endfacet
  facet normal -0 0 1
    outer loop
      vertex 145.4 59 4
      vertex 146.6 41 4
      vertex 146.6 59 4
    endloop
  endfacet
  facet normal 0 0 1
    outer loop
      vertex 146.6 41 4
      vertex 145.4 59 4
      vertex 145.4 41 4
    endloop
  endfacet
  facet normal -0 0 1
    outer loop
      vertex 147.4 59 4
      vertex 148.6 41 4
      vertex 148.6 59 4
    endloop
  endfacet
  facet normal 0 0 1
    outer loop
      vertex 148.6 41 4
      vertex 147.4 59 4
      vertex 147.4 41 4
    endloop
  endfacet
  facet normal -0 0 1
    outer loop
      vertex 131.4 59 4
      vertex 132.6 47 4
      vertex 132.6 59 4
    endloop
  endfacet
  facet normal 0 0 1
    outer loop
      vertex 132.6 47 4
      vertex 131.4 59 4
      vertex 131.4 47 4
    endloop
  endfacet
  facet normal -0 0 1
    outer loop
      vertex 129.4 59 4
      vertex 130.6 47 4
      vertex 130.6 59 4
    endloop
  endfacet
  facet normal 0 0 1
    outer loop
      vertex 130.6 47 4
      vertex 129.4 59 4
      vertex 129.4 47 4
    endloop
  endfacet
  facet normal -0 0 1
    outer loop
      vertex 139.4 59 4
      vertex 140.6 41 4
      vertex 140.6 59 4
    endloop
  endfacet
  facet normal 0 0 1
    outer loop
      vertex 140.6 41 4
      vertex 139.4 59 4
      vertex 139.4 41 4
    endloop
  endfacet
  facet normal -1 0 0
    outer loop
      vertex 120 47 2.5
      vertex 120 59 4
      vertex 120 59 2.5
    endloop
  endfacet
  facet normal -1 -0 0
    outer loop
      vertex 120 59 4
      vertex 120 47 2.5
      vertex 120 47 4
    endloop
  endfacet
  facet normal 0 1 -0
    outer loop
      vertex 150 59 2.5
      vertex 149.4 59 4
      vertex 150 59 4
    endloop
  endfacet
  facet normal 0 1 0
    outer loop
      vertex 149.4 59 4
      vertex 150 59 2.5
      vertex 148.6 59 4
    endloop
  endfacet
  facet normal 0 1 0
    outer loop
      vertex 148.6 59 4
      vertex 150 59 2.5
      vertex 147.4 59 4
    endloop
  endfacet
  facet normal 0 1 0
    outer loop
      vertex 147.4 59 4
      vertex 150 59 2.5
      vertex 146.6 59 4
    endloop
  endfacet
  facet normal 0 1 0
    outer loop
      vertex 146.6 59 4
      vertex 150 59 2.5
      vertex 145.4 59 4
    endloop
  endfacet
  facet normal 0 1 0
    outer loop
      vertex 145.4 59 4
      vertex 150 59 2.5
      vertex 144.6 59 4
    endloop
  endfacet
  facet normal 0 1 0
    outer loop
      vertex 144.6 59 4
      vertex 150 59 2.5
      vertex 143.4 59 4
    endloop
  endfacet
  facet normal 0 1 0
    outer loop
      vertex 143.4 59 4
      vertex 150 59 2.5
      vertex 142.6 59 4
    endloop
  endfacet
  facet normal 0 1 0
    outer loop
      vertex 142.6 59 4
      vertex 150 59 2.5
      vertex 141.4 59 4
    endloop
  endfacet
  facet normal 0 1 0
    outer loop
      vertex 141.4 59 4
      vertex 150 59 2.5
      vertex 140.6 59 4
    endloop
  endfacet
  facet normal 0 1 0
    outer loop
      vertex 140.6 59 4
      vertex 150 59 2.5
      vertex 139.4 59 4
    endloop
  endfacet
  facet normal 0 1 0
    outer loop
      vertex 139.4 59 4
      vertex 150 59 2.5
      vertex 138.6 59 4
    endloop
  endfacet
  facet normal 0 1 0
    outer loop
      vertex 138.6 59 4
      vertex 150 59 2.5
      vertex 137.4 59 4
    endloop
  endfacet
  facet normal 0 1 0
    outer loop
      vertex 137.4 59 4
      vertex 150 59 2.5
      vertex 136.6 59 4
    endloop
  endfacet
  facet normal 0 1 0
    outer loop
      vertex 136.6 59 4
      vertex 150 59 2.5
      vertex 135.4 59 4
    endloop
  endfacet
  facet normal 0 1 0
    outer loop
      vertex 135.4 59 4
      vertex 150 59 2.5
      vertex 134.6 59 4
    endloop
  endfacet
  facet normal 0 1 0
    outer loop
      vertex 120 59 2.5
      vertex 134.6 59 4
      vertex 150 59 2.5
    endloop
  endfacet
  facet normal 0 1 0
    outer loop
      vertex 134.6 59 4
      vertex 120 59 2.5
      vertex 133.4 59 4
    endloop
  endfacet
  facet normal 0 1 0
    outer loop
      vertex 133.4 59 4
      vertex 120 59 2.5
      vertex 132.6 59 4
    endloop
  endfacet
  facet normal 0 1 0
    outer loop
      vertex 132.6 59 4
      vertex 120 59 2.5
      vertex 131.4 59 4
    endloop
  endfacet
  facet normal 0 1 0
    outer loop
      vertex 131.4 59 4
      vertex 120 59 2.5
      vertex 130.6 59 4
    endloop
  endfacet
  facet normal 0 1 0
    outer loop
      vertex 130.6 59 4
      vertex 120 59 2.5
      vertex 129.4 59 4
    endloop
  endfacet
  facet normal 0 1 0
    outer loop
      vertex 129.4 59 4
      vertex 120 59 2.5
      vertex 128.6 59 4
    endloop
  endfacet
  facet normal 0 1 0
    outer loop
      vertex 128.6 59 4
      vertex 120 59 2.5
      vertex 127.4 59 4
    endloop
  endfacet
  facet normal 0 1 0
    outer loop
      vertex 127.4 59 4
      vertex 120 59 2.5
      vertex 126.6 59 4
    endloop
  endfacet
  facet normal 0 1 0
    outer loop
      vertex 126.6 59 4
      vertex 120 59 2.5
      vertex 125.4 59 4
    endloop
  endfacet
  facet normal 0 1 0
    outer loop
      vertex 125.4 59 4
      vertex 120 59 2.5
      vertex 124.6 59 4
    endloop
  endfacet
  facet normal 0 1 0
    outer loop
      vertex 124.6 59 4
      vertex 120 59 2.5
      vertex 123.4 59 4
    endloop
  endfacet
  facet normal 0 1 0
    outer loop
      vertex 123.4 59 4
      vertex 120 59 2.5
      vertex 122.6 59 4
    endloop
  endfacet
  facet normal 0 1 0
    outer loop
      vertex 122.6 59 4
      vertex 120 59 2.5
      vertex 121.4 59 4
    endloop
  endfacet
  facet normal 0 1 0
    outer loop
      vertex 121.4 59 4
      vertex 120 59 2.5
      vertex 120.6 59 4
    endloop
  endfacet
  facet normal 0 1 0
    outer loop
      vertex 120.6 59 4
      vertex 120 59 2.5
      vertex 120 59 4
    endloop
  endfacet
  facet normal 0 1 -0
    outer loop
      vertex 149.4 59 4
      vertex 148.6 59 10.5
      vertex 149.4 59 10.5
    endloop
  endfacet
  facet normal 0 1 0
    outer loop
      vertex 148.6 59 10.5
      vertex 149.4 59 4
      vertex 148.6 59 4
    endloop
  endfacet
  facet normal 0 1 -0
    outer loop
      vertex 147.4 59 4
      vertex 146.6 59 10.5
      vertex 147.4 59 10.5
    endloop
  endfacet
  facet normal 0 1 0
    outer loop
      vertex 146.6 59 10.5
      vertex 147.4 59 4
      vertex 146.6 59 4
    endloop
  endfacet
  facet normal 0 1 -0
    outer loop
      vertex 145.4 59 4
      vertex 144.6 59 10.5
      vertex 145.4 59 10.5
    endloop
  endfacet
  facet normal 0 1 0
    outer loop
      vertex 144.6 59 10.5
      vertex 145.4 59 4
      vertex 144.6 59 4
    endloop
  endfacet
  facet normal 0 1 -0
    outer loop
      vertex 143.4 59 4
      vertex 142.6 59 10.5
      vertex 143.4 59 10.5
    endloop
  endfacet
  facet normal 0 1 0
    outer loop
      vertex 142.6 59 10.5
      vertex 143.4 59 4
      vertex 142.6 59 4
    endloop
  endfacet
  facet normal 0 1 -0
    outer loop
      vertex 141.4 59 4
      vertex 140.6 59 10.5
      vertex 141.4 59 10.5
    endloop
  endfacet
  facet normal 0 1 0
    outer loop
      vertex 140.6 59 10.5
      vertex 141.4 59 4
      vertex 140.6 59 4
    endloop
  endfacet
  facet normal 0 1 -0
    outer loop
      vertex 139.4 59 4
      vertex 138.6 59 10.5
      vertex 139.4 59 10.5
    endloop
  endfacet
  facet normal 0 1 0
    outer loop
      vertex 138.6 59 10.5
      vertex 139.4 59 4
      vertex 138.6 59 4
    endloop
  endfacet
  facet normal 0 1 -0
    outer loop
      vertex 137.4 59 4
      vertex 136.6 59 10.5
      vertex 137.4 59 10.5
    endloop
  endfacet
  facet normal 0 1 0
    outer loop
      vertex 136.6 59 10.5
      vertex 137.4 59 4
      vertex 136.6 59 4
    endloop
  endfacet
  facet normal 0 1 -0
    outer loop
      vertex 135.4 59 4
      vertex 134.6 59 10.5
      vertex 135.4 59 10.5
    endloop
  endfacet
  facet normal 0 1 0
    outer loop
      vertex 134.6 59 10.5
      vertex 135.4 59 4
      vertex 134.6 59 4
    endloop
  endfacet
  facet normal 0 1 -0
    outer loop
      vertex 133.4 59 4
      vertex 132.6 59 10.5
      vertex 133.4 59 10.5
    endloop
  endfacet
  facet normal 0 1 0
    outer loop
      vertex 132.6 59 10.5
      vertex 133.4 59 4
      vertex 132.6 59 4
    endloop
  endfacet
  facet normal 0 1 -0
    outer loop
      vertex 131.4 59 4
      vertex 130.6 59 10.5
      vertex 131.4 59 10.5
    endloop
  endfacet
  facet normal 0 1 0
    outer loop
      vertex 130.6 59 10.5
      vertex 131.4 59 4
      vertex 130.6 59 4
    endloop
  endfacet
  facet normal 0 1 -0
    outer loop
      vertex 129.4 59 4
      vertex 128.6 59 10.5
      vertex 129.4 59 10.5
    endloop
  endfacet
  facet normal 0 1 0
    outer loop
      vertex 128.6 59 10.5
      vertex 129.4 59 4
      vertex 128.6 59 4
    endloop
  endfacet
  facet normal 0 1 -0
    outer loop
      vertex 127.4 59 4
      vertex 126.6 59 10.5
      vertex 127.4 59 10.5
    endloop
  endfacet
  facet normal 0 1 0
    outer loop
      vertex 126.6 59 10.5
      vertex 127.4 59 4
      vertex 126.6 59 4
    endloop
  endfacet
  facet normal 0 1 -0
    outer loop
      vertex 125.4 59 4
      vertex 124.6 59 10.5
      vertex 125.4 59 10.5
    endloop
  endfacet
  facet normal 0 1 0
    outer loop
      vertex 124.6 59 10.5
      vertex 125.4 59 4
      vertex 124.6 59 4
    endloop
  endfacet
  facet normal 0 1 -0
    outer loop
      vertex 123.4 59 4
      vertex 122.6 59 10.5
      vertex 123.4 59 10.5
    endloop
  endfacet
  facet normal 0 1 0
    outer loop
      vertex 122.6 59 10.5
      vertex 123.4 59 4
      vertex 122.6 59 4
    endloop
  endfacet
  facet normal 0 1 -0
    outer loop
      vertex 121.4 59 4
      vertex 120.6 59 10.5
      vertex 121.4 59 10.5
    endloop
  endfacet
  facet normal 0 1 0
    outer loop
      vertex 120.6 59 10.5
      vertex 121.4 59 4
      vertex 120.6 59 4
    endloop
  endfacet
  facet normal 1 0 0
    outer loop
      vertex 121.4 59 10.5
      vertex 121.4 47 5.5
      vertex 121.4 59 4
    endloop
  endfacet
  facet normal 1 -0 0
    outer loop
      vertex 121.4 41 10.5
      vertex 121.4 47 5.5
      vertex 121.4 59 10.5
    endloop
  endfacet
  facet normal 1 0 0
    outer loop
      vertex 121.4 47 5.5
      vertex 121.4 41 10.5
      vertex 121.4 41 5.5
    endloop
  endfacet
  facet normal 1 0 0
    outer loop
      vertex 121.4 59 4
      vertex 121.4 47 5.5
      vertex 121.4 47 4
    endloop
  endfacet
  facet normal -0 0 1
    outer loop
      vertex 120.6 59 10.5
      vertex 121.4 41 10.5
      vertex 121.4 59 10.5
    endloop
  endfacet
  facet normal 0 0 1
    outer loop
      vertex 121.4 41 10.5
      vertex 120.6 59 10.5
      vertex 120.6 41 10.5
    endloop
  endfacet
  facet normal -1 0 0
    outer loop
      vertex 120.6 47 5.5
      vertex 120.6 59 4
      vertex 120.6 47 4
    endloop
  endfacet
  facet normal -1 0 0
    outer loop
      vertex 120.6 59 4
      vertex 120.6 47 5.5
      vertex 120.6 59 10.5
    endloop
  endfacet
  facet normal -1 0 0
    outer loop
      vertex 120.6 41 10.5
      vertex 120.6 47 5.5
      vertex 120.6 41 5.5
    endloop
  endfacet
  facet normal -1 0 0
    outer loop
      vertex 120.6 47 5.5
      vertex 120.6 41 10.5
      vertex 120.6 59 10.5
    endloop
  endfacet
  facet normal 1 0 0
    outer loop
      vertex 123.4 59 10.5
      vertex 123.4 47 5.5
      vertex 123.4 59 4
    endloop
  endfacet
  facet normal 1 -0 0
    outer loop
      vertex 123.4 41 10.5
      vertex 123.4 47 5.5
      vertex 123.4 59 10.5
    endloop
  endfacet
  facet normal 1 0 0
    outer loop
      vertex 123.4 47 5.5
      vertex 123.4 41 10.5
      vertex 123.4 41 5.5
    endloop
  endfacet
  facet normal 1 0 0
    outer loop
      vertex 123.4 59 4
      vertex 123.4 47 5.5
      vertex 123.4 47 4
    endloop
  endfacet
  facet normal -0 0 1
    outer loop
      vertex 122.6 59 10.5
      vertex 123.4 41 10.5
      vertex 123.4 59 10.5
    endloop
  endfacet
  facet normal 0 0 1
    outer loop
      vertex 123.4 41 10.5
      vertex 122.6 59 10.5
      vertex 122.6 41 10.5
    endloop
  endfacet
  facet normal -1 0 0
    outer loop
      vertex 122.6 47 5.5
      vertex 122.6 59 4
      vertex 122.6 47 4
    endloop
  endfacet
  facet normal -1 0 0
    outer loop
      vertex 122.6 59 4
      vertex 122.6 47 5.5
      vertex 122.6 59 10.5
    endloop
  endfacet
  facet normal -1 0 0
    outer loop
      vertex 122.6 41 10.5
      vertex 122.6 47 5.5
      vertex 122.6 41 5.5
    endloop
  endfacet
  facet normal -1 0 0
    outer loop
      vertex 122.6 47 5.5
      vertex 122.6 41 10.5
      vertex 122.6 59 10.5
    endloop
  endfacet
  facet normal 1 0 0
    outer loop
      vertex 125.4 59 10.5
      vertex 125.4 47 5.5
      vertex 125.4 59 4
    endloop
  endfacet
  facet normal 1 -0 0
    outer loop
      vertex 125.4 41 10.5
      vertex 125.4 47 5.5
      vertex 125.4 59 10.5
    endloop
  endfacet
  facet normal 1 0 0
    outer loop
      vertex 125.4 47 5.5
      vertex 125.4 41 10.5
      vertex 125.4 41 5.5
    endloop
  endfacet
  facet normal 1 0 0
    outer loop
      vertex 125.4 59 4
      vertex 125.4 47 5.5
      vertex 125.4 47 4
    endloop
  endfacet
  facet normal -0 0 1
    outer loop
      vertex 124.6 59 10.5
      vertex 125.4 41 10.5
      vertex 125.4 59 10.5
    endloop
  endfacet
  facet normal 0 0 1
    outer loop
      vertex 125.4 41 10.5
      vertex 124.6 59 10.5
      vertex 124.6 41 10.5
    endloop
  endfacet
  facet normal -1 0 0
    outer loop
      vertex 124.6 47 5.5
      vertex 124.6 59 4
      vertex 124.6 47 4
    endloop
  endfacet
  facet normal -1 0 0
    outer loop
      vertex 124.6 59 4
      vertex 124.6 47 5.5
      vertex 124.6 59 10.5
    endloop
  endfacet
  facet normal -1 0 0
    outer loop
      vertex 124.6 41 10.5
      vertex 124.6 47 5.5
      vertex 124.6 41 5.5
    endloop
  endfacet
  facet normal -1 0 0
    outer loop
      vertex 124.6 47 5.5
      vertex 124.6 41 10.5
      vertex 124.6 59 10.5
    endloop
  endfacet
  facet normal 1 0 0
    outer loop
      vertex 127.4 59 10.5
      vertex 127.4 47 5.5
      vertex 127.4 59 4
    endloop
  endfacet
  facet normal 1 -0 0
    outer loop
      vertex 127.4 41 10.5
      vertex 127.4 47 5.5
      vertex 127.4 59 10.5
    endloop
  endfacet
  facet normal 1 0 0
    outer loop
      vertex 127.4 47 5.5
      vertex 127.4 41 10.5
      vertex 127.4 41 5.5
    endloop
  endfacet
  facet normal 1 0 0
    outer loop
      vertex 127.4 59 4
      vertex 127.4 47 5.5
      vertex 127.4 47 4
    endloop
  endfacet
  facet normal -0 0 1
    outer loop
      vertex 126.6 59 10.5
      vertex 127.4 41 10.5
      vertex 127.4 59 10.5
    endloop
  endfacet
  facet normal 0 0 1
    outer loop
      vertex 127.4 41 10.5
      vertex 126.6 59 10.5
      vertex 126.6 41 10.5
    endloop
  endfacet
  facet normal -1 0 0
    outer loop
      vertex 126.6 47 5.5
      vertex 126.6 59 4
      vertex 126.6 47 4
    endloop
  endfacet
  facet normal -1 0 0
    outer loop
      vertex 126.6 59 4
      vertex 126.6 47 5.5
      vertex 126.6 59 10.5
    endloop
  endfacet
  facet normal -1 0 0
    outer loop
      vertex 126.6 41 10.5
      vertex 126.6 47 5.5
      vertex 126.6 41 5.5
    endloop
  endfacet
  facet normal -1 0 0
    outer loop
      vertex 126.6 47 5.5
      vertex 126.6 41 10.5
      vertex 126.6 59 10.5
    endloop
  endfacet
  facet normal 1 0 0
    outer loop
      vertex 129.4 59 10.5
      vertex 129.4 47 5.5
      vertex 129.4 59 4
    endloop
  endfacet
  facet normal 1 -0 0
    outer loop
      vertex 129.4 41 10.5
      vertex 129.4 47 5.5
      vertex 129.4 59 10.5
    endloop
  endfacet
  facet normal 1 0 0
    outer loop
      vertex 129.4 47 5.5
      vertex 129.4 41 10.5
      vertex 129.4 41 5.5
    endloop
  endfacet
  facet normal 1 0 0
    outer loop
      vertex 129.4 59 4
      vertex 129.4 47 5.5
      vertex 129.4 47 4
    endloop
  endfacet
  facet normal -0 0 1
    outer loop
      vertex 128.6 59 10.5
      vertex 129.4 41 10.5
      vertex 129.4 59 10.5
    endloop
  endfacet
  facet normal 0 0 1
    outer loop
      vertex 129.4 41 10.5
      vertex 128.6 59 10.5
      vertex 128.6 41 10.5
    endloop
  endfacet
  facet normal -1 0 0
    outer loop
      vertex 128.6 47 5.5
      vertex 128.6 59 4
      vertex 128.6 47 4
    endloop
  endfacet
  facet normal -1 0 0
    outer loop
      vertex 128.6 59 4
      vertex 128.6 47 5.5
      vertex 128.6 59 10.5
    endloop
  endfacet
  facet normal -1 0 0
    outer loop
      vertex 128.6 41 10.5
      vertex 128.6 47 5.5
      vertex 128.6 41 5.5
    endloop
  endfacet
  facet normal -1 0 0
    outer loop
      vertex 128.6 47 5.5
      vertex 128.6 41 10.5
      vertex 128.6 59 10.5
    endloop
  endfacet
  facet normal 1 0 0
    outer loop
      vertex 131.4 59 10.5
      vertex 131.4 47 5.5
      vertex 131.4 59 4
    endloop
  endfacet
  facet normal 1 -0 0
    outer loop
      vertex 131.4 41 10.5
      vertex 131.4 47 5.5
      vertex 131.4 59 10.5
    endloop
  endfacet
  facet normal 1 0 0
    outer loop
      vertex 131.4 47 5.5
      vertex 131.4 41 10.5
      vertex 131.4 41 5.5
    endloop
  endfacet
  facet normal 1 0 0
    outer loop
      vertex 131.4 59 4
      vertex 131.4 47 5.5
      vertex 131.4 47 4
    endloop
  endfacet
  facet normal -0 0 1
    outer loop
      vertex 130.6 59 10.5
      vertex 131.4 41 10.5
      vertex 131.4 59 10.5
    endloop
  endfacet
  facet normal 0 0 1
    outer loop
      vertex 131.4 41 10.5
      vertex 130.6 59 10.5
      vertex 130.6 41 10.5
    endloop
  endfacet
  facet normal -1 0 0
    outer loop
      vertex 130.6 47 5.5
      vertex 130.6 59 4
      vertex 130.6 47 4
    endloop
  endfacet
  facet normal -1 0 0
    outer loop
      vertex 130.6 59 4
      vertex 130.6 47 5.5
      vertex 130.6 59 10.5
    endloop
  endfacet
  facet normal -1 0 0
    outer loop
      vertex 130.6 41 10.5
      vertex 130.6 47 5.5
      vertex 130.6 41 5.5
    endloop
  endfacet
  facet normal -1 0 0
    outer loop
      vertex 130.6 47 5.5
      vertex 130.6 41 10.5
      vertex 130.6 59 10.5
    endloop
  endfacet
  facet normal 1 0 0
    outer loop
      vertex 133.4 59 10.5
      vertex 133.4 47 5.5
      vertex 133.4 59 4
    endloop
  endfacet
  facet normal 1 -0 0
    outer loop
      vertex 133.4 41 10.5
      vertex 133.4 47 5.5
      vertex 133.4 59 10.5
    endloop
  endfacet
  facet normal 1 0 0
    outer loop
      vertex 133.4 47 5.5
      vertex 133.4 41 10.5
      vertex 133.4 41 5.5
    endloop
  endfacet
  facet normal 1 0 0
    outer loop
      vertex 133.4 59 4
      vertex 133.4 47 5.5
      vertex 133.4 47 4
    endloop
  endfacet
  facet normal -0 0 1
    outer loop
      vertex 132.6 59 10.5
      vertex 133.4 41 10.5
      vertex 133.4 59 10.5
    endloop
  endfacet
  facet normal 0 0 1
    outer loop
      vertex 133.4 41 10.5
      vertex 132.6 59 10.5
      vertex 132.6 41 10.5
    endloop
  endfacet
  facet normal -1 0 0
    outer loop
      vertex 132.6 47 5.5
      vertex 132.6 59 4
      vertex 132.6 47 4
    endloop
  endfacet
  facet normal -1 0 0
    outer loop
      vertex 132.6 59 4
      vertex 132.6 47 5.5
      vertex 132.6 59 10.5
    endloop
  endfacet
  facet normal -1 0 0
    outer loop
      vertex 132.6 41 10.5
      vertex 132.6 47 5.5
      vertex 132.6 41 5.5
    endloop
  endfacet
  facet normal -1 0 0
    outer loop
      vertex 132.6 47 5.5
      vertex 132.6 41 10.5
      vertex 132.6 59 10.5
    endloop
  endfacet
  facet normal 1 -0 0
    outer loop
      vertex 135.4 41 10.5
      vertex 135.4 59 4
      vertex 135.4 59 10.5
    endloop
  endfacet
  facet normal 1 0 0
    outer loop
      vertex 135.4 59 4
      vertex 135.4 41 10.5
      vertex 135.4 41 4
    endloop
  endfacet
  facet normal -0 0 1
    outer loop
      vertex 134.6 59 10.5
      vertex 135.4 41 10.5
      vertex 135.4 59 10.5
    endloop
  endfacet
  facet normal 0 0 1
    outer loop
      vertex 135.4 41 10.5
      vertex 134.6 59 10.5
      vertex 134.6 41 10.5
    endloop
  endfacet
  facet normal -1 0 0
    outer loop
      vertex 134.6 47 5.5
      vertex 134.6 59 4
      vertex 134.6 47 4
    endloop
  endfacet
  facet normal -1 0 0
    outer loop
      vertex 134.6 59 4
      vertex 134.6 47 5.5
      vertex 134.6 59 10.5
    endloop
  endfacet
  facet normal -1 0 0
    outer loop
      vertex 134.6 41 10.5
      vertex 134.6 47 5.5
      vertex 134.6 41 5.5
    endloop
  endfacet
  facet normal -1 0 0
    outer loop
      vertex 134.6 47 5.5
      vertex 134.6 41 10.5
      vertex 134.6 59 10.5
    endloop
  endfacet
  facet normal 1 -0 0
    outer loop
      vertex 137.4 41 10.5
      vertex 137.4 59 4
      vertex 137.4 59 10.5
    endloop
  endfacet
  facet normal 1 0 0
    outer loop
      vertex 137.4 59 4
      vertex 137.4 41 10.5
      vertex 137.4 41 4
    endloop
  endfacet
  facet normal -0 0 1
    outer loop
      vertex 136.6 59 10.5
      vertex 137.4 41 10.5
      vertex 137.4 59 10.5
    endloop
  endfacet
  facet normal 0 0 1
    outer loop
      vertex 137.4 41 10.5
      vertex 136.6 59 10.5
      vertex 136.6 41 10.5
    endloop
  endfacet
  facet normal -1 0 0
    outer loop
      vertex 136.6 41 4
      vertex 136.6 59 10.5
      vertex 136.6 59 4
    endloop
  endfacet
  facet normal -1 -0 0
    outer loop
      vertex 136.6 59 10.5
      vertex 136.6 41 4
      vertex 136.6 41 10.5
    endloop
  endfacet
  facet normal 1 -0 0
    outer loop
      vertex 139.4 41 10.5
      vertex 139.4 59 4
      vertex 139.4 59 10.5
    endloop
  endfacet
  facet normal 1 0 0
    outer loop
      vertex 139.4 59 4
      vertex 139.4 41 10.5
      vertex 139.4 41 4
    endloop
  endfacet
  facet normal -0 0 1
    outer loop
      vertex 138.6 59 10.5
      vertex 139.4 41 10.5
      vertex 139.4 59 10.5
    endloop
  endfacet
  facet normal 0 0 1
    outer loop
      vertex 139.4 41 10.5
      vertex 138.6 59 10.5
      vertex 138.6 41 10.5
    endloop
  endfacet
  facet normal -1 0 0
    outer loop
      vertex 138.6 41 4
      vertex 138.6 59 10.5
      vertex 138.6 59 4
    endloop
  endfacet
  facet normal -1 -0 0
    outer loop
      vertex 138.6 59 10.5
      vertex 138.6 41 4
      vertex 138.6 41 10.5
    endloop
  endfacet
  facet normal 1 -0 0
    outer loop
      vertex 141.4 41 10.5
      vertex 141.4 59 4
      vertex 141.4 59 10.5
    endloop
  endfacet
  facet normal 1 0 0
    outer loop
      vertex 141.4 59 4
      vertex 141.4 41 10.5
      vertex 141.4 41 4
    endloop
  endfacet
  facet normal -0 0 1
    outer loop
      vertex 140.6 59 10.5
      vertex 141.4 41 10.5
      vertex 141.4 59 10.5
    endloop
  endfacet
  facet normal 0 0 1
    outer loop
      vertex 141.4 41 10.5
      vertex 140.6 59 10.5
      vertex 140.6 41 10.5
    endloop
  endfacet
  facet normal -1 0 0
    outer loop
      vertex 140.6 41 4
      vertex 140.6 59 10.5
      vertex 140.6 59 4
    endloop
  endfacet
  facet normal -1 -0 0
    outer loop
      vertex 140.6 59 10.5
      vertex 140.6 41 4
      vertex 140.6 41 10.5
    endloop
  endfacet
  facet normal 1 -0 0
    outer loop
      vertex 143.4 41 10.5
      vertex 143.4 59 4
      vertex 143.4 59 10.5
    endloop
  endfacet
  facet normal 1 0 0
    outer loop
      vertex 143.4 59 4
      vertex 143.4 41 10.5
      vertex 143.4 41 4
    endloop
  endfacet
  facet normal -0 0 1
    outer loop
      vertex 142.6 59 10.5
      vertex 143.4 41 10.5
      vertex 143.4 59 10.5
    endloop
  endfacet
  facet normal 0 0 1
    outer loop
      vertex 143.4 41 10.5
      vertex 142.6 59 10.5
      vertex 142.6 41 10.5
    endloop
  endfacet
  facet normal -1 0 0
    outer loop
      vertex 142.6 41 4
      vertex 142.6 59 10.5
      vertex 142.6 59 4
    endloop
  endfacet
  facet normal -1 -0 0
    outer loop
      vertex 142.6 59 10.5
      vertex 142.6 41 4
      vertex 142.6 41 10.5
    endloop
  endfacet
  facet normal 1 -0 0
    outer loop
      vertex 145.4 41 10.5
      vertex 145.4 59 4
      vertex 145.4 59 10.5
    endloop
  endfacet
  facet normal 1 0 0
    outer loop
      vertex 145.4 59 4
      vertex 145.4 41 10.5
      vertex 145.4 41 4
    endloop
  endfacet
  facet normal -0 0 1
    outer loop
      vertex 144.6 59 10.5
      vertex 145.4 41 10.5
      vertex 145.4 59 10.5
    endloop
  endfacet
  facet normal 0 0 1
    outer loop
      vertex 145.4 41 10.5
      vertex 144.6 59 10.5
      vertex 144.6 41 10.5
    endloop
  endfacet
  facet normal -1 0 0
    outer loop
      vertex 144.6 41 4
      vertex 144.6 59 10.5
      vertex 144.6 59 4
    endloop
  endfacet
  facet normal -1 -0 0
    outer loop
      vertex 144.6 59 10.5
      vertex 144.6 41 4
      vertex 144.6 41 10.5
    endloop
  endfacet
  facet normal 1 -0 0
    outer loop
      vertex 147.4 41 10.5
      vertex 147.4 59 4
      vertex 147.4 59 10.5
    endloop
  endfacet
  facet normal 1 0 0
    outer loop
      vertex 147.4 59 4
      vertex 147.4 41 10.5
      vertex 147.4 41 4
    endloop
  endfacet
  facet normal -0 0 1
    outer loop
      vertex 146.6 59 10.5
      vertex 147.4 41 10.5
      vertex 147.4 59 10.5
    endloop
  endfacet
  facet normal 0 0 1
    outer loop
      vertex 147.4 41 10.5
      vertex 146.6 59 10.5
      vertex 146.6 41 10.5
    endloop
  endfacet
  facet normal -1 0 0
    outer loop
      vertex 146.6 41 4
      vertex 146.6 59 10.5
      vertex 146.6 59 4
    endloop
  endfacet
  facet normal -1 -0 0
    outer loop
      vertex 146.6 59 10.5
      vertex 146.6 41 4
      vertex 146.6 41 10.5
    endloop
  endfacet
  facet normal 1 -0 0
    outer loop
      vertex 149.4 41 10.5
      vertex 149.4 59 4
      vertex 149.4 59 10.5
    endloop
  endfacet
  facet normal 1 0 0
    outer loop
      vertex 149.4 59 4
      vertex 149.4 41 10.5
      vertex 149.4 41 4
    endloop
  endfacet
  facet normal -0 0 1
    outer loop
      vertex 148.6 59 10.5
      vertex 149.4 41 10.5
      vertex 149.4 59 10.5
    endloop
  endfacet
  facet normal 0 0 1
    outer loop
      vertex 149.4 41 10.5
      vertex 148.6 59 10.5
      vertex 148.6 41 10.5
    endloop
  endfacet
  facet normal -1 0 0
    outer loop
      vertex 148.6 41 4
      vertex 148.6 59 10.5
      vertex 148.6 59 4
    endloop
  endfacet
  facet normal -1 -0 0
    outer loop
      vertex 148.6 59 10.5
      vertex 148.6 41 4
      vertex 148.6 41 10.5
    endloop
  endfacet
endsolid OpenSCAD_Model
