solid OpenSCAD_Model
  facet normal 1 -0 0
    outer loop
      vertex 150 41 4
      vertex 150 59 2.5
      vertex 150 59 4
    endloop
  endfacet
  facet normal 1 0 0
    outer loop
      vertex 150 59 2.5
      vertex 150 41 4
      vertex 150 41 2.5
    endloop
  endfacet
  facet normal -0 0 1
    outer loop
      vertex 120 59 4
      vertex 121.267 47 4
      vertex 121.267 59 4
    endloop
  endfacet
  facet normal 0 0 1
    outer loop
      vertex 121.267 47 4
      vertex 120 59 4
      vertex 120 47 4
    endloop
  endfacet
  facet normal -0 0 1
    outer loop
      vertex 148.733 59 4
      vertex 150 41 4
      vertex 150 59 4
    endloop
  endfacet
  facet normal 0 0 1
    outer loop
      vertex 150 41 4
      vertex 148.733 59 4
      vertex 148.733 41 4
    endloop
  endfacet
  facet normal 0 0 -1
    outer loop
      vertex 134.6 41 4
      vertex 135 47 4
      vertex 135 41 4
    endloop
  endfacet
  facet normal -0 0 -1
    outer loop
      vertex 135 47 4
      vertex 134.6 41 4
      vertex 134.6 47 4
    endloop
  endfacet
  facet normal -0 0 1
    outer loop
      vertex 125.4 59 4
      vertex 127.933 47 4
      vertex 127.933 59 4
    endloop
  endfacet
  facet normal 0 0 1
    outer loop
      vertex 127.933 47 4
      vertex 125.4 59 4
      vertex 125.4 47 4
    endloop
  endfacet
  facet normal 0 0 -1
    outer loop
      vertex 124.6 41 4
      vertex 125.4 47 4
      vertex 125.4 41 4
    endloop
  endfacet
  facet normal -0 0 -1
    outer loop
      vertex 125.4 47 4
      vertex 124.6 41 4
      vertex 124.6 47 4
    endloop
  endfacet
  facet normal -0 0 1
    outer loop
      vertex 122.067 59 4
      vertex 124.6 47 4
      vertex 124.6 59 4
    endloop
  endfacet
  facet normal 0 0 1
    outer loop
      vertex 124.6 47 4
      vertex 122.067 59 4
      vertex 122.067 47 4
    endloop
  endfacet
  facet normal -0 0 1
    outer loop
      vertex 135.4 59 4
      vertex 137.933 41 4
      vertex 137.933 59 4
    endloop
  endfacet
  facet normal 0 0 1
    outer loop
      vertex 137.933 41 4
      vertex 135.4 59 4
      vertex 135.4 41 4
    endloop
  endfacet
  facet normal -0 0 1
    outer loop
      vertex 132.067 59 4
      vertex 134.6 47 4
      vertex 134.6 59 4
    endloop
  endfacet
  facet normal 0 0 1
    outer loop
      vertex 134.6 47 4
      vertex 132.067 59 4
      vertex 132.067 47 4
    endloop
  endfacet
  facet normal -0 0 1
    outer loop
      vertex 142.067 59 4
      vertex 144.6 41 4
      vertex 144.6 59 4
    endloop
  endfacet
  facet normal 0 0 1
    outer loop
      vertex 144.6 41 4
      vertex 142.067 59 4
      vertex 142.067 41 4
    endloop
  endfacet
  facet normal -0 0 1
    outer loop
      vertex 138.733 59 4
      vertex 141.267 41 4
      vertex 141.267 59 4
    endloop
  endfacet
  facet normal 0 0 1
    outer loop
      vertex 141.267 41 4
      vertex 138.733 59 4
      vertex 138.733 41 4
    endloop
  endfacet
  facet normal -0 0 1
    outer loop
      vertex 145.4 59 4
      vertex 147.933 41 4
      vertex 147.933 59 4
    endloop
  endfacet
  facet normal 0 0 1
    outer loop
      vertex 147.933 41 4
      vertex 145.4 59 4
      vertex 145.4 41 4
    endloop
  endfacet
  facet normal 0 0 -1
    outer loop
      vertex 131.267 41 4
      vertex 132.067 47 4
      vertex 132.067 41 4
    endloop
  endfacet
  facet normal -0 0 -1
    outer loop
      vertex 132.067 47 4
      vertex 131.267 41 4
      vertex 131.267 47 4
    endloop
  endfacet
  facet normal -0 0 1
    outer loop
      vertex 128.733 59 4
      vertex 131.267 47 4
      vertex 131.267 59 4
    endloop
  endfacet
  facet normal 0 0 1
    outer loop
      vertex 131.267 47 4
      vertex 128.733 59 4
      vertex 128.733 47 4
    endloop
  endfacet
  facet normal 0 0 -1
    outer loop
      vertex 121.267 41 4
      vertex 122.067 47 4
      vertex 122.067 41 4
    endloop
  endfacet
  facet normal -0 0 -1
    outer loop
      vertex 122.067 47 4
      vertex 121.267 41 4
      vertex 121.267 47 4
    endloop
  endfacet
  facet normal 0 0 -1
    outer loop
      vertex 127.933 41 4
      vertex 128.733 47 4
      vertex 128.733 41 4
    endloop
  endfacet
  facet normal -0 0 -1
    outer loop
      vertex 128.733 47 4
      vertex 127.933 41 4
      vertex 127.933 47 4
    endloop
  endfacet
  facet normal 0 0 -1
    outer loop
      vertex 135 47 2.5
      vertex 150 41 2.5
      vertex 135 41 2.5
    endloop
  endfacet
  facet normal 0 0 -1
    outer loop
      vertex 150 41 2.5
      vertex 135 47 2.5
      vertex 150 59 2.5
    endloop
  endfacet
  facet normal 0 0 -1
    outer loop
      vertex 120 59 2.5
      vertex 135 47 2.5
      vertex 120 47 2.5
    endloop
  endfacet
  facet normal 0 0 -1
    outer loop
      vertex 135 47 2.5
      vertex 120 59 2.5
      vertex 150 59 2.5
    endloop
  endfacet
  facet normal -1 0 0
    outer loop
      vertex 120 47 2.5
      vertex 120 59 4
      vertex 120 59 2.5
    endloop
  endfacet
  facet normal -1 -0 0
    outer loop
      vertex 120 59 4
      vertex 120 47 2.5
      vertex 120 47 4
    endloop
  endfacet
  facet normal 0 1 -0
    outer loop
      vertex 150 59 2.5
      vertex 148.733 59 4
      vertex 150 59 4
    endloop
  endfacet
  facet normal 0 1 0
    outer loop
      vertex 148.733 59 4
      vertex 150 59 2.5
      vertex 147.933 59 4
    endloop
  endfacet
  facet normal 0 1 0
    outer loop
      vertex 147.933 59 4
      vertex 150 59 2.5
      vertex 145.4 59 4
    endloop
  endfacet
  facet normal 0 1 0
    outer loop
      vertex 145.4 59 4
      vertex 150 59 2.5
      vertex 144.6 59 4
    endloop
  endfacet
  facet normal 0 1 0
    outer loop
      vertex 144.6 59 4
      vertex 150 59 2.5
      vertex 142.067 59 4
    endloop
  endfacet
  facet normal 0 1 0
    outer loop
      vertex 142.067 59 4
      vertex 150 59 2.5
      vertex 141.267 59 4
    endloop
  endfacet
  facet normal 0 1 0
    outer loop
      vertex 141.267 59 4
      vertex 150 59 2.5
      vertex 138.733 59 4
    endloop
  endfacet
  facet normal 0 1 0
    outer loop
      vertex 138.733 59 4
      vertex 150 59 2.5
      vertex 137.933 59 4
    endloop
  endfacet
  facet normal 0 1 0
    outer loop
      vertex 137.933 59 4
      vertex 150 59 2.5
      vertex 135.4 59 4
    endloop
  endfacet
  facet normal 0 1 0
    outer loop
      vertex 135.4 59 4
      vertex 150 59 2.5
      vertex 134.6 59 4
    endloop
  endfacet
  facet normal 0 1 0
    outer loop
      vertex 120 59 2.5
      vertex 134.6 59 4
      vertex 150 59 2.5
    endloop
  endfacet
  facet normal 0 1 0
    outer loop
      vertex 134.6 59 4
      vertex 120 59 2.5
      vertex 132.067 59 4
    endloop
  endfacet
  facet normal 0 1 0
    outer loop
      vertex 132.067 59 4
      vertex 120 59 2.5
      vertex 131.267 59 4
    endloop
  endfacet
  facet normal 0 1 0
    outer loop
      vertex 131.267 59 4
      vertex 120 59 2.5
      vertex 128.733 59 4
    endloop
  endfacet
  facet normal 0 1 0
    outer loop
      vertex 128.733 59 4
      vertex 120 59 2.5
      vertex 127.933 59 4
    endloop
  endfacet
  facet normal 0 1 0
    outer loop
      vertex 127.933 59 4
      vertex 120 59 2.5
      vertex 125.4 59 4
    endloop
  endfacet
  facet normal 0 1 0
    outer loop
      vertex 125.4 59 4
      vertex 120 59 2.5
      vertex 124.6 59 4
    endloop
  endfacet
  facet normal 0 1 0
    outer loop
      vertex 124.6 59 4
      vertex 120 59 2.5
      vertex 122.067 59 4
    endloop
  endfacet
  facet normal 0 1 0
    outer loop
      vertex 122.067 59 4
      vertex 120 59 2.5
      vertex 121.267 59 4
    endloop
  endfacet
  facet normal 0 1 0
    outer loop
      vertex 121.267 59 4
      vertex 120 59 2.5
      vertex 120 59 4
    endloop
  endfacet
  facet normal 0 1 -0
    outer loop
      vertex 148.733 59 4
      vertex 147.933 59 10
      vertex 148.733 59 10
    endloop
  endfacet
  facet normal 0 1 0
    outer loop
      vertex 147.933 59 10
      vertex 148.733 59 4
      vertex 147.933 59 4
    endloop
  endfacet
  facet normal 0 1 -0
    outer loop
      vertex 145.4 59 4
      vertex 144.6 59 10
      vertex 145.4 59 10
    endloop
  endfacet
  facet normal 0 1 0
    outer loop
      vertex 144.6 59 10
      vertex 145.4 59 4
      vertex 144.6 59 4
    endloop
  endfacet
  facet normal 0 1 -0
    outer loop
      vertex 142.067 59 4
      vertex 141.267 59 10
      vertex 142.067 59 10
    endloop
  endfacet
  facet normal 0 1 0
    outer loop
      vertex 141.267 59 10
      vertex 142.067 59 4
      vertex 141.267 59 4
    endloop
  endfacet
  facet normal 0 1 -0
    outer loop
      vertex 138.733 59 4
      vertex 137.933 59 10
      vertex 138.733 59 10
    endloop
  endfacet
  facet normal 0 1 0
    outer loop
      vertex 137.933 59 10
      vertex 138.733 59 4
      vertex 137.933 59 4
    endloop
  endfacet
  facet normal 0 1 -0
    outer loop
      vertex 135.4 59 4
      vertex 134.6 59 10
      vertex 135.4 59 10
    endloop
  endfacet
  facet normal 0 1 0
    outer loop
      vertex 134.6 59 10
      vertex 135.4 59 4
      vertex 134.6 59 4
    endloop
  endfacet
  facet normal 0 1 -0
    outer loop
      vertex 132.067 59 4
      vertex 131.267 59 10
      vertex 132.067 59 10
    endloop
  endfacet
  facet normal 0 1 0
    outer loop
      vertex 131.267 59 10
      vertex 132.067 59 4
      vertex 131.267 59 4
    endloop
  endfacet
  facet normal 0 1 -0
    outer loop
      vertex 128.733 59 4
      vertex 127.933 59 10
      vertex 128.733 59 10
    endloop
  endfacet
  facet normal 0 1 0
    outer loop
      vertex 127.933 59 10
      vertex 128.733 59 4
      vertex 127.933 59 4
    endloop
  endfacet
  facet normal 0 1 -0
    outer loop
      vertex 125.4 59 4
      vertex 124.6 59 10
      vertex 125.4 59 10
    endloop
  endfacet
  facet normal 0 1 0
    outer loop
      vertex 124.6 59 10
      vertex 125.4 59 4
      vertex 124.6 59 4
    endloop
  endfacet
  facet normal 0 1 -0
    outer loop
      vertex 122.067 59 4
      vertex 121.267 59 10
      vertex 122.067 59 10
    endloop
  endfacet
  facet normal 0 1 0
    outer loop
      vertex 121.267 59 10
      vertex 122.067 59 4
      vertex 121.267 59 4
    endloop
  endfacet
  facet normal 0 -1 0
    outer loop
      vertex 135 41 4
      vertex 134.6 41 10
      vertex 134.6 41 4
    endloop
  endfacet
  facet normal 0 -1 0
    outer loop
      vertex 134.6 41 10
      vertex 135 41 4
      vertex 135.4 41 10
    endloop
  endfacet
  facet normal 0 -1 0
    outer loop
      vertex 135 41 4
      vertex 135.4 41 4
      vertex 135.4 41 10
    endloop
  endfacet
  facet normal 0 -1 0
    outer loop
      vertex 135 41 2.5
      vertex 135.4 41 4
      vertex 135 41 4
    endloop
  endfacet
  facet normal 0 -1 -0
    outer loop
      vertex 135.4 41 4
      vertex 135 41 2.5
      vertex 137.933 41 4
    endloop
  endfacet
  facet normal 0 -1 -0
    outer loop
      vertex 137.933 41 4
      vertex 135 41 2.5
      vertex 138.733 41 4
    endloop
  endfacet
  facet normal 0 -1 -0
    outer loop
      vertex 138.733 41 4
      vertex 135 41 2.5
      vertex 141.267 41 4
    endloop
  endfacet
  facet normal 0 -1 -0
    outer loop
      vertex 141.267 41 4
      vertex 135 41 2.5
      vertex 142.067 41 4
    endloop
  endfacet
  facet normal 0 -1 0
    outer loop
      vertex 150 41 2.5
      vertex 142.067 41 4
      vertex 135 41 2.5
    endloop
  endfacet
  facet normal 0 -1 0
    outer loop
      vertex 142.067 41 4
      vertex 150 41 2.5
      vertex 144.6 41 4
    endloop
  endfacet
  facet normal 0 -1 0
    outer loop
      vertex 144.6 41 4
      vertex 150 41 2.5
      vertex 145.4 41 4
    endloop
  endfacet
  facet normal 0 -1 0
    outer loop
      vertex 145.4 41 4
      vertex 150 41 2.5
      vertex 147.933 41 4
    endloop
  endfacet
  facet normal 0 -1 0
    outer loop
      vertex 147.933 41 4
      vertex 150 41 2.5
      vertex 148.733 41 4
    endloop
  endfacet
  facet normal 0 -1 0
    outer loop
      vertex 148.733 41 4
      vertex 150 41 2.5
      vertex 150 41 4
    endloop
  endfacet
  facet normal 0 -1 0
    outer loop
      vertex 137.933 41 4
      vertex 138.733 41 10
      vertex 137.933 41 10
    endloop
  endfacet
  facet normal 0 -1 -0
    outer loop
      vertex 138.733 41 10
      vertex 137.933 41 4
      vertex 138.733 41 4
    endloop
  endfacet
  facet normal 0 -1 0
    outer loop
      vertex 141.267 41 4
      vertex 142.067 41 10
      vertex 141.267 41 10
    endloop
  endfacet
  facet normal 0 -1 -0
    outer loop
      vertex 142.067 41 10
      vertex 141.267 41 4
      vertex 142.067 41 4
    endloop
  endfacet
  facet normal 0 -1 0
    outer loop
      vertex 144.6 41 4
      vertex 145.4 41 10
      vertex 144.6 41 10
    endloop
  endfacet
  facet normal 0 -1 -0
    outer loop
      vertex 145.4 41 10
      vertex 144.6 41 4
      vertex 145.4 41 4
    endloop
  endfacet
  facet normal 0 -1 0
    outer loop
      vertex 147.933 41 4
      vertex 148.733 41 10
      vertex 147.933 41 10
    endloop
  endfacet
  facet normal 0 -1 -0
    outer loop
      vertex 148.733 41 10
      vertex 147.933 41 4
      vertex 148.733 41 4
    endloop
  endfacet
  facet normal -1 0 0
    outer loop
      vertex 135 41 2.5
      vertex 135 47 4
      vertex 135 47 2.5
    endloop
  endfacet
  facet normal -1 -0 0
    outer loop
      vertex 135 47 4
      vertex 135 41 2.5
      vertex 135 41 4
    endloop
  endfacet
  facet normal 0 -1 0
    outer loop
      vertex 120 47 2.5
      vertex 121.267 47 4
      vertex 120 47 4
    endloop
  endfacet
  facet normal 0 -1 -0
    outer loop
      vertex 121.267 47 4
      vertex 120 47 2.5
      vertex 122.067 47 4
    endloop
  endfacet
  facet normal 0 -1 -0
    outer loop
      vertex 122.067 47 4
      vertex 120 47 2.5
      vertex 124.6 47 4
    endloop
  endfacet
  facet normal 0 -1 -0
    outer loop
      vertex 124.6 47 4
      vertex 120 47 2.5
      vertex 125.4 47 4
    endloop
  endfacet
  facet normal 0 -1 -0
    outer loop
      vertex 125.4 47 4
      vertex 120 47 2.5
      vertex 127.933 47 4
    endloop
  endfacet
  facet normal 0 -1 0
    outer loop
      vertex 135 47 2.5
      vertex 127.933 47 4
      vertex 120 47 2.5
    endloop
  endfacet
  facet normal 0 -1 0
    outer loop
      vertex 127.933 47 4
      vertex 135 47 2.5
      vertex 128.733 47 4
    endloop
  endfacet
  facet normal 0 -1 0
    outer loop
      vertex 128.733 47 4
      vertex 135 47 2.5
      vertex 131.267 47 4
    endloop
  endfacet
  facet normal 0 -1 0
    outer loop
      vertex 131.267 47 4
      vertex 135 47 2.5
      vertex 132.067 47 4
    endloop
  endfacet
  facet normal 0 -1 0
    outer loop
      vertex 132.067 47 4
      vertex 135 47 2.5
      vertex 134.6 47 4
    endloop
  endfacet
  facet normal 0 -1 0
    outer loop
      vertex 134.6 47 4
      vertex 135 47 2.5
      vertex 135 47 4
    endloop
  endfacet
  facet normal 1 0 0
    outer loop
      vertex 122.067 59 10
      vertex 122.067 47 4
      vertex 122.067 59 4
    endloop
  endfacet
  facet normal 1 -0 0
    outer loop
      vertex 122.067 41 10
      vertex 122.067 47 4
      vertex 122.067 59 10
    endloop
  endfacet
  facet normal 1 0 0
    outer loop
      vertex 122.067 47 4
      vertex 122.067 41 10
      vertex 122.067 41 4
    endloop
  endfacet
  facet normal -0 0 1
    outer loop
      vertex 121.267 59 10
      vertex 122.067 41 10
      vertex 122.067 59 10
    endloop
  endfacet
  facet normal 0 0 1
    outer loop
      vertex 122.067 41 10
      vertex 121.267 59 10
      vertex 121.267 41 10
    endloop
  endfacet
  facet normal -1 0 0
    outer loop
      vertex 121.267 47 4
      vertex 121.267 59 10
      vertex 121.267 59 4
    endloop
  endfacet
  facet normal -1 0 0
    outer loop
      vertex 121.267 41 10
      vertex 121.267 47 4
      vertex 121.267 41 4
    endloop
  endfacet
  facet normal -1 0 0
    outer loop
      vertex 121.267 47 4
      vertex 121.267 41 10
      vertex 121.267 59 10
    endloop
  endfacet
  facet normal 0 -1 0
    outer loop
      vertex 121.267 41 4
      vertex 122.067 41 10
      vertex 121.267 41 10
    endloop
  endfacet
  facet normal 0 -1 -0
    outer loop
      vertex 122.067 41 10
      vertex 121.267 41 4
      vertex 122.067 41 4
    endloop
  endfacet
  facet normal 1 0 0
    outer loop
      vertex 125.4 59 10
      vertex 125.4 47 4
      vertex 125.4 59 4
    endloop
  endfacet
  facet normal 1 -0 0
    outer loop
      vertex 125.4 41 10
      vertex 125.4 47 4
      vertex 125.4 59 10
    endloop
  endfacet
  facet normal 1 0 0
    outer loop
      vertex 125.4 47 4
      vertex 125.4 41 10
      vertex 125.4 41 4
    endloop
  endfacet
  facet normal -0 0 1
    outer loop
      vertex 124.6 59 10
      vertex 125.4 41 10
      vertex 125.4 59 10
    endloop
  endfacet
  facet normal 0 0 1
    outer loop
      vertex 125.4 41 10
      vertex 124.6 59 10
      vertex 124.6 41 10
    endloop
  endfacet
  facet normal -1 0 0
    outer loop
      vertex 124.6 47 4
      vertex 124.6 59 10
      vertex 124.6 59 4
    endloop
  endfacet
  facet normal -1 0 0
    outer loop
      vertex 124.6 41 10
      vertex 124.6 47 4
      vertex 124.6 41 4
    endloop
  endfacet
  facet normal -1 0 0
    outer loop
      vertex 124.6 47 4
      vertex 124.6 41 10
      vertex 124.6 59 10
    endloop
  endfacet
  facet normal 0 -1 0
    outer loop
      vertex 124.6 41 4
      vertex 125.4 41 10
      vertex 124.6 41 10
    endloop
  endfacet
  facet normal 0 -1 -0
    outer loop
      vertex 125.4 41 10
      vertex 124.6 41 4
      vertex 125.4 41 4
    endloop
  endfacet
  facet normal 1 0 0
    outer loop
      vertex 128.733 59 10
      vertex 128.733 47 4
      vertex 128.733 59 4
    endloop
  endfacet
  facet normal 1 -0 0
    outer loop
      vertex 128.733 41 10
      vertex 128.733 47 4
      vertex 128.733 59 10
    endloop
  endfacet
  facet normal 1 0 0
    outer loop
      vertex 128.733 47 4
      vertex 128.733 41 10
      vertex 128.733 41 4
    endloop
  endfacet
  facet normal -0 0 1
    outer loop
      vertex 127.933 59 10
      vertex 128.733 41 10
      vertex 128.733 59 10
    endloop
  endfacet
  facet normal 0 0 1
    outer loop
      vertex 128.733 41 10
      vertex 127.933 59 10
      vertex 127.933 41 10
    endloop
  endfacet
  facet normal -1 0 0
    outer loop
      vertex 127.933 47 4
      vertex 127.933 59 10
      vertex 127.933 59 4
    endloop
  endfacet
  facet normal -1 0 0
    outer loop
      vertex 127.933 41 10
      vertex 127.933 47 4
      vertex 127.933 41 4
    endloop
  endfacet
  facet normal -1 0 0
    outer loop
      vertex 127.933 47 4
      vertex 127.933 41 10
      vertex 127.933 59 10
    endloop
  endfacet
  facet normal 0 -1 0
    outer loop
      vertex 127.933 41 4
      vertex 128.733 41 10
      vertex 127.933 41 10
    endloop
  endfacet
  facet normal 0 -1 -0
    outer loop
      vertex 128.733 41 10
      vertex 127.933 41 4
      vertex 128.733 41 4
    endloop
  endfacet
  facet normal 1 0 0
    outer loop
      vertex 132.067 59 10
      vertex 132.067 47 4
      vertex 132.067 59 4
    endloop
  endfacet
  facet normal 1 -0 0
    outer loop
      vertex 132.067 41 10
      vertex 132.067 47 4
      vertex 132.067 59 10
    endloop
  endfacet
  facet normal 1 0 0
    outer loop
      vertex 132.067 47 4
      vertex 132.067 41 10
      vertex 132.067 41 4
    endloop
  endfacet
  facet normal -0 0 1
    outer loop
      vertex 131.267 59 10
      vertex 132.067 41 10
      vertex 132.067 59 10
    endloop
  endfacet
  facet normal 0 0 1
    outer loop
      vertex 132.067 41 10
      vertex 131.267 59 10
      vertex 131.267 41 10
    endloop
  endfacet
  facet normal -1 0 0
    outer loop
      vertex 131.267 47 4
      vertex 131.267 59 10
      vertex 131.267 59 4
    endloop
  endfacet
  facet normal -1 0 0
    outer loop
      vertex 131.267 41 10
      vertex 131.267 47 4
      vertex 131.267 41 4
    endloop
  endfacet
  facet normal -1 0 0
    outer loop
      vertex 131.267 47 4
      vertex 131.267 41 10
      vertex 131.267 59 10
    endloop
  endfacet
  facet normal 0 -1 0
    outer loop
      vertex 131.267 41 4
      vertex 132.067 41 10
      vertex 131.267 41 10
    endloop
  endfacet
  facet normal 0 -1 -0
    outer loop
      vertex 132.067 41 10
      vertex 131.267 41 4
      vertex 132.067 41 4
    endloop
  endfacet
  facet normal 1 -0 0
    outer loop
      vertex 135.4 41 10
      vertex 135.4 59 4
      vertex 135.4 59 10
    endloop
  endfacet
  facet normal 1 0 0
    outer loop
      vertex 135.4 59 4
      vertex 135.4 41 10
      vertex 135.4 41 4
    endloop
  endfacet
  facet normal -0 0 1
    outer loop
      vertex 134.6 59 10
      vertex 135.4 41 10
      vertex 135.4 59 10
    endloop
  endfacet
  facet normal 0 0 1
    outer loop
      vertex 135.4 41 10
      vertex 134.6 59 10
      vertex 134.6 41 10
    endloop
  endfacet
  facet normal -1 0 0
    outer loop
      vertex 134.6 47 4
      vertex 134.6 59 10
      vertex 134.6 59 4
    endloop
  endfacet
  facet normal -1 0 0
    outer loop
      vertex 134.6 41 10
      vertex 134.6 47 4
      vertex 134.6 41 4
    endloop
  endfacet
  facet normal -1 0 0
    outer loop
      vertex 134.6 47 4
      vertex 134.6 41 10
      vertex 134.6 59 10
    endloop
  endfacet
  facet normal 1 -0 0
    outer loop
      vertex 138.733 41 10
      vertex 138.733 59 4
      vertex 138.733 59 10
    endloop
  endfacet
  facet normal 1 0 0
    outer loop
      vertex 138.733 59 4
      vertex 138.733 41 10
      vertex 138.733 41 4
    endloop
  endfacet
  facet normal -0 0 1
    outer loop
      vertex 137.933 59 10
      vertex 138.733 41 10
      vertex 138.733 59 10
    endloop
  endfacet
  facet normal 0 0 1
    outer loop
      vertex 138.733 41 10
      vertex 137.933 59 10
      vertex 137.933 41 10
    endloop
  endfacet
  facet normal -1 0 0
    outer loop
      vertex 137.933 41 4
      vertex 137.933 59 10
      vertex 137.933 59 4
    endloop
  endfacet
  facet normal -1 -0 0
    outer loop
      vertex 137.933 59 10
      vertex 137.933 41 4
      vertex 137.933 41 10
    endloop
  endfacet
  facet normal 1 -0 0
    outer loop
      vertex 142.067 41 10
      vertex 142.067 59 4
      vertex 142.067 59 10
    endloop
  endfacet
  facet normal 1 0 0
    outer loop
      vertex 142.067 59 4
      vertex 142.067 41 10
      vertex 142.067 41 4
    endloop
  endfacet
  facet normal -0 0 1
    outer loop
      vertex 141.267 59 10
      vertex 142.067 41 10
      vertex 142.067 59 10
    endloop
  endfacet
  facet normal 0 0 1
    outer loop
      vertex 142.067 41 10
      vertex 141.267 59 10
      vertex 141.267 41 10
    endloop
  endfacet
  facet normal -1 0 0
    outer loop
      vertex 141.267 41 4
      vertex 141.267 59 10
      vertex 141.267 59 4
    endloop
  endfacet
  facet normal -1 -0 0
    outer loop
      vertex 141.267 59 10
      vertex 141.267 41 4
      vertex 141.267 41 10
    endloop
  endfacet
  facet normal 1 -0 0
    outer loop
      vertex 145.4 41 10
      vertex 145.4 59 4
      vertex 145.4 59 10
    endloop
  endfacet
  facet normal 1 0 0
    outer loop
      vertex 145.4 59 4
      vertex 145.4 41 10
      vertex 145.4 41 4
    endloop
  endfacet
  facet normal -0 0 1
    outer loop
      vertex 144.6 59 10
      vertex 145.4 41 10
      vertex 145.4 59 10
    endloop
  endfacet
  facet normal 0 0 1
    outer loop
      vertex 145.4 41 10
      vertex 144.6 59 10
      vertex 144.6 41 10
    endloop
  endfacet
  facet normal -1 0 0
    outer loop
      vertex 144.6 41 4
      vertex 144.6 59 10
      vertex 144.6 59 4
    endloop
  endfacet
  facet normal -1 -0 0
    outer loop
      vertex 144.6 59 10
      vertex 144.6 41 4
      vertex 144.6 41 10
    endloop
  endfacet
  facet normal 1 -0 0
    outer loop
      vertex 148.733 41 10
      vertex 148.733 59 4
      vertex 148.733 59 10
    endloop
  endfacet
  facet normal 1 0 0
    outer loop
      vertex 148.733 59 4
      vertex 148.733 41 10
      vertex 148.733 41 4
    endloop
  endfacet
  facet normal -0 0 1
    outer loop
      vertex 147.933 59 10
      vertex 148.733 41 10
      vertex 148.733 59 10
    endloop
  endfacet
  facet normal 0 0 1
    outer loop
      vertex 148.733 41 10
      vertex 147.933 59 10
      vertex 147.933 41 10
    endloop
  endfacet
  facet normal -1 0 0
    outer loop
      vertex 147.933 41 4
      vertex 147.933 59 10
      vertex 147.933 59 4
    endloop
  endfacet
  facet normal -1 -0 0
    outer loop
      vertex 147.933 59 10
      vertex 147.933 41 4
      vertex 147.933 41 10
    endloop
  endfacet
endsolid OpenSCAD_Model
