solid OpenSCAD_Model
  facet normal 1 -0 0
    outer loop
      vertex 34 21 10.9
      vertex 34 35 5.5
      vertex 34 35 10.9
    endloop
  endfacet
  facet normal 1 0 0
    outer loop
      vertex 34 35 5.5
      vertex 34 21 10.9
      vertex 34 21 5.5
    endloop
  endfacet
  facet normal -0 0 1
    outer loop
      vertex 20 35 10.9
      vertex 34 21 10.9
      vertex 34 35 10.9
    endloop
  endfacet
  facet normal 0 0 1
    outer loop
      vertex 34 21 10.9
      vertex 20 35 10.9
      vertex 20 21 10.9
    endloop
  endfacet
  facet normal 0 0 -1
    outer loop
      vertex 30.25 21 5.5
      vertex 34 35 5.5
      vertex 34 21 5.5
    endloop
  endfacet
  facet normal -0 0 -1
    outer loop
      vertex 34 35 5.5
      vertex 30.25 21 5.5
      vertex 30.25 35 5.5
    endloop
  endfacet
  facet normal 0 0 -1
    outer loop
      vertex 20 21 5.5
      vertex 23.75 35 5.5
      vertex 23.75 21 5.5
    endloop
  endfacet
  facet normal -0 0 -1
    outer loop
      vertex 23.75 35 5.5
      vertex 20 21 5.5
      vertex 20 35 5.5
    endloop
  endfacet
  facet normal -1 0 0
    outer loop
      vertex 20 21 5.5
      vertex 20 35 10.9
      vertex 20 35 5.5
    endloop
  endfacet
  facet normal -1 -0 0
    outer loop
      vertex 20 35 10.9
      vertex 20 21 5.5
      vertex 20 21 10.9
    endloop
  endfacet
  facet normal 0 1 0
    outer loop
      vertex 34 35 10.9
      vertex 30.25 35 9.9
      vertex 20 35 10.9
    endloop
  endfacet
  facet normal 0 1 -0
    outer loop
      vertex 34 35 5.5
      vertex 30.25 35 9.9
      vertex 34 35 10.9
    endloop
  endfacet
  facet normal 0 1 0
    outer loop
      vertex 30.25 35 9.9
      vertex 34 35 5.5
      vertex 30.25 35 5.5
    endloop
  endfacet
  facet normal 0 1 -0
    outer loop
      vertex 23.75 35 9.9
      vertex 20 35 10.9
      vertex 30.25 35 9.9
    endloop
  endfacet
  facet normal 0 1 0
    outer loop
      vertex 20 35 5.5
      vertex 23.75 35 9.9
      vertex 23.75 35 5.5
    endloop
  endfacet
  facet normal 0 1 0
    outer loop
      vertex 23.75 35 9.9
      vertex 20 35 5.5
      vertex 20 35 10.9
    endloop
  endfacet
  facet normal 0 -1 0
    outer loop
      vertex 20 21 10.9
      vertex 23.75 21 9.9
      vertex 34 21 10.9
    endloop
  endfacet
  facet normal 0 -1 0
    outer loop
      vertex 20 21 5.5
      vertex 23.75 21 9.9
      vertex 20 21 10.9
    endloop
  endfacet
  facet normal 0 -1 -0
    outer loop
      vertex 23.75 21 9.9
      vertex 20 21 5.5
      vertex 23.75 21 5.5
    endloop
  endfacet
  facet normal 0 -1 0
    outer loop
      vertex 30.25 21 9.9
      vertex 34 21 10.9
      vertex 23.75 21 9.9
    endloop
  endfacet
  facet normal 0 -1 0
    outer loop
      vertex 34 21 5.5
      vertex 30.25 21 9.9
      vertex 30.25 21 5.5
    endloop
  endfacet
  facet normal 0 -1 0
    outer loop
      vertex 30.25 21 9.9
      vertex 34 21 5.5
      vertex 34 21 10.9
    endloop
  endfacet
  facet normal -1 0 0
    outer loop
      vertex 30.25 21 5.5
      vertex 30.25 35 9.9
      vertex 30.25 35 5.5
    endloop
  endfacet
  facet normal -1 -0 0
    outer loop
      vertex 30.25 35 9.9
      vertex 30.25 21 5.5
      vertex 30.25 21 9.9
    endloop
  endfacet
  facet normal 0 0 -1
    outer loop
      vertex 23.75 21 9.9
      vertex 30.25 35 9.9
      vertex 30.25 21 9.9
    endloop
  endfacet
  facet normal -0 0 -1
    outer loop
      vertex 30.25 35 9.9
      vertex 23.75 21 9.9
      vertex 23.75 35 9.9
    endloop
  endfacet
  facet normal 1 -0 0
    outer loop
      vertex 23.75 21 9.9
      vertex 23.75 35 5.5
      vertex 23.75 35 9.9
    endloop
  endfacet
  facet normal 1 0 0
    outer loop
      vertex 23.75 35 5.5
      vertex 23.75 21 9.9
      vertex 23.75 21 5.5
    endloop
  endfacet
endsolid OpenSCAD_Model
