  0
SECTION
  2
BLOCKS
  0
ENDSEC
  0
SECTION
  2
ENTITIES
  0
LINE
  8
0
 10
109.837
 20
0.519867
 11
111.545
 21
1.41612
  0
LINE
  8
0
 10
111.545
 20
1.41612
 11
112.988
 21
2.69501
  0
LINE
  8
0
 10
112.988
 20
2.69501
 11
114.084
 21
4.28221
  0
LINE
  8
0
 10
114.084
 20
4.28221
 11
114.768
 21
6.08546
  0
LINE
  8
0
 10
114.768
 20
6.08546
 11
115
 21
8
  0
LINE
  8
0
 10
115
 20
8
 11
115
 21
97
  0
LINE
  8
0
 10
115
 20
97
 11
114.768
 21
98.9145
  0
LINE
  8
0
 10
114.768
 20
98.9145
 11
114.084
 21
100.718
  0
LINE
  8
0
 10
114.084
 20
100.718
 11
112.988
 21
102.305
  0
LINE
  8
0
 10
112.988
 20
102.305
 11
111.545
 21
103.584
  0
LINE
  8
0
 10
111.545
 20
103.584
 11
109.837
 21
104.48
  0
LINE
  8
0
 10
109.837
 20
104.48
 11
107.964
 21
104.942
  0
LINE
  8
0
 10
107.964
 20
104.942
 11
7.03571
 21
104.942
  0
LINE
  8
0
 10
7.03571
 20
104.942
 11
5.16315
 21
104.48
  0
LINE
  8
0
 10
5.16315
 20
104.48
 11
3.45547
 21
103.584
  0
LINE
  8
0
 10
3.45547
 20
103.584
 11
2.0119
 21
102.305
  0
LINE
  8
0
 10
2.0119
 20
102.305
 11
0.916351
 21
100.718
  0
LINE
  8
0
 10
0.916351
 20
100.718
 11
0.232452
 21
98.9145
  0
LINE
  8
0
 10
0.232452
 20
98.9145
 11
0
 21
97
  0
LINE
  8
0
 10
0
 20
97
 11
0
 21
8
  0
LINE
  8
0
 10
0
 20
8
 11
0.232452
 21
6.08546
  0
LINE
  8
0
 10
0.232452
 20
6.08546
 11
0.916351
 21
4.28221
  0
LINE
  8
0
 10
0.916351
 20
4.28221
 11
2.0119
 21
2.69501
  0
LINE
  8
0
 10
2.0119
 20
2.69501
 11
3.45547
 21
1.41612
  0
LINE
  8
0
 10
3.45547
 20
1.41612
 11
5.16315
 21
0.519867
  0
LINE
  8
0
 10
5.16315
 20
0.519867
 11
7.03571
 21
0.0583191
  0
LINE
  8
0
 10
7.03571
 20
0.0583191
 11
107.964
 21
0.0583191
  0
LINE
  8
0
 10
107.964
 20
0.0583191
 11
109.837
 21
0.519867
  0
LINE
  8
0
 10
55.25
 20
82
 11
55.25
 21
92.1247
  0
LINE
  8
0
 10
55.25
 20
92.1247
 11
54.9999
 21
92.2584
  0
LINE
  8
0
 10
54.9999
 20
92.2584
 11
54.318
 21
92.818
  0
LINE
  8
0
 10
54.318
 20
92.818
 11
53.7584
 21
93.4999
  0
LINE
  8
0
 10
53.7584
 20
93.4999
 11
53.3425
 21
94.2779
  0
LINE
  8
0
 10
53.3425
 20
94.2779
 11
53.0865
 21
95.1221
  0
LINE
  8
0
 10
53.0865
 20
95.1221
 11
53
 21
96
  0
LINE
  8
0
 10
53
 20
96
 11
53.0865
 21
96.8779
  0
LINE
  8
0
 10
53.0865
 20
96.8779
 11
53.3425
 21
97.7221
  0
LINE
  8
0
 10
53.3425
 20
97.7221
 11
53.7584
 21
98.5001
  0
LINE
  8
0
 10
53.7584
 20
98.5001
 11
54.318
 21
99.182
  0
LINE
  8
0
 10
54.318
 20
99.182
 11
54.9999
 21
99.7416
  0
LINE
  8
0
 10
54.9999
 20
99.7416
 11
55.7779
 21
100.157
  0
LINE
  8
0
 10
55.7779
 20
100.157
 11
56.6221
 21
100.414
  0
LINE
  8
0
 10
56.6221
 20
100.414
 11
57.5
 21
100.5
  0
LINE
  8
0
 10
57.5
 20
100.5
 11
58.3779
 21
100.414
  0
LINE
  8
0
 10
58.3779
 20
100.414
 11
59.2221
 21
100.157
  0
LINE
  8
0
 10
59.2221
 20
100.157
 11
60.0001
 21
99.7416
  0
LINE
  8
0
 10
60.0001
 20
99.7416
 11
60.682
 21
99.182
  0
LINE
  8
0
 10
60.682
 20
99.182
 11
61.2416
 21
98.5001
  0
LINE
  8
0
 10
61.2416
 20
98.5001
 11
61.6575
 21
97.7221
  0
LINE
  8
0
 10
61.6575
 20
97.7221
 11
61.9135
 21
96.8779
  0
LINE
  8
0
 10
61.9135
 20
96.8779
 11
62
 21
96
  0
LINE
  8
0
 10
62
 20
96
 11
61.9135
 21
95.1221
  0
LINE
  8
0
 10
61.9135
 20
95.1221
 11
61.6575
 21
94.2779
  0
LINE
  8
0
 10
61.6575
 20
94.2779
 11
61.2416
 21
93.4999
  0
LINE
  8
0
 10
61.2416
 20
93.4999
 11
60.682
 21
92.818
  0
LINE
  8
0
 10
60.682
 20
92.818
 11
60.0001
 21
92.2584
  0
LINE
  8
0
 10
60.0001
 20
92.2584
 11
59.75
 21
92.1247
  0
LINE
  8
0
 10
59.75
 20
92.1247
 11
59.75
 21
82
  0
LINE
  8
0
 10
59.75
 20
82
 11
55.25
 21
82
  0
LINE
  8
0
 10
18.8686
 20
68.8686
 11
18.6143
 21
69.2
  0
LINE
  8
0
 10
18.6143
 20
69.2
 11
18.4545
 21
69.5859
  0
LINE
  8
0
 10
18.4545
 20
69.5859
 11
18.4
 21
70
  0
LINE
  8
0
 10
18.4
 20
70
 11
18.4545
 21
70.4141
  0
LINE
  8
0
 10
18.4545
 20
70.4141
 11
18.6143
 21
70.8
  0
LINE
  8
0
 10
18.6143
 20
70.8
 11
18.8686
 21
71.1314
  0
LINE
  8
0
 10
18.8686
 20
71.1314
 11
19.2
 21
71.3856
  0
LINE
  8
0
 10
19.2
 20
71.3856
 11
19.5859
 21
71.5455
  0
LINE
  8
0
 10
19.5859
 20
71.5455
 11
20
 21
71.6
  0
LINE
  8
0
 10
20
 20
71.6
 11
20.4141
 21
71.5455
  0
LINE
  8
0
 10
20.4141
 20
71.5455
 11
20.8
 21
71.3856
  0
LINE
  8
0
 10
20.8
 20
71.3856
 11
21.1314
 21
71.1314
  0
LINE
  8
0
 10
21.1314
 20
71.1314
 11
21.3856
 21
70.8
  0
LINE
  8
0
 10
21.3856
 20
70.8
 11
21.5455
 21
70.4141
  0
LINE
  8
0
 10
21.5455
 20
70.4141
 11
21.6
 21
70
  0
LINE
  8
0
 10
21.6
 20
70
 11
21.5455
 21
69.5859
  0
LINE
  8
0
 10
21.5455
 20
69.5859
 11
21.3856
 21
69.2
  0
LINE
  8
0
 10
21.3856
 20
69.2
 11
21.1314
 21
68.8686
  0
LINE
  8
0
 10
21.1314
 20
68.8686
 11
20.8
 21
68.6143
  0
LINE
  8
0
 10
20.8
 20
68.6143
 11
20.4141
 21
68.4545
  0
LINE
  8
0
 10
20.4141
 20
68.4545
 11
20
 21
68.4
  0
LINE
  8
0
 10
20
 20
68.4
 11
19.5859
 21
68.4545
  0
LINE
  8
0
 10
19.5859
 20
68.4545
 11
19.2
 21
68.6143
  0
LINE
  8
0
 10
19.2
 20
68.6143
 11
18.8686
 21
68.8686
  0
LINE
  8
0
 10
94.5859
 20
68.4545
 11
94.2
 21
68.6143
  0
LINE
  8
0
 10
94.2
 20
68.6143
 11
93.8686
 21
68.8686
  0
LINE
  8
0
 10
93.8686
 20
68.8686
 11
93.6143
 21
69.2
  0
LINE
  8
0
 10
93.6143
 20
69.2
 11
93.4545
 21
69.5859
  0
LINE
  8
0
 10
93.4545
 20
69.5859
 11
93.4
 21
70
  0
LINE
  8
0
 10
93.4
 20
70
 11
93.4545
 21
70.4141
  0
LINE
  8
0
 10
93.4545
 20
70.4141
 11
93.6143
 21
70.8
  0
LINE
  8
0
 10
93.6143
 20
70.8
 11
93.8686
 21
71.1314
  0
LINE
  8
0
 10
93.8686
 20
71.1314
 11
94.2
 21
71.3856
  0
LINE
  8
0
 10
94.2
 20
71.3856
 11
94.5859
 21
71.5455
  0
LINE
  8
0
 10
94.5859
 20
71.5455
 11
95
 21
71.6
  0
LINE
  8
0
 10
95
 20
71.6
 11
95.4141
 21
71.5455
  0
LINE
  8
0
 10
95.4141
 20
71.5455
 11
95.8
 21
71.3856
  0
LINE
  8
0
 10
95.8
 20
71.3856
 11
96.1314
 21
71.1314
  0
LINE
  8
0
 10
96.1314
 20
71.1314
 11
96.3856
 21
70.8
  0
LINE
  8
0
 10
96.3856
 20
70.8
 11
96.5455
 21
70.4141
  0
LINE
  8
0
 10
96.5455
 20
70.4141
 11
96.6
 21
70
  0
LINE
  8
0
 10
96.6
 20
70
 11
96.5455
 21
69.5859
  0
LINE
  8
0
 10
96.5455
 20
69.5859
 11
96.3856
 21
69.2
  0
LINE
  8
0
 10
96.3856
 20
69.2
 11
96.1314
 21
68.8686
  0
LINE
  8
0
 10
96.1314
 20
68.8686
 11
95.8
 21
68.6143
  0
LINE
  8
0
 10
95.8
 20
68.6143
 11
95.4141
 21
68.4545
  0
LINE
  8
0
 10
95.4141
 20
68.4545
 11
95
 21
68.4
  0
LINE
  8
0
 10
95
 20
68.4
 11
94.5859
 21
68.4545
  0
LINE
  8
0
 10
53.02
 20
21.1625
 11
50.5824
 21
21.6474
  0
LINE
  8
0
 10
50.5824
 20
21.6474
 11
48.229
 21
22.4463
  0
LINE
  8
0
 10
48.229
 20
22.4463
 11
46
 21
23.5455
  0
LINE
  8
0
 10
46
 20
23.5455
 11
43.9335
 21
24.9263
  0
LINE
  8
0
 10
43.9335
 20
24.9263
 11
42.065
 21
26.565
  0
LINE
  8
0
 10
42.065
 20
26.565
 11
40.4263
 21
28.4335
  0
LINE
  8
0
 10
40.4263
 20
28.4335
 11
39.0455
 21
30.5
  0
LINE
  8
0
 10
39.0455
 20
30.5
 11
37.9463
 21
32.729
  0
LINE
  8
0
 10
37.9463
 20
32.729
 11
37.1474
 21
35.0824
  0
LINE
  8
0
 10
37.1474
 20
35.0824
 11
36.6625
 21
37.52
  0
LINE
  8
0
 10
36.6625
 20
37.52
 11
36.5
 21
40
  0
LINE
  8
0
 10
36.5
 20
40
 11
36.6625
 21
42.48
  0
LINE
  8
0
 10
36.6625
 20
42.48
 11
37.1474
 21
44.9176
  0
LINE
  8
0
 10
37.1474
 20
44.9176
 11
37.9463
 21
47.271
  0
LINE
  8
0
 10
37.9463
 20
47.271
 11
39.0455
 21
49.5
  0
LINE
  8
0
 10
39.0455
 20
49.5
 11
40.4263
 21
51.5665
  0
LINE
  8
0
 10
40.4263
 20
51.5665
 11
42.065
 21
53.435
  0
LINE
  8
0
 10
42.065
 20
53.435
 11
43.9335
 21
55.0737
  0
LINE
  8
0
 10
43.9335
 20
55.0737
 11
46
 21
56.4545
  0
LINE
  8
0
 10
46
 20
56.4545
 11
48.229
 21
57.5537
  0
LINE
  8
0
 10
48.229
 20
57.5537
 11
50.5824
 21
58.3526
  0
LINE
  8
0
 10
50.5824
 20
58.3526
 11
53.02
 21
58.8374
  0
LINE
  8
0
 10
53.02
 20
58.8374
 11
55.5
 21
59
  0
LINE
  8
0
 10
55.5
 20
59
 11
57.98
 21
58.8374
  0
LINE
  8
0
 10
57.98
 20
58.8374
 11
60.4176
 21
58.3526
  0
LINE
  8
0
 10
60.4176
 20
58.3526
 11
62.771
 21
57.5537
  0
LINE
  8
0
 10
62.771
 20
57.5537
 11
65
 21
56.4545
  0
LINE
  8
0
 10
65
 20
56.4545
 11
67.0665
 21
55.0737
  0
LINE
  8
0
 10
67.0665
 20
55.0737
 11
68.935
 21
53.435
  0
LINE
  8
0
 10
68.935
 20
53.435
 11
70.5737
 21
51.5665
  0
LINE
  8
0
 10
70.5737
 20
51.5665
 11
71.9545
 21
49.5
  0
LINE
  8
0
 10
71.9545
 20
49.5
 11
73.0537
 21
47.271
  0
LINE
  8
0
 10
73.0537
 20
47.271
 11
73.8526
 21
44.9176
  0
LINE
  8
0
 10
73.8526
 20
44.9176
 11
74.3374
 21
42.48
  0
LINE
  8
0
 10
74.3374
 20
42.48
 11
74.5
 21
40
  0
LINE
  8
0
 10
74.5
 20
40
 11
74.3374
 21
37.52
  0
LINE
  8
0
 10
74.3374
 20
37.52
 11
73.8526
 21
35.0824
  0
LINE
  8
0
 10
73.8526
 20
35.0824
 11
73.0537
 21
32.729
  0
LINE
  8
0
 10
73.0537
 20
32.729
 11
71.9545
 21
30.5
  0
LINE
  8
0
 10
71.9545
 20
30.5
 11
70.5737
 21
28.4335
  0
LINE
  8
0
 10
70.5737
 20
28.4335
 11
68.935
 21
26.565
  0
LINE
  8
0
 10
68.935
 20
26.565
 11
67.0665
 21
24.9263
  0
LINE
  8
0
 10
67.0665
 20
24.9263
 11
65
 21
23.5455
  0
LINE
  8
0
 10
65
 20
23.5455
 11
62.771
 21
22.4463
  0
LINE
  8
0
 10
62.771
 20
22.4463
 11
60.4176
 21
21.6474
  0
LINE
  8
0
 10
60.4176
 20
21.6474
 11
57.98
 21
21.1625
  0
LINE
  8
0
 10
57.98
 20
21.1625
 11
55.5
 21
21
  0
LINE
  8
0
 10
55.5
 20
21
 11
53.02
 21
21.1625
  0
LINE
  8
0
 10
19.5859
 20
33.4545
 11
19.2
 21
33.6143
  0
LINE
  8
0
 10
19.2
 20
33.6143
 11
18.8686
 21
33.8686
  0
LINE
  8
0
 10
18.8686
 20
33.8686
 11
18.6143
 21
34.2
  0
LINE
  8
0
 10
18.6143
 20
34.2
 11
18.4545
 21
34.5859
  0
LINE
  8
0
 10
18.4545
 20
34.5859
 11
18.4
 21
35
  0
LINE
  8
0
 10
18.4
 20
35
 11
18.4545
 21
35.4141
  0
LINE
  8
0
 10
18.4545
 20
35.4141
 11
18.6143
 21
35.8
  0
LINE
  8
0
 10
18.6143
 20
35.8
 11
18.8686
 21
36.1314
  0
LINE
  8
0
 10
18.8686
 20
36.1314
 11
19.2
 21
36.3856
  0
LINE
  8
0
 10
19.2
 20
36.3856
 11
19.5859
 21
36.5455
  0
LINE
  8
0
 10
19.5859
 20
36.5455
 11
20
 21
36.6
  0
LINE
  8
0
 10
20
 20
36.6
 11
20.4141
 21
36.5455
  0
LINE
  8
0
 10
20.4141
 20
36.5455
 11
20.8
 21
36.3856
  0
LINE
  8
0
 10
20.8
 20
36.3856
 11
21.1314
 21
36.1314
  0
LINE
  8
0
 10
21.1314
 20
36.1314
 11
21.3856
 21
35.8
  0
LINE
  8
0
 10
21.3856
 20
35.8
 11
21.5455
 21
35.4141
  0
LINE
  8
0
 10
21.5455
 20
35.4141
 11
21.6
 21
35
  0
LINE
  8
0
 10
21.6
 20
35
 11
21.5455
 21
34.5859
  0
LINE
  8
0
 10
21.5455
 20
34.5859
 11
21.3856
 21
34.2
  0
LINE
  8
0
 10
21.3856
 20
34.2
 11
21.1314
 21
33.8686
  0
LINE
  8
0
 10
21.1314
 20
33.8686
 11
20.8
 21
33.6143
  0
LINE
  8
0
 10
20.8
 20
33.6143
 11
20.4141
 21
33.4545
  0
LINE
  8
0
 10
20.4141
 20
33.4545
 11
20
 21
33.4
  0
LINE
  8
0
 10
20
 20
33.4
 11
19.5859
 21
33.4545
  0
LINE
  8
0
 10
94.5859
 20
33.4545
 11
94.2
 21
33.6143
  0
LINE
  8
0
 10
94.2
 20
33.6143
 11
93.8686
 21
33.8686
  0
LINE
  8
0
 10
93.8686
 20
33.8686
 11
93.6143
 21
34.2
  0
LINE
  8
0
 10
93.6143
 20
34.2
 11
93.4545
 21
34.5859
  0
LINE
  8
0
 10
93.4545
 20
34.5859
 11
93.4
 21
35
  0
LINE
  8
0
 10
93.4
 20
35
 11
93.4545
 21
35.4141
  0
LINE
  8
0
 10
93.4545
 20
35.4141
 11
93.6143
 21
35.8
  0
LINE
  8
0
 10
93.6143
 20
35.8
 11
93.8686
 21
36.1314
  0
LINE
  8
0
 10
93.8686
 20
36.1314
 11
94.2
 21
36.3856
  0
LINE
  8
0
 10
94.2
 20
36.3856
 11
94.5859
 21
36.5455
  0
LINE
  8
0
 10
94.5859
 20
36.5455
 11
95
 21
36.6
  0
LINE
  8
0
 10
95
 20
36.6
 11
95.4141
 21
36.5455
  0
LINE
  8
0
 10
95.4141
 20
36.5455
 11
95.8
 21
36.3856
  0
LINE
  8
0
 10
95.8
 20
36.3856
 11
96.1314
 21
36.1314
  0
LINE
  8
0
 10
96.1314
 20
36.1314
 11
96.3856
 21
35.8
  0
LINE
  8
0
 10
96.3856
 20
35.8
 11
96.5455
 21
35.4141
  0
LINE
  8
0
 10
96.5455
 20
35.4141
 11
96.6
 21
35
  0
LINE
  8
0
 10
96.6
 20
35
 11
96.5455
 21
34.5859
  0
LINE
  8
0
 10
96.5455
 20
34.5859
 11
96.3856
 21
34.2
  0
LINE
  8
0
 10
96.3856
 20
34.2
 11
96.1314
 21
33.8686
  0
LINE
  8
0
 10
96.1314
 20
33.8686
 11
95.8
 21
33.6143
  0
LINE
  8
0
 10
95.8
 20
33.6143
 11
95.4141
 21
33.4545
  0
LINE
  8
0
 10
95.4141
 20
33.4545
 11
95
 21
33.4
  0
LINE
  8
0
 10
95
 20
33.4
 11
94.5859
 21
33.4545
  0
LINE
  8
0
 10
57.0056
 20
7.4783
 11
56.5595
 21
7.70557
  0
LINE
  8
0
 10
56.5595
 20
7.70557
 11
56.2056
 21
8.05954
  0
LINE
  8
0
 10
56.2056
 20
8.05954
 11
55.9783
 21
8.50557
  0
LINE
  8
0
 10
55.9783
 20
8.50557
 11
55.9
 21
9
  0
LINE
  8
0
 10
55.9
 20
9
 11
55.9783
 21
9.49442
  0
LINE
  8
0
 10
55.9783
 20
9.49442
 11
56.2056
 21
9.94044
  0
LINE
  8
0
 10
56.2056
 20
9.94044
 11
56.5595
 21
10.2944
  0
LINE
  8
0
 10
56.5595
 20
10.2944
 11
57.0056
 21
10.5217
  0
LINE
  8
0
 10
57.0056
 20
10.5217
 11
57.5
 21
10.6
  0
LINE
  8
0
 10
57.5
 20
10.6
 11
57.9944
 21
10.5217
  0
LINE
  8
0
 10
57.9944
 20
10.5217
 11
58.4404
 21
10.2944
  0
LINE
  8
0
 10
58.4404
 20
10.2944
 11
58.7944
 21
9.94044
  0
LINE
  8
0
 10
58.7944
 20
9.94044
 11
59.0217
 21
9.49442
  0
LINE
  8
0
 10
59.0217
 20
9.49442
 11
59.1
 21
9
  0
LINE
  8
0
 10
59.1
 20
9
 11
59.0217
 21
8.50557
  0
LINE
  8
0
 10
59.0217
 20
8.50557
 11
58.7944
 21
8.05954
  0
LINE
  8
0
 10
58.7944
 20
8.05954
 11
58.4404
 21
7.70557
  0
LINE
  8
0
 10
58.4404
 20
7.70557
 11
57.9944
 21
7.4783
  0
LINE
  8
0
 10
57.9944
 20
7.4783
 11
57.5
 21
7.39999
  0
LINE
  8
0
 10
57.5
 20
7.39999
 11
57.0056
 21
7.4783
  0
ENDSEC
  0
SECTION
  2
OBJECTS
  0
DICTIONARY
  0
ENDSEC
  0
EOF
